<svg width="221" height="80" viewBox="0 0 221 80" fill="none" xmlns="http://www.w3.org/2000/svg">
<mask id="mask0_1_5" style="mask-type:luminance" maskUnits="userSpaceOnUse" x="0" y="0" width="221" height="80">
<path d="M0 0H221V79.4172H0V0Z" fill="white"/>
</mask>
<g mask="url(#mask0_1_5)">
<path d="M160.611 55.2695C159.83 56.1315 158.104 56.4971 156.562 56.1315C155.226 56.0009 154.075 55.7658 152.719 55.6352C152.719 56.0009 152.719 56.4971 152.534 57.0979C150.786 57.346 149.06 57.4636 147.333 57.7117C145.607 57.9599 144.456 58.1949 143.099 58.5606C142.339 58.8087 141.373 58.9263 140.407 59.0569C139.831 59.0569 139.255 58.6912 138.495 58.4431C138.104 58.6912 137.529 58.9263 137.529 59.1744C137.529 59.7752 136.953 59.7752 136.378 59.9058C135.412 60.0233 134.261 60.0233 133.685 60.2715C132.904 60.6371 131.938 60.7547 130.993 60.5065C130.602 60.5065 130.417 60.5065 130.212 60.6371C129.451 61.2379 128.094 61.3685 126.943 61.1203C126.758 61.1203 125.977 61.3685 125.977 61.486C126.183 62.5831 124.436 62.4655 123.675 62.7006C122.319 62.8312 120.983 62.8312 119.626 62.7006L119.832 63.3144C117.9 62.8312 116.564 64.1633 114.631 64.0458C112.905 64.1633 110.973 64.4114 109.246 64.7771L108.671 63.6801L106.554 65.5085L102.525 65.2603C101.353 66.8406 98.6607 66.8406 96.5642 67.4544C96.1736 67.2063 95.9681 66.8406 95.5981 66.723C95.0226 66.6055 94.4471 66.4749 93.8716 66.4749C93.481 66.4749 93.2755 66.723 93.0905 66.8406C93.0905 67.2063 93.2755 67.7025 93.2755 68.0552L84.8277 69.2828C84.2521 70.3798 82.135 69.5179 80.7785 70.0141C80.5935 70.0141 80.0179 69.6485 79.4424 69.2828L77.3253 71.1112L76.5443 70.2492H76.3593C75.5988 71.8425 72.5156 70.6149 71.159 71.8425C70.9741 71.9601 69.823 71.5944 68.857 71.4768L66.7399 72.5608L66.3493 70.9806C65.7738 70.7455 64.4378 70.9806 65.0133 70.0141C64.6228 70.2492 64.2322 70.3798 64.2322 70.6149C64.0472 71.2287 63.6567 71.4768 62.7112 71.5944C61.7452 71.7119 60.7791 72.0776 59.6281 71.5944C58.2715 70.9806 58.2715 70.9806 57.1204 71.9601C56.3599 72.4433 55.3939 72.809 54.4278 73.0571C55.3939 73.2922 56.5449 73.2922 57.511 73.0571L57.696 74.0235C57.1204 74.1541 56.7505 74.3892 56.1544 74.3892C54.8184 74.3892 53.4618 74.5198 52.3107 75.003C50.7692 75.6168 48.6521 75.4862 47.316 76.4657C47.131 76.5833 46.7405 76.5833 46.5555 76.5833C45.3839 76.5833 44.4384 76.4657 43.2668 76.9489C42.8969 77.1971 41.9308 76.9489 41.1703 76.8314L39.9987 77.6803L38.0871 76.7008L34.6135 78.2941L34.4285 78.4116C32.4964 79.0255 30.5848 79.5087 28.6527 78.2941L27.8922 79.2605C26.1656 79.143 23.658 79.9919 22.692 78.6598C21.9314 77.5628 20.2049 76.3482 21.9314 74.8855L24.8091 75.8519C24.8091 75.4862 24.6241 75.2512 24.6241 74.8855C24.0485 74.1541 23.843 74.1541 24.8091 73.906C25.7751 73.6578 26.7412 73.5403 27.5017 73.4228C28.8582 73.1746 30.3998 72.809 31.7359 72.4433C32.7019 72.2082 32.4964 71.7119 32.4964 71.2287V69.1522C32.3114 69.1522 31.3453 68.9171 31.1603 69.0346C30.0093 69.6485 29.2282 69.2828 28.2827 69.0346C27.5017 68.7865 26.7412 68.669 25.9601 68.7865C24.994 69.0346 24.2335 68.669 23.2675 68.5514C23.473 68.669 23.473 68.7865 23.658 68.9171C23.843 69.0346 24.0485 69.2828 24.0485 69.4003C23.843 69.766 21.9314 69.766 21.1504 69.4003C20.2049 68.7865 20.2049 68.7865 18.8483 69.1522L19.6088 69.766C17.8822 70.7455 16.9162 69.5179 15.3952 69.4003V69.0346L16.9162 68.9171L15.9707 68.0552L14.2236 68.7865C12.497 68.3033 13.4631 66.2398 10.1949 66.4749C11.531 65.626 11.7365 64.8947 10.9554 64.2808C10.1949 63.6801 9.22888 63.4319 8.07784 63.4319C7.50232 63.4319 6.92679 63.4319 6.14573 63.3144C5.57021 63.1969 4.99469 63.1969 4.41917 63.0663H6.35127C5.77575 63.0663 4.99469 62.2174 4.62471 63.0663C3.84365 62.5831 2.50762 62.7006 1.54156 62.2174C1.15103 61.9692 0.575511 61.8517 0.575511 61.6036C0.760499 60.5065 -1.06692e-05 59.4226 1.54156 58.3255C2.30207 57.8293 2.30207 56.8628 3.45312 56.3665C3.84365 56.3665 4.41917 56.249 4.8097 56.249C5.20023 55.8833 5.38522 55.5176 5.77575 55.152C6.35127 54.5512 7.50231 53.9374 7.11178 53.0885C7.11178 52.9579 7.11178 52.9579 7.11178 52.8404C7.89285 52.2266 8.83834 51.7433 9.61941 51.1295C10.3799 50.5288 10.7705 50.4112 12.8875 50.5288C14.0386 49.6799 15.1896 48.8179 17.3067 49.3142C17.6973 48.0866 19.2388 47.2377 21.1504 46.9895C22.3014 46.7545 23.0825 46.0231 24.0485 45.5399C23.658 44.9261 23.2675 44.3123 22.8975 43.7115C22.507 43.0977 23.0825 42.2488 24.0485 42.0007C24.6241 41.8831 25.1996 41.635 25.5901 41.2693C26.5356 40.4204 27.6867 40.7861 28.8583 41.0342C29.6188 41.1518 30.3998 41.3999 30.9753 41.3999C30.3998 40.3029 29.2282 40.4204 28.2827 40.3029C29.4338 39.4409 31.5509 39.0752 33.2774 39.4409C34.2435 38.7096 35.189 37.8607 36.155 37.1293C36.5456 36.8942 36.9361 36.6461 37.5116 36.5286C39.4232 36.2804 41.3553 36.1629 43.2668 36.0323C43.0818 35.6666 43.8629 35.6666 44.6234 35.6666C47.501 35.5491 50.1936 34.9352 52.5163 33.9688L52.1257 32.5061L50.0086 32.6236L49.4331 33.6031L48.2821 33.4856C48.2821 32.9893 48.0765 32.5061 48.0765 32.1404C46.7405 31.8923 47.131 32.5061 46.9255 32.8718C46.7405 33.6031 46.35 33.7207 45.1989 33.1199C45.0139 32.9893 44.2329 32.8718 44.0479 32.8718C42.3213 33.7207 39.9987 33.355 38.0871 33.7207C37.3061 33.9688 35.97 33.355 34.6135 33.1199C33.668 34.0864 32.1264 33.355 30.7698 33.7207C29.0432 33.9688 27.3167 33.9688 25.3846 33.8382C24.8091 33.8382 23.658 34.2039 23.473 33.355C23.0825 33.2375 22.692 33.2375 22.507 33.355C22.1164 33.6031 21.7259 33.8382 21.5409 34.0864C19.8144 33.4856 18.0878 33.1199 18.0878 31.8923C18.0878 30.7953 18.8483 29.6982 20.3899 29.215C18.6633 28.8493 17.6973 28.3661 16.3407 29.0975C15.9707 29.3456 14.8197 29.0975 14.0386 28.9799C12.127 28.8493 10.0099 29.215 8.46837 28.118C8.07784 27.8829 7.68731 27.6348 7.68731 27.5172C8.07784 26.6553 7.50232 25.6888 8.46837 24.9575C9.04389 24.3437 10.0099 23.978 10.9554 23.8605C14.2236 23.4948 17.5123 22.7634 20.3899 21.7839C20.5749 21.6664 20.9654 21.5489 21.1504 21.5489C24.0485 21.7839 26.3506 20.3343 29.0432 20.2037C30.3998 20.0862 31.9208 19.838 33.0924 19.3548C34.6135 18.9891 36.3606 18.741 38.0871 18.6234L39.4232 18.5059L40.2042 19.2373C40.3892 18.741 40.2042 18.3753 40.5742 18.2578C41.3553 18.0096 42.1158 17.7745 42.8969 17.6439C44.6234 17.4089 46.35 17.1607 47.8915 16.9126C50.1936 16.6775 52.5163 16.4294 54.6334 15.9462C55.3939 15.8286 55.7844 15.5805 56.1544 16.1943C56.1544 16.3118 56.9355 16.3118 57.511 16.4294L56.5449 15.0973L59.4431 14.2353L60.3886 15.3323L61.1696 13.6346C61.7452 13.504 62.3207 13.3864 62.7112 13.1383C63.8623 12.5375 65.1983 12.1719 66.5549 11.9237C68.0964 11.323 68.8569 11.0748 69.823 10.8267C70.3985 10.8267 70.7891 10.8267 71.159 10.9573C71.7346 10.3435 72.9062 9.86025 74.0572 9.72965C75.5988 9.49458 76.9348 9.12889 78.2914 8.63262C79.2369 8.39754 80.2029 7.90127 81.5595 8.26694C81.9295 8.39754 82.505 8.03187 82.8956 8.03187L86.3692 7.30051C87.5203 7.05237 88.4863 6.81729 89.6374 6.6867C90.5829 6.56916 91.7545 6.45162 92.7 6.45162C93.0905 6.20348 93.481 6.08594 93.8716 6.08594C96.7492 5.72026 99.6268 5.47212 102.525 5.22399C103.285 5.22399 104.067 5.35459 104.827 5.47213L104.436 6.20348C105.218 6.45162 105.978 6.45162 105.978 5.95534C105.978 4.98891 106.759 4.98891 107.91 5.10645C109.452 4.98891 111.178 4.85831 112.72 4.74077C116.564 4.62323 120.407 4.74077 124.066 4.49263C126.553 4.25755 129.061 4.74077 131.363 4.37509C132.904 4.00941 133.11 4.12696 134.055 5.22399C135.597 4.49263 137.529 4.25756 139.44 4.25756C142.524 4.25756 145.792 4.00942 148.875 3.5262C149.841 3.27806 150.992 3.27806 151.958 3.5262C152.143 3.5262 152.328 3.5262 152.534 3.5262C153.685 3.27806 155.021 2.67731 155.987 2.79485C157.343 3.04299 158.494 2.54671 159.645 2.67731C161.372 2.54671 162.914 2.31163 164.455 1.94595L166.942 3.04299L167.333 2.79485L166.572 1.69782H170.806C171.382 1.69782 172.142 1.58028 172.718 1.44968C174.65 1.084 176.767 0.966462 178.884 0.966462C179.83 0.966462 180.611 1.44968 181.947 1.94595L180.796 0.718324C181.762 0.600782 182.728 0.483246 183.694 0.600785C184.454 0.718326 185.03 1.33214 185.811 1.69782C186.181 1.2146 186.387 0.718326 186.757 0.235107C187.538 0.483246 188.298 0.718325 189.079 0.848923C189.84 0.848923 190.6 0.718325 191.381 0.483245L190.23 1.33214C191.196 1.69782 192.717 0.966462 193.108 2.06349L191.566 3.04299H194.074C194.259 4.62323 194.259 4.62323 191.957 5.22399C191.566 4.98891 191.196 4.62323 190.991 4.62323C190.415 4.85831 189.84 5.10645 189.449 5.35459C189.264 5.35459 189.079 5.22399 188.874 5.10645L188.298 5.22399L188.504 5.72026C189.079 5.72026 190.025 5.95534 190.025 5.72026C190.6 5.22399 191.381 5.35459 191.957 5.22399L190.806 6.08594V8.39754L188.504 7.54865C188.298 8.51508 188.298 9.24644 188.113 9.97779C189.449 9.49457 189.655 9.49458 190.6 10.5916C192.717 10.3435 195.04 10.5916 196.951 11.323C198.308 11.6886 199.069 12.6551 198.493 13.6346C198.308 14.1178 198.493 14.7316 199.069 14.9667C200.22 15.5805 199.459 15.9462 199.069 16.5469C200.22 16.7951 200.425 17.4089 199.85 18.1402C201.576 18.2578 203.488 17.5264 205.029 18.6234L206.961 18.0096L207.927 18.9891C209.079 18.2578 210.805 18.6234 211.956 18.8716C213.107 19.1067 213.888 20.0861 215.039 20.8175L216.005 20.2037L217.547 21.7839L215.43 22.1496L216.581 23.2466C216.581 23.8605 215.615 24.3437 214.649 24.2261C214.464 24.2261 214.258 24.2261 214.073 24.1086C212.532 23.8605 212.162 24.2261 212.162 25.1926H203.488C203.303 25.4407 203.118 25.6888 202.727 26.0545C201.967 25.6888 201.391 24.7094 200.61 25.9239C200.425 25.8064 200.425 25.8064 200.22 25.6888C199.644 25.4407 199.069 25.3232 198.308 25.3232C198.493 25.5582 198.884 25.8064 199.274 26.0545C200.795 26.6553 202.337 27.2691 203.693 27.8829C203.878 28.0004 204.659 28.0004 204.844 27.8829C206.386 26.9034 207.927 28.2486 209.469 27.7523C210.415 28.7318 212.347 28.7318 213.313 29.5807C213.683 29.9464 213.683 30.5602 213.888 31.0434C214.073 31.5266 213.683 31.8923 213.107 32.258C212.532 32.6236 212.347 33.2375 211.566 33.355C211.381 33.355 211.196 33.6031 210.99 33.6031C209.469 33.355 207.722 33.7207 206.386 33.6031C204.844 33.355 203.303 33.355 201.576 33.4856C200.425 33.7207 199.274 33.7207 198.103 33.6031C197.733 33.4856 197.342 33.4856 196.951 33.6031C194.834 33.8382 194.834 33.8382 193.293 33.2375L192.717 33.8382C191.772 33.9688 190.6 33.2375 189.655 33.9688C189.655 33.9688 188.874 33.9688 188.689 33.8382C187.723 33.355 186.387 33.355 185.215 33.7207C184.064 33.9688 182.913 33.9688 181.762 33.8382C181.001 33.7207 181.371 32.5061 179.83 33.1199C179.254 33.355 178.494 33.6031 177.918 33.8382C177.528 33.9688 176.952 33.8382 177.137 34.3345C177.137 34.3345 176.767 34.7002 176.562 34.5696C175.411 34.3345 174.075 34.9352 172.923 34.3345C172.718 34.2039 172.327 34.3345 171.752 34.3345L173.869 35.3009C173.684 36.1629 171.382 35.5491 171.957 36.7636C173.869 35.9147 175.801 36.7636 177.733 36.6461C178.494 36.6461 179.254 36.5286 180.035 36.5286C180.22 36.5286 180.426 36.398 180.611 36.398C182.152 37.1293 183.488 36.2804 184.845 36.398C186.181 36.5286 187.332 36.5286 188.689 36.5286C190.025 36.5286 191.381 36.5286 192.717 36.5286C194.074 36.2804 195.615 36.398 196.951 36.6461C197.733 36.8942 198.678 36.398 199.644 36.398C202.152 36.398 204.659 36.5286 207.146 36.6461C209.654 36.7636 212.162 37.0118 214.649 37.2599V38.1088C216.19 38.3439 217.547 38.7096 218.883 38.9577C219.273 39.0752 219.458 39.2058 219.643 39.4409C219.849 40.0547 220.034 40.5379 220.424 41.0342C221 41.635 220.24 42.1313 219.068 42.1313C218.698 42.1313 218.122 42.1313 217.547 42.0007C217.732 42.2488 217.917 42.3663 218.122 42.6145C218.307 42.8495 218.698 42.9801 218.883 43.2152C217.156 43.7115 215.43 44.0772 213.683 44.3123C211.771 44.5604 209.654 44.3123 207.537 44.6779C206.961 44.8085 206.386 44.5604 205.605 44.4429C204.454 45.0436 203.118 45.2918 201.576 45.1742C199.459 45.0436 197.918 45.9056 195.985 46.1406C194.649 46.3888 193.889 47.3552 194.464 48.2172C194.649 48.7004 195.225 49.0661 195.985 49.1836C197.342 49.5493 197.157 49.7974 196.951 50.7769C196.766 51.4952 196.191 52.109 195.225 52.5922C194.649 52.9579 194.259 53.4542 193.889 53.9374C191.957 53.3236 190.025 53.9374 187.908 53.3236C185.996 52.7228 183.488 52.8404 181.762 53.6893L183.879 54.1855C182.522 54.6688 182.522 54.6688 181.371 54.0549C181.186 53.9374 180.796 53.8199 180.426 53.6893C179.83 53.5717 179.069 53.4542 178.494 53.3236C177.528 53.206 176.377 53.206 175.226 53.4542C174.65 54.3031 174.444 55.0344 172.718 55.152L169.45 53.9374L168.299 54.9169H170.416V55.2695C168.874 56.0009 166.942 55.4001 165.031 55.6352C163.304 55.8833 161.557 55.8833 159.83 55.6352C159.07 55.2695 158.864 55.2695 157.528 55.6352L160.611 55.2695ZM66.3493 23.4948L68.0964 23.3772C67.3154 22.881 66.5549 22.6459 66.3493 23.4948L65.1983 22.881C65.1983 23.6123 65.4038 23.8605 65.5888 23.8605C65.7738 23.8605 66.1643 23.6123 66.3493 23.4948ZM101.353 12.5375C100.778 12.7726 100.017 12.1719 99.8323 12.7726C99.8323 12.9032 100.202 13.1383 100.202 13.2689L101.353 12.5375C101.353 13.504 101.353 13.504 102.895 13.3864L101.353 12.5375ZM47.8915 52.3572C48.8576 53.0885 48.8576 53.0885 50.1936 52.9579C49.4331 52.7228 49.0426 52.3572 48.2821 52.109C48.0765 52.2266 48.0765 52.3572 47.8915 52.3572L45.5895 51.9915C46.5555 51.8609 46.9255 52.9579 47.8915 52.3572ZM71.7346 27.2691C72.1251 26.7859 71.7346 26.5377 70.974 26.6553C70.5835 26.6553 70.3985 27.021 70.2135 27.1516L71.3646 27.2691H71.7346L71.5496 28.0004L71.7346 28.118L72.3101 27.3866L73.0911 28.0004L73.4817 27.6348C73.2761 27.1516 72.7006 27.021 71.7346 27.2691ZM174.259 16.5469C174.65 15.8286 174.075 15.5805 173.108 15.3323C172.533 16.1943 173.869 16.0637 174.259 16.5469L176.377 17.0432C177.343 17.2783 177.343 16.9126 177.137 16.4294L174.259 16.5469ZM183.118 29.5807L181.577 29.0975L181.186 29.215L181.947 30.0639L183.118 29.5807L184.845 29.3456C183.488 28.9799 183.488 28.9799 183.118 29.5807ZM182.728 23.4948L186.181 23.1291C183.694 22.7634 183.694 22.7634 182.728 23.4948C182.337 23.3772 182.337 22.6459 181.371 23.1291C181.371 23.1291 181.577 23.4948 181.762 23.7429L182.728 23.4948ZM76.5443 66.6055L76.9348 65.9917L77.5103 65.8741C77.3253 65.3779 76.9348 65.1428 75.9688 64.6465C76.1743 65.1428 76.1743 65.3779 76.3593 65.626L75.0027 65.3779L74.4272 66.3574C75.2082 66.4749 75.9688 65.626 76.5443 66.6055C75.9688 66.723 75.2082 66.723 75.7838 67.3369C76.3593 67.9376 76.9348 68.1858 77.9009 67.5719C76.9348 67.4544 75.9688 67.3369 76.5443 66.6055ZM71.5496 64.8947L70.3985 66.1092C71.5496 66.723 71.7346 65.5085 72.7006 65.7435L72.1251 64.8947L73.2761 64.4114C72.7006 64.2808 72.1251 64.1633 71.5496 64.2808C71.5496 64.2808 71.5496 64.6465 71.5496 64.8947ZM129.636 34.5696C129.636 35.3009 129.451 35.6666 128.3 35.5491C126.943 35.4315 125.402 35.5491 124.066 35.7972C122.134 36.2804 120.017 36.5286 117.715 36.7636C116.749 36.7636 115.597 36.8942 114.631 37.0118C114.056 37.0118 113.295 37.1293 113.09 37.2599C112.72 37.9782 111.754 37.8607 110.973 37.9782L109.637 38.1088C109.822 38.3439 110.212 38.4745 110.603 38.4745C111.178 38.4745 111.939 38.2263 112.329 38.3439C113.871 38.9577 115.207 38.4745 116.564 38.3439C117.324 38.3439 118.105 38.4745 118.866 38.7096C119.441 37.9782 120.983 38.1088 122.319 38.1088C123.285 38.1088 124.251 37.9782 125.217 37.8607C126.183 37.7431 127.334 37.2599 128.094 37.495C129.821 37.9782 130.993 36.6461 132.719 37.2599C132.904 37.3775 133.87 36.8942 134.446 36.6461C134.631 36.7636 135.021 36.7636 135.206 36.8942C135.412 37.0118 135.597 37.0118 135.802 37.1293C137.323 36.1629 139.831 36.2804 140.797 34.8177C138.495 34.5696 136.172 33.9688 133.87 34.9353C133.685 33.9688 132.719 33.7207 131.363 33.8382C130.993 33.8382 130.602 33.6031 130.212 33.6031C129.246 33.4856 128.3 33.2375 127.128 33.1199C127.519 34.0864 127.519 34.0864 129.636 34.5696ZM76.5443 11.1924L76.1743 11.323L77.1198 12.1719L74.6327 12.6551L75.0027 13.0207C77.6953 12.6551 80.2029 12.2894 82.7106 12.0543C85.1976 11.8062 87.7053 11.8062 90.0073 11.6886L89.8224 11.323C90.0073 11.1924 90.2129 11.1924 90.3979 11.1924C93.8716 10.8267 97.1397 10.3435 100.593 10.0953C101.168 10.0953 101.744 10.461 102.319 10.7091V9.1289C101.353 9.24644 100.408 9.24644 99.4418 9.1289C97.5097 8.76322 94.8171 9.49458 93.8716 7.54865C93.481 8.03187 93.0905 8.63262 93.481 8.76322C94.0565 8.9983 94.8171 9.24644 95.7831 9.36397C94.6321 9.97779 93.0905 9.86025 92.33 9.1289L92.1244 8.9983C91.3639 9.36397 90.7884 9.86025 90.0073 9.97779C88.2808 10.3435 86.5542 10.461 84.8277 10.7091C83.8616 10.0953 84.2521 8.9983 82.135 9.1289C82.505 9.72965 82.7106 10.3435 83.1011 11.0748L79.2369 11.8062L76.5443 11.1924ZM138.68 33.8382C139.646 34.2039 140.797 34.452 141.948 34.5696C142.524 34.5696 143.099 34.2039 143.675 33.9688L144.456 34.7002C143.675 33.4856 143.49 33.355 142.133 33.7207C141.373 33.9688 140.982 33.355 140.222 33.6031L139.831 32.8718C139.44 32.9893 139.255 32.9893 139.071 33.1199C139.071 33.355 139.07 33.4856 138.68 33.8382ZM57.326 25.4407C57.9015 27.1516 57.9015 27.1516 62.1357 27.3866L57.326 25.4407ZM198.308 26.4202C198.103 25.1926 196.376 25.9239 195.41 25.1926L195.985 27.2691L198.308 26.4202ZM60.9641 67.4544L62.7112 65.2603C61.3546 65.5085 60.3886 64.4114 59.2375 65.3779C60.3886 65.7435 60.5941 66.4749 60.9641 67.4544ZM180.22 16.9126C181.001 17.4089 182.152 17.1607 183.118 16.9126C184.064 16.6775 184.064 16.1943 183.303 15.8286C183.118 15.698 182.913 15.698 182.522 15.698L180.22 16.9126ZM66.7399 53.0885V53.4542L69.823 53.8199V53.206L72.3101 53.5717V53.206C70.3985 52.7228 68.4664 52.7228 66.7399 53.0885ZM125.607 39.5715C127.128 40.0547 129.061 40.0547 130.602 39.5715C128.876 38.9577 127.128 39.4409 125.607 39.5715ZM97.3247 6.6867C97.7152 6.93483 98.2907 7.18297 98.6607 7.41805C98.8663 7.54865 99.2568 7.41805 99.6268 7.41805C100.017 7.54865 100.408 7.66619 100.778 7.66619C101.744 7.78373 101.168 7.90127 100.983 8.1494C101.949 8.39754 102.134 8.03187 102.525 7.66619C100.983 6.8173 99.4418 6.81729 97.3247 6.6867ZM59.2375 53.5717L64.0472 54.0549C62.7112 52.7228 61.1696 52.5922 59.2375 53.5717ZM189.449 16.1943C190.415 16.9126 191.957 17.1607 193.293 16.9126C192.347 16.4294 191.566 15.4629 189.449 16.1943ZM170.416 42.6145L169.635 43.2152L169.84 43.4634L172.327 42.8495L169.84 41.635C169.84 41.7656 169.84 41.8831 169.84 41.8831L169.635 42.2488L170.416 42.6145ZM55.9694 42.9801C54.6334 42.0007 54.6334 42.0007 53.6673 42.2488L53.4618 43.4634L55.9694 42.9801ZM56.9354 70.2492L56.3599 70.0141L54.2428 70.3798C54.8184 70.9806 55.2089 71.3462 56.1544 71.1112C56.5449 70.9806 56.5449 70.6149 56.9354 70.2492ZM145.216 40.7861C145.216 41.3999 145.401 41.5174 146.182 41.5174C146.573 41.5174 146.943 41.8831 147.333 42.1313C147.333 41.0342 147.333 41.0342 145.216 40.7861ZM189.84 27.8829C189.84 27.7523 190.025 27.6348 190.025 27.5172C189.264 27.1516 188.504 26.7859 187.723 26.5377C187.538 26.5377 187.147 26.7859 186.572 26.9034L189.84 27.8829ZM81.5595 47.8515L82.135 47.969C82.32 47.969 82.7106 47.969 82.8956 48.0866C83.4711 48.3347 83.8616 48.4522 83.8616 48.0866C83.8616 47.6034 83.8616 47.2377 83.8616 46.7545C82.8956 46.9895 82.8956 48.0866 81.5595 47.8515ZM68.0964 29.3456V28.8493C67.7059 28.9799 66.9248 28.9799 66.7399 29.215C65.9793 29.8288 65.7738 28.8493 65.1983 29.0975L64.8283 29.6982C66.1643 30.312 67.1304 29.6982 68.0964 29.3456ZM170.991 21.3007C171.752 21.7839 172.327 21.7839 174.65 21.4183C173.293 21.0526 173.108 21.0526 170.991 21.3007ZM58.0865 21.4183C56.9354 20.935 55.5789 20.935 54.4278 21.4183L55.7844 21.9145C56.3599 21.1832 57.326 21.6664 58.0865 21.4183ZM52.8862 33.7207L56.1544 33.6031C54.0578 32.6236 54.0578 32.6236 52.8862 33.7207ZM103.676 8.9983L107.52 9.97779C106.944 9.24644 105.793 8.63262 104.436 8.51508C104.436 8.51508 104.067 8.76322 103.676 8.9983ZM99.2568 25.6888L96.7492 24.84L95.7831 25.5582C96.7492 25.5582 97.5097 25.3232 97.9002 26.0545L99.2568 25.6888ZM47.7066 25.6888C46.9255 25.5582 46.5555 25.9239 46.7405 26.2896C46.9255 26.6553 47.7066 26.7859 48.0765 27.021L48.2821 26.9034L47.7066 25.6888ZM25.9601 62.2174C25.9601 63.0663 27.1111 63.0663 27.8922 63.0663C28.6527 63.0663 29.2282 62.8312 29.0432 62.3349L25.9601 62.2174ZM199.644 24.2261L200.22 25.5582L201.761 24.2261C201.391 24.1086 201.391 23.978 201.391 23.978L199.644 24.2261ZM181.001 28.118L183.488 28.6143C182.913 28.118 182.522 27.7523 181.762 27.1516L181.001 28.118ZM63.0812 66.2398C63.8623 66.4749 64.6228 66.723 64.8283 66.6055C65.5888 66.3574 65.4038 65.8741 65.0133 65.3779L63.0812 66.2398ZM193.108 47.3552C191.566 47.7209 191.566 46.5063 190.415 46.2712C190.415 46.6239 190.415 46.872 190.6 46.9895C191.196 47.3552 191.957 48.0866 193.108 47.3552ZM208.503 28.9799L207.927 30.312L209.839 29.4632V29.0975L208.503 28.9799ZM185.42 8.88076C184.269 7.78373 183.879 7.78373 182.728 8.51508L185.42 8.88076ZM105.012 29.4632C105.978 30.4296 106.944 30.312 107.91 29.6982L105.012 29.4632ZM83.8616 25.1926C84.2521 24.5918 85.7937 24.5918 84.6221 23.7429L83.2861 24.3437L83.8616 25.1926ZM162.914 41.5174L162.729 41.1518L159.83 41.7656C161.557 42.6145 162.153 41.635 162.914 41.5174ZM62.8962 21.6664C61.7452 20.2037 61.7452 20.2037 60.7791 21.0526L62.8962 21.6664ZM90.9734 63.3144L92.9055 64.529C93.0905 63.1969 93.0905 63.1969 90.9734 63.3144ZM64.6228 28.0004L67.5209 28.6143L65.4038 27.021L64.6228 28.0004ZM96.7492 64.7771L97.1397 65.0122L98.2907 64.4114L97.5097 63.6801L96.7492 64.7771ZM52.5163 49.3142C53.2768 49.3142 53.8523 49.4317 54.2428 48.9485C52.8862 48.5828 52.8862 48.5828 52.5163 49.3142ZM166.182 40.3029C165.997 40.6685 165.791 40.9036 165.421 41.2693C165.216 41.3999 164.846 41.3999 164.065 41.635C166.367 41.7656 166.367 41.7656 166.182 40.3029ZM34.2435 74.2717C33.2774 74.3892 32.3114 74.2717 32.1264 75.3687C33.0924 74.8855 34.2435 75.2512 34.2435 74.2717ZM91.5489 30.1945C92.9055 30.4296 92.7 29.4632 93.8716 29.3456C92.33 29.0975 92.33 29.0975 91.5489 30.1945ZM55.0033 30.4296C56.5449 30.5602 56.5449 29.6982 56.9354 29.0975L55.0033 30.4296ZM67.3154 14.601V14.3659L65.0133 13.7521L65.1983 14.8491L67.3154 14.601ZM94.6321 21.6664L92.515 20.5694L92.33 21.6664H94.6321ZM177.137 20.935L179.254 21.5489C179.645 20.7 178.494 20.5694 177.918 20.2037L177.137 20.935ZM179.46 5.22399L179.83 5.10645C179.46 4.25755 181.762 5.22399 181.186 4.12696L179.069 4.37509L179.46 5.22399ZM182.337 21.0526L182.913 20.0861C182.152 20.2037 181.371 19.7205 180.796 20.4518L182.337 21.0526ZM181.577 2.54671L181.371 2.79485L182.152 4.00942L183.303 3.64374L181.577 2.54671ZM210.23 21.7839L210.62 21.5489L209.264 20.7L208.688 21.7839H210.23ZM174.075 53.3236C174.075 52.109 174.075 52.109 172.327 52.5922L174.075 53.3236ZM41.7458 52.4747L39.0532 51.7433C39.8137 52.9579 39.8137 52.9579 41.7458 52.4747ZM186.962 16.1943L187.332 15.8286L184.845 14.601L184.454 14.8491C185.42 15.3323 185.811 16.0637 186.962 16.1943ZM194.074 49.7974L195.225 50.8944L194.834 50.5288L196.581 49.915L194.074 49.7974ZM164.065 25.4407C162.729 26.2896 162.729 26.2896 164.25 26.6553L164.065 25.4407ZM177.733 27.1516C177.137 26.6553 176.562 26.1721 175.411 26.4202C175.226 26.5377 175.02 26.6553 175.02 26.9034C175.02 27.021 175.411 27.1516 175.616 27.2691C176.192 26.5377 176.767 27.5172 177.733 27.1516ZM73.2761 68.9171C74.0572 69.8835 74.8177 69.8835 75.7838 69.2828L73.2761 68.9171ZM33.2774 32.8718L34.4285 32.0229L32.4964 31.5266L33.2774 32.8718ZM170.025 11.0748C170.231 11.6886 170.231 11.9237 170.416 12.1719L172.533 11.558L170.025 11.0748ZM43.2668 30.9259C42.5063 31.5266 42.6913 32.0229 44.0479 32.258C43.8629 31.7748 44.4384 31.2915 43.2668 30.9259ZM154.075 40.7861C154.445 42.0007 154.651 42.1313 155.987 41.7656L154.075 40.7861ZM40.2042 74.5198C39.8137 75.2512 39.8137 75.2512 40.7798 75.7344C41.7458 75.2512 40.9647 74.8855 40.2042 74.5198ZM181.577 14.9667L184.064 14.7316L181.371 13.8696L181.577 14.9667ZM198.493 20.0861C198.308 21.0526 199.85 20.935 200.035 21.4183C200.61 20.3343 199.274 20.4518 198.493 20.0861ZM148.299 41.8831C149.06 42.3663 149.635 42.2488 150.211 41.8831C150.211 41.7656 150.211 41.635 150.026 41.5174C149.265 41.0342 149.06 41.5174 148.299 41.8831ZM31.7359 41.8831C32.7019 42.1313 33.2774 42.3663 33.853 41.7656C34.0379 41.635 33.668 41.3999 33.4624 41.0342L31.7359 41.8831ZM170.416 17.0432L170.806 17.2783C171.176 17.1607 171.957 17.5264 172.142 16.9126C172.142 16.7951 171.752 16.5469 171.567 16.4294L170.416 17.0432ZM103.47 22.0321L103.861 20.5694C102.525 20.935 102.319 21.3007 103.47 22.0321ZM61.3546 28.8493L60.9641 29.215L63.0812 29.8288C62.8962 29.5807 62.5057 29.3456 62.1357 29.215C61.9301 29.215 61.5396 29.0975 61.3546 28.8493ZM193.108 21.5489C191.381 21.9145 191.381 21.9145 191.957 22.6459C192.532 22.1496 192.923 21.7839 193.108 21.5489ZM35.3945 72.0776C36.9361 72.0776 36.9361 72.0776 36.9361 71.2287C36.155 71.3462 35.3945 71.4768 35.3945 72.0776ZM194.259 12.5375C194.259 11.558 193.889 11.323 192.717 11.323L194.259 12.5375ZM58.477 48.8179C58.477 49.5493 58.662 49.7974 59.6281 49.5493C60.0186 49.4317 60.2036 49.3142 60.5941 49.1836L58.477 48.8179ZM82.8956 68.3033C82.505 67.9376 81.9295 67.7025 81.354 68.0552C81.169 68.1858 81.169 68.4208 81.354 68.5514C81.9295 68.7865 82.505 68.7865 82.8956 68.3033ZM79.4424 47.969C80.2029 48.7004 80.2029 48.7004 81.7445 48.3347L79.4424 47.969ZM54.0578 68.4208L56.5449 68.0552L56.3599 67.8201C55.7844 67.9376 54.8184 67.2063 54.0578 68.4208ZM48.2821 46.3888C47.316 46.3888 46.7405 46.3888 46.7405 47.1201C47.316 46.9895 48.2821 47.2377 48.2821 46.3888ZM79.0519 25.3232C80.018 26.2896 80.0179 26.2896 81.5595 26.0545L79.0519 25.3232ZM191.772 26.7859L192.347 25.6888L190.415 26.1721L191.772 26.7859ZM67.7059 65.8741C67.5209 66.3574 66.7399 66.9712 68.2814 66.9712L67.7059 65.8741ZM74.8177 47.3552L75.2082 47.2377L74.6327 46.2712L73.4817 46.6239L74.8177 47.3552ZM29.0432 45.9056L28.6527 46.2712L30.1943 46.872L30.3998 46.6239L29.0432 45.9056ZM67.8909 48.5828C67.8909 49.0661 67.7059 49.5493 68.857 49.7974L67.8909 48.5828ZM95.3926 27.3866C96.3586 27.8829 96.3586 27.8829 97.3247 27.021L95.3926 27.3866ZM13.8536 63.9152C13.6481 64.1633 13.2781 64.2808 13.2781 64.4114C13.2781 64.529 13.4631 64.6465 13.6481 64.7771C13.8536 64.6465 14.2236 64.529 14.4291 64.4114C14.6141 64.2808 14.0386 64.1633 13.8536 63.9152ZM18.2728 63.5625C18.4578 64.529 18.4578 64.529 19.9993 64.529L18.2728 63.5625ZM58.662 63.5625C57.1204 64.1633 57.1204 64.1633 57.9015 64.7771C58.0865 64.4114 58.2715 63.9152 58.662 63.5625ZM53.0918 69.4003C52.1257 69.2828 50.9747 69.0346 51.5502 70.0141L53.0918 69.4003ZM35.5795 62.7006L35.3945 63.0663C36.155 63.6801 36.5456 63.3144 37.5116 62.8312L35.5795 62.7006ZM44.4384 72.9265L46.7405 72.4433C45.5895 71.9601 44.8084 71.9601 44.4384 72.9265ZM49.8237 41.635V40.9036L47.8915 41.7656L49.8237 41.635ZM80.4085 22.1496L80.7785 21.9145L79.0519 21.0526L78.6614 21.3007L80.4085 22.1496ZM176.377 6.8173H176.767V5.35459L175.986 5.47213L176.377 6.8173ZM68.4664 12.0543L69.4325 13.1383L70.008 12.0543H68.4664ZM176.192 9.86025C177.343 9.97779 177.343 9.97779 177.918 9.61211C176.952 9.49457 176.952 9.49458 176.192 9.86025ZM171.176 10.5916C173.293 11.1924 173.293 11.1924 173.869 10.7091L171.176 10.5916ZM92.9055 13.1383L93.481 12.0543L91.9395 12.1719L92.9055 13.1383ZM42.1158 52.8404C41.9308 52.9579 41.9308 52.9579 41.9308 52.9579V53.0885C42.6913 52.8404 42.8969 53.9374 43.8629 53.206L42.1158 52.8404ZM55.0033 16.4294H54.4278L53.8523 17.1607H55.2089L55.0033 16.4294ZM45.5895 55.7658C44.4384 55.4001 44.4384 55.4001 43.6574 56.1315L45.5895 55.7658ZM75.5988 22.6459L76.7498 21.5489C75.9688 21.7839 74.6327 21.5489 75.5988 22.6459ZM202.337 28.9799V29.215L204.084 29.4632V29.215L202.337 28.9799ZM54.4278 51.4952C53.6673 50.6463 53.6673 50.6463 52.8862 51.4952H54.4278ZM60.3886 30.0639C59.813 29.3456 59.8131 28.7318 58.477 29.0975L60.3886 30.0639ZM104.436 30.9259L103.1 29.9464C102.71 30.7953 102.895 31.1609 104.436 30.9259ZM123.1 33.7207C122.709 33.6031 122.915 32.6236 121.558 33.1199L123.1 33.7207ZM69.6175 63.3144C70.974 63.7976 71.159 63.7976 71.3646 62.9487L69.6175 63.3144ZM79.6274 50.0456C78.2914 49.915 78.2914 49.915 78.6614 50.7769L79.6274 50.0456ZM77.5103 64.6465L77.9009 64.529L77.5103 63.7976L76.9348 64.0458L77.5103 64.6465ZM192.347 38.7096C193.293 38.592 193.293 38.2263 193.108 37.8607C193.108 37.8607 192.923 37.8607 192.532 37.7431L192.347 38.7096ZM141.558 39.0752L143.49 38.9577C142.914 38.4745 142.339 38.3439 141.558 39.0752ZM137.138 40.0547L134.836 40.4204C135.597 40.4204 136.563 41.2693 137.138 40.0547ZM66.7399 40.6685V40.9036L69.4325 41.2693V40.9036L66.7399 40.6685ZM39.2382 42.0007L39.6287 41.635L37.8816 40.9036C37.5116 42.0007 38.4777 41.8831 39.2382 42.0007ZM88.8563 47.7209L90.9734 47.4858C90.0073 47.2377 89.4318 46.6239 88.8563 47.7209ZM88.2808 47.2377V46.872C87.7053 46.9895 86.9448 46.7545 85.9787 47.3552L88.2808 47.2377ZM53.0918 45.6574L53.2768 45.2918C52.7013 45.2918 52.3107 44.5604 51.3447 45.1742L53.0918 45.6574ZM110.397 8.76322C110.027 8.63262 109.822 8.39754 109.637 8.39754C109.452 8.39754 109.246 8.51508 109.061 8.63262C109.246 8.76322 109.452 8.9983 109.637 9.1289C109.822 9.24644 110.027 8.88076 110.397 8.76322ZM164.64 46.7545C163.88 46.3888 163.304 46.3888 163.098 47.2377L164.64 46.7545ZM75.9688 54.1855V54.4206L77.5103 54.1855V53.8199L75.9688 54.1855ZM88.6713 8.88076V8.63262H87.1297V8.88076H88.6713ZM120.222 9.49457L120.407 9.24644L118.866 8.88076L118.681 9.24644L120.222 9.49457ZM81.169 9.61211L80.7785 9.36397L79.8124 10.0953L80.2029 10.3435L81.169 9.61211ZM183.303 11.323C183.488 10.9573 184.845 10.9573 184.269 9.97779C183.879 10.5916 183.488 10.9573 183.303 11.323ZM74.2422 12.6551H73.6667L73.2761 13.504L74.2422 13.6346V12.6551ZM83.2861 14.601L83.6766 14.3659L82.135 13.7521L81.9295 14.0002L83.2861 14.601ZM41.5403 71.3462V71.7119H43.2668V71.4768L41.5403 71.3462ZM57.9015 52.109L55.9694 52.4747C56.5449 52.5922 57.1204 53.0885 57.9015 52.109ZM180.035 17.4089C181.001 18.1402 181.001 18.1402 181.762 17.7745L180.035 17.4089ZM156.953 42.0007V42.3663C157.528 42.1313 158.289 42.9801 159.07 42.2488L156.953 42.0007ZM139.646 19.7205C139.255 19.4723 139.07 19.3548 138.865 19.3548C138.68 19.3548 138.495 19.4723 138.104 19.6029C138.289 19.7205 138.495 19.9686 138.68 19.9686C138.865 19.9686 139.07 19.838 139.646 19.7205ZM98.8663 19.7205L96.9342 19.4723C97.7152 19.9686 97.9002 20.4518 98.8663 19.7205ZM65.5888 20.5694L65.9793 20.3343C65.5888 20.2037 65.4038 20.0861 65.0133 19.9686C65.0133 19.9686 64.8283 20.0862 64.6228 20.2037L65.5888 20.5694ZM70.974 47.8515L70.7891 47.7209L69.4325 48.0866L70.3985 48.5828L70.974 47.8515ZM111.363 21.5489V21.1832L110.027 21.3007V21.5489H111.363ZM91.5489 22.2802L91.3639 21.9145L90.2129 22.2802L90.3979 22.5153L91.5489 22.2802ZM79.6274 57.5942L79.4424 57.2285L77.9009 57.346V57.7117L79.6274 57.5942ZM155.021 40.5379L155.596 40.4204L155.021 39.6891L154.445 39.8066C154.651 40.0547 154.836 40.3029 155.021 40.5379ZM37.8816 40.3029L38.4777 40.4204C38.6627 40.3029 38.8476 40.1723 38.8476 39.9372C38.6627 39.6891 38.6627 39.4409 38.2721 39.2058L37.8816 40.3029ZM192.532 25.3232V25.5582L194.074 25.3232V25.075L192.532 25.3232ZM176.192 49.3142V48.9485C175.986 48.9485 175.801 48.8179 175.616 48.8179C175.02 48.8179 174.65 49.1836 175.02 49.3142C175.411 49.4317 175.801 49.3142 176.192 49.3142ZM64.0472 25.5582C63.2867 26.2896 63.6567 26.5377 64.6228 26.7859L64.0472 25.5582ZM194.649 27.021L192.923 26.6553C193.293 27.2691 193.683 27.6348 194.649 27.021ZM81.9295 64.4114V64.1633L80.4085 64.2808V64.529L81.9295 64.4114ZM44.0479 49.7974C43.6574 49.6799 43.2668 49.5493 43.0818 49.5493C42.8969 49.6799 42.5063 49.7974 42.3213 49.915C42.5063 50.0456 42.6913 50.1631 42.8969 50.1631C43.0818 50.1631 43.6574 50.0456 44.0479 49.7974ZM69.4325 64.4114L69.6175 64.2808L68.4664 63.5625C68.2814 63.7976 68.4664 64.0458 68.672 64.2808C68.8569 64.2808 69.0419 64.4114 69.4325 64.4114ZM105.793 36.8942C104.436 36.2804 104.067 36.8942 103.676 37.1293L105.793 36.8942ZM40.7798 63.9152V63.5625H39.4232V63.7976L40.7798 63.9152ZM18.4578 61.0028L16.7312 61.3685C17.8822 61.7342 18.4578 61.7342 18.4578 61.0028ZM158.289 49.7974C159.645 50.2806 159.645 50.2806 160.036 49.6799L158.289 49.7974ZM152.904 34.7002L153.109 35.1834C153.479 35.0659 153.87 34.9353 154.26 34.8177C154.26 34.7002 154.26 34.7002 154.075 34.5696C153.685 34.5696 153.294 34.7002 152.904 34.7002ZM100.017 30.312H99.6268L99.2568 31.2915H99.6268L100.017 30.312ZM160.036 30.9259C159.46 31.1609 158.679 31.5266 159.83 32.0229C160.036 31.5266 160.036 31.2915 160.036 30.9259ZM146.367 34.0864V33.7207C146.182 33.7207 145.977 33.6031 145.792 33.6031C145.607 33.6031 145.401 33.6031 145.031 33.6031V33.8382L146.367 34.0864ZM156.172 33.4856H155.802V34.3345H156.172V33.4856ZM48.0765 31.0434V31.2915L49.4331 31.1609V31.0434H48.0765ZM98.6607 62.5831L98.8663 62.9487C99.2568 62.8312 99.6268 62.7006 100.017 62.5831C100.017 62.4655 100.017 62.4655 99.8323 62.3349L98.6607 62.5831ZM96.3586 63.0663C96.1736 63.1969 96.1736 63.3144 96.1736 63.4319C96.1736 63.5625 96.3586 63.6801 96.5642 63.6801L97.1397 63.3144L96.3586 63.0663ZM63.0812 33.8382L62.7112 34.0864C62.8962 34.2039 63.2867 34.3345 63.6567 34.452C63.6567 34.452 63.8623 34.3345 64.0472 34.3345L63.0812 33.8382ZM86.9448 50.7769L87.3147 50.5288L86.3692 50.0456C86.1637 50.1631 85.9787 50.2806 85.9787 50.2806C86.3692 50.5288 86.7392 50.6463 86.9448 50.7769ZM59.2375 35.0658L59.0525 35.4315L60.9641 35.6666V35.4315L59.2375 35.0658ZM112.144 29.6982L112.329 29.9464L114.056 29.5807V29.3456L112.144 29.6982ZM178.494 29.3456V29.0975H177.528V29.3456H178.494ZM171.176 51.4952C170.231 50.7769 169.84 50.8944 169.45 51.6258L171.176 51.4952ZM99.2568 28.8493V29.0975C99.4418 29.0975 99.6268 29.215 99.8323 29.215C100.408 29.3456 100.778 29.0975 100.408 28.8493C100.202 28.9799 99.6268 28.8493 99.2568 28.8493ZM195.615 28.8493L195.41 28.6143L194.464 29.0975L194.649 29.215L195.615 28.8493ZM87.1297 63.9152L86.7392 64.1633L87.5203 64.7771L87.8903 64.6465L87.1297 63.9152ZM53.4618 27.7523V27.5172L52.8862 27.3866C52.3107 27.3866 51.9408 27.7523 52.3107 27.7523C52.5163 27.8829 52.8862 27.7523 53.4618 27.7523ZM173.684 38.2263L173.499 38.592L174.65 38.7096V38.4745L173.684 38.2263ZM171.382 27.7523C172.327 27.7523 172.327 27.7523 172.142 27.2691L171.382 27.7523ZM167.538 26.9034H167.148L167.333 27.5172H167.538V26.9034ZM168.484 26.2896V26.5377H169.635C169.635 26.4202 169.635 26.2896 169.635 26.2896H168.484ZM65.9793 26.2896C66.9248 26.5377 67.5209 26.9034 67.5209 26.1721L65.9793 26.2896ZM52.3107 26.2896V26.6553H53.4618C53.4618 26.5377 53.4618 26.4202 53.4618 26.2896C52.8862 26.2896 52.5163 26.1721 52.3107 26.2896ZM180.796 26.7859L181.186 26.5377L180.426 25.9239L180.035 26.0545L180.796 26.7859ZM75.5988 25.8064L74.2422 26.1721C74.8177 26.1721 75.5988 27.021 75.5988 25.8064ZM10.1949 25.8064V25.5582C10.0099 25.5582 9.8044 25.5582 9.8044 25.6888C9.8044 25.8064 9.8044 25.9239 10.0099 26.0545L10.1949 25.8064ZM48.0765 57.5942L47.7066 57.7117L48.6521 58.5606L48.8576 58.3255L48.0765 57.5942ZM52.8862 57.7117L53.4618 57.346L52.8862 56.9804C52.7013 57.0979 52.5163 57.2285 52.5163 57.2285C52.5163 57.2285 52.7013 57.5942 52.8862 57.7117ZM190.415 52.109C190.991 51.8609 191.957 51.7433 191.196 51.012L190.415 52.109ZM99.8323 23.0116L100.202 22.881C100.017 22.6459 99.8323 22.5153 99.6268 22.2802C99.6268 22.2802 99.2568 22.3978 99.0512 22.3978L99.8323 23.0116ZM42.6913 41.0342H43.0818V40.5379H42.5063L42.6913 41.0342ZM159.83 41.5174C159.83 41.0342 159.83 40.9036 159.83 40.7861C159.83 40.3029 159.46 40.3029 159.07 40.6685C158.864 40.6685 159.255 41.0342 159.83 41.5174ZM83.1011 21.4183C83.8616 21.0526 83.8616 21.0526 83.1011 20.5694V21.4183ZM189.84 21.1832C189.84 20.5694 189.449 20.2037 188.504 20.4518L189.84 21.1832ZM103.1 19.9686L100.983 20.0861C101.559 20.4518 102.134 20.5694 103.1 19.9686ZM145.607 55.5177L145.401 55.8833L146.573 56.249L146.758 55.8833L145.607 55.5177ZM17.8822 55.5177V55.8833L19.2388 56.0009V55.7658L17.8822 55.5177ZM40.5742 47.1201V47.3552L41.7458 47.4858C41.7458 47.3552 41.7458 47.2377 41.7458 47.1201C41.3553 47.1201 40.9647 47.1201 40.5742 47.1201ZM199.644 17.5264L199.274 17.1607C198.884 17.2783 198.493 17.4089 198.308 17.6439C198.308 17.6439 198.493 17.7745 198.493 17.8921L199.644 17.5264ZM50.1936 42.0007C50.0086 42.2488 49.6181 42.3663 49.6181 42.4839C49.6181 42.6145 49.8237 42.732 50.0086 42.732C50.1936 42.732 50.5842 42.6145 50.7692 42.4839L50.1936 42.0007ZM51.5502 65.5085C51.3447 65.7435 51.1597 65.8741 51.3447 65.8741C51.5502 65.9917 51.7352 66.1092 51.9408 66.2398L52.5163 65.8741L51.5502 65.5085ZM160.981 14.7316L161.372 14.601L160.796 14.0002H160.611L160.981 14.7316ZM72.5156 14.0002C72.3101 13.8696 72.1251 13.6346 71.9401 13.7521C71.7346 13.8696 71.3646 14.0002 71.159 14.1178L71.5496 14.3659C71.9401 14.2353 72.1251 14.1178 72.5156 14.0002ZM164.455 13.504L164.065 13.6346L164.455 14.2353L164.846 14.1178L164.455 13.504ZM22.692 54.3031L23.0825 54.1855L22.692 53.3236L22.3014 53.4542L22.692 54.3031ZM58.0865 68.5514C59.0525 68.5514 59.6281 68.9171 60.0186 68.1857L58.0865 68.5514ZM68.0964 44.9261V45.0436L69.0419 45.1742V44.8085L68.0964 44.9261ZM159.645 53.8199L160.036 53.9374L160.406 53.3236L159.83 53.206L159.645 53.8199ZM168.114 44.9261L167.908 45.2918L169.45 45.6574L169.635 45.4093L168.114 44.9261ZM164.455 45.6574V45.4093H162.914V45.6574H164.455ZM122.709 6.56916C122.524 6.45162 122.319 6.45162 122.134 6.32102C121.949 6.32102 121.949 6.32102 121.743 6.45162C121.558 6.56916 121.949 6.6867 122.134 6.6867C122.319 6.6867 122.319 6.56916 122.709 6.56916ZM185.42 5.22399V5.58966L187.147 5.22399V4.98891L185.42 5.22399ZM85.1976 54.3031L85.5882 54.0549L84.6221 53.5717L84.2521 53.8199L85.1976 54.3031Z" fill="#ACE1F5"/>
</g>
</svg>
