<svg width="61" height="59" viewBox="0 0 61 59" fill="none" xmlns="http://www.w3.org/2000/svg">
<mask id="mask0_56_94" style="mask-type:luminance" maskUnits="userSpaceOnUse" x="0" y="0" width="61" height="59">
<path d="M0 0H61V58.3547H0V0Z" fill="white"/>
</mask>
<g mask="url(#mask0_56_94)">
<path d="M39.6739 7.9973C42.1758 7.67464 44.3919 7.28285 46.6079 7.09847C55.5196 6.26878 61.1907 12.7911 60.1899 21.618C59.8563 24.5911 57.6165 27.4258 57.5926 30.3528C57.5688 33.0492 59.8087 35.6996 60.2137 38.4883C61.5005 47.0157 54.5188 55.9578 46.3458 56.4649C41.1512 56.7875 36.886 54.575 33.0259 51.0489C30.8813 52.5469 28.9036 54.1602 26.7114 55.4278C21.6598 58.3778 17.4661 57.3637 14.1301 52.6621C11.2469 48.6289 10.2462 44.1117 10.6274 39.1797C5.79031 36.4141 3.0739 32.1274 1.07234 27.3797C-1.28665 21.6871 0.595771 17.9996 6.81492 16.2942C9.48367 15.5797 12.2954 15.3032 15.2501 14.7731C15.2501 12.7219 15.2977 10.786 15.2501 8.85003C15.1309 2.23558 18.0141 -0.391759 24.9481 0.11527C29.5946 0.460974 33.4786 2.51214 39.6739 8.02035V7.9973ZM13.6298 32.0813C16.5606 30.975 18.3954 29.984 20.3731 29.6153C24.3048 28.8778 26.0204 30.7676 25.1864 34.5934C24.4239 38.1887 22.0649 40.5856 17.9665 42.1067C18.9434 44.4805 19.7774 46.4856 21.0641 49.5508C24.0903 46.67 26.6161 44.8032 28.4509 42.4293C31.8106 38.1196 34.5032 38.1196 37.2434 42.8903C39.1258 46.186 43.4387 48.2832 46.6317 47.4766C49.9676 46.6239 51.7071 43.8813 51.6833 39.3641C51.6833 38.4883 51.4212 37.6356 51.2544 36.6676C46.3219 36.5293 45.0352 33.2797 43.8676 29.477C45.1782 28.7164 46.4173 28.2094 47.3466 27.4028C48.8477 26.0891 50.468 24.7524 51.4688 23.093C52.6126 21.2262 53.1368 18.9446 51.4688 16.9856C49.8008 15.0496 47.4657 14.9805 45.2497 15.718C42.8192 16.5016 40.5555 17.7231 37.7438 18.9446C36.743 17.5848 35.1466 16.2942 34.7415 14.7039C33.3356 9.19574 28.6653 7.74378 24.0426 6.22269C22.2079 5.62347 20.4684 6.26878 20.2063 8.25082C19.9204 10.3711 19.7536 12.7219 20.4208 14.6809C20.8258 15.9024 22.8751 16.5707 24.1856 17.4926C24.3286 17.6078 24.5192 17.6539 24.686 17.7461C26.6161 18.9446 27.5692 21.6871 26.6399 23.8766C25.5438 26.4578 23.5423 25.8125 21.4454 25.2133C19.3008 24.591 17.0848 24.0149 14.845 23.8766C12.7958 23.7383 10.6751 24.1992 7.38679 24.4989C10.0079 27.7024 11.795 29.8918 13.6059 32.0813H13.6298Z" fill="#EE8794"/>
</g>
</svg>
