<svg width="77" height="67" viewBox="0 0 77 67" fill="none" xmlns="http://www.w3.org/2000/svg">
<mask id="mask0_75_81" style="mask-type:luminance" maskUnits="userSpaceOnUse" x="0" y="0" width="77" height="67">
<path d="M0 0H77V66.0387H0V0Z" fill="white"/>
</mask>
<g mask="url(#mask0_75_81)">
<path d="M26.6191 41.9732C25.0484 42.5146 23.5612 43.0803 22.0239 43.5652C17.178 45.0763 12.2903 46.1673 7.16027 45.2784C5.75662 45.0602 4.39475 44.5915 3.15821 43.8884C0.785374 42.4742 3.01003e-06 40.5105 0.67676 37.8599C1.21148 35.7669 2.68197 34.3689 4.30285 33.1082C8.27149 30.0212 12.8751 28.1788 17.6458 26.7161C18.7571 26.3767 19.8683 26.0777 21.063 25.7383C20.3445 24.8655 19.6594 24.0655 19.0077 23.2412C16.9941 20.7199 15.3482 17.9319 14.12 14.9662C13.3179 12.9863 12.7665 10.9337 12.7832 8.78412C12.825 6.58606 13.4683 4.59003 15.0474 2.95765C15.8495 2.12529 16.9273 1.85053 18.0552 1.70508C20.52 1.38183 22.9429 1.45456 25.3241 2.25459C27.3878 2.94148 29.2343 4.12133 30.7215 5.68098C31.2061 6.16584 31.44 6.89314 31.816 7.54771L32.0248 7.45882C32.1084 8.03258 32.1919 8.56593 32.9439 8.65482C33.1862 8.68715 33.5622 9.96396 33.4953 10.166L34.523 11.0387C35.2917 10.0286 36.0102 8.98615 36.8457 8.04874C39.4107 5.17995 42.6608 3.2324 46.2201 1.83437C52.5281 -0.6142 58.7025 -0.129333 64.668 2.98189C65.6288 3.48292 66.481 4.18598 67.2998 4.88903C68.2606 5.7133 68.5113 6.82041 68.2773 8.03258C67.9682 9.65688 67.233 11.1842 66.1217 12.4449C63.7573 15.1116 61.1589 17.5521 58.0842 19.4431C55.6696 20.9219 53.2132 22.3038 50.7652 23.7261C50.6649 23.8069 50.5563 23.8958 50.4561 23.9766C51.4837 24.1625 52.4028 24.3322 53.3469 24.4857C58.1845 25.2372 62.7547 26.7969 67.116 28.9303C68.8873 29.7869 70.6836 30.6112 72.3964 31.5809C73.424 32.1547 74.3264 32.9466 75.2037 33.7305C76.1896 34.6356 76.6909 35.8477 76.8413 37.1407C77 38.2963 76.365 39.1691 75.4877 39.9125C75.1535 40.1954 74.9112 40.5832 74.6355 40.9307C74.5186 41.1166 74.3932 41.3025 74.2596 41.4883C72.2794 43.4682 69.681 44.7289 66.8737 45.0763C61.1756 45.836 55.5693 45.5693 50.0634 43.8561C49.0858 43.549 48.1501 43.1288 47.0723 42.7086C47.1558 43.0157 47.2059 43.25 47.2811 43.4682C47.9746 45.8036 48.5595 48.1552 48.7516 50.6038C48.9689 53.7554 48.2002 56.6081 46.454 59.2829C45.5349 60.7052 44.641 62.1355 43.3626 63.3073C42.0258 64.5518 40.3715 65.2064 38.6253 65.5619C36.6201 65.9821 34.899 65.3114 33.5455 63.7598C32.075 62.0709 31.0306 60.1233 30.1617 58.0869C28.1063 53.3352 27.062 48.3492 26.7361 43.2177C26.7361 42.8298 26.6693 42.4257 26.6191 41.9732ZM15.014 39.7428L15.0641 39.5731C15.5069 39.5569 15.9498 39.5085 16.3759 39.4196C18.9074 38.7973 21.439 38.1832 23.9539 37.4882C24.9648 37.2215 25.9006 36.7528 26.8614 36.3487C27.0285 36.2679 27.1706 36.1144 27.2207 35.9285C27.58 34.5386 27.9058 33.1405 28.2317 31.7344C28.2651 31.6132 28.2651 31.3789 28.215 31.3627C27.58 31.0637 27.0954 30.4091 26.2766 30.5788C24.7058 30.9102 23.1351 31.2334 21.5727 31.6132C17.8631 32.5425 14.3623 33.8679 11.6051 36.6558C10.8699 37.3912 10.9033 38.5306 11.8642 38.9185C12.825 39.3064 13.9696 39.4761 15.014 39.7428ZM65.0607 37.173C64.927 37.0518 64.7849 36.9387 64.6513 36.8175C63.0471 35.7992 61.4346 34.7891 59.8304 33.779C56.1876 31.4839 52.2858 29.7707 47.9412 29.2535C46.7297 29.1 45.5182 28.9788 44.2984 28.8495C44.2817 28.9303 44.265 29.0111 44.2483 29.1C50.4895 33.3426 57.0565 36.7851 65.0607 37.173ZM42.7778 18.7562C42.9532 18.7077 43.1203 18.6431 43.2958 18.5703C44.6577 17.738 46.0279 16.9299 47.3814 16.0571C50.6984 13.9075 53.7897 11.4913 56.5469 8.67098C57.0064 8.21844 57.3824 7.69317 57.6748 7.12749C58.0508 6.30322 57.6748 5.86684 56.7975 6.14968C55.5526 6.55374 54.2576 6.97395 53.138 7.64468C49.2613 9.9478 46.2869 13.1641 43.8723 16.8975C43.513 17.4309 43.1872 18.037 42.7778 18.7562ZM23.3022 13.9237L25.0484 16.3561C25.1152 16.1056 25.1487 15.9197 25.1988 15.7339H25.3742C25.3742 16.0571 25.4077 16.3561 25.4578 16.6794C25.5581 16.9945 25.7001 17.2935 25.8839 17.5844C26.2097 18.1339 26.6359 18.5542 27.3711 18.538C27.5298 18.538 27.6802 18.8612 27.8306 19.0229C27.9559 19.1603 28.0896 19.2976 28.215 19.4269C27.2374 15.3864 25.5413 11.7256 22.6338 8.6225V11.2893L22.3831 11.5236C22.4166 12.4933 23.4192 13.0671 23.3022 13.9237ZM29.9862 46.5552L29.6854 46.5713C29.6604 46.741 29.6604 46.9107 29.6854 47.0804C29.7523 47.4118 29.8525 47.735 29.9027 48.0663C30.0364 48.9068 30.1115 49.7634 30.2954 50.5876C30.4875 51.3715 30.8468 52.1311 31.064 52.915C31.7826 55.5171 32.71 58.0546 34.0802 60.4223C34.3141 60.8426 34.7737 61.1254 35.1329 61.4648C34.0802 58.992 32.8436 56.6485 31.8661 54.208C30.8802 51.7432 30.2619 49.1735 29.9862 46.5552ZM39.9204 53.2221C40.1292 51.8079 38.5585 45.1329 37.8734 44.4218C38.2995 47.4603 38.7423 50.4341 39.9204 53.2221ZM41.842 50.4988C42.0091 48.7532 39.8869 41.5853 38.901 40.4135L41.842 50.4988ZM47.5318 47.6461C47.5485 46.0865 46.4373 42.5308 45.7856 42.1106C46.3872 44.0015 46.9553 45.8198 47.5318 47.6461ZM16.1921 6.10119C15.0808 6.7396 14.7383 7.94368 15.3315 8.84069C15.6239 7.92752 15.8996 7.07093 16.1921 6.10119ZM41.6833 39.7751L41.4493 39.8398L43.0201 44.9794L43.2206 44.9147L41.6833 39.7751ZM45.5684 45.1491C45.4096 43.8399 45.1757 42.547 44.641 41.3509L44.4237 41.4237C44.7997 42.6601 45.1924 43.9046 45.5684 45.1491ZM20.7539 6.92547C20.3612 7.47498 20.3612 8.45279 20.7539 9.03463V6.92547ZM39.8535 55.6383L40.0958 55.5171C39.8201 54.9676 39.5277 54.41 39.2603 53.8605L39.1183 53.9251C39.3606 54.4989 39.6196 55.0646 39.8535 55.6383Z" fill="#EE8794"/>
</g>
</svg>
