<svg width="78" height="81" viewBox="0 0 78 81" fill="none" xmlns="http://www.w3.org/2000/svg">
<path d="M44.5412 32.9702L77.7102 41.267C76.9902 48.7149 74.2737 52.5681 66.4936 50.7694C59.1438 49.0783 51.8548 47.1445 45.1851 45.4761C34.0339 55.3265 39.1474 71.8985 26.7614 80.5925C18.0085 75.6761 18.5572 69.2172 21.8197 61.963C24.5188 55.8945 26.9669 49.7632 29.8383 42.8534C22.9466 40.2451 17.4556 38.282 12.0699 36.0504C7.48295 34.1292 1.08572 34.1136 0.578385 25.3268C11.466 27.4975 21.6723 29.4977 32.7838 31.6875C37.5458 20.5706 41.9834 10.2938 46.3765 0.0427282C56.1045 1.51796 53.9288 7.01721 52.3742 11.8611C50.1546 18.6023 47.4416 25.1832 44.5412 32.9702Z" fill="#F8CDD7"/>
</svg>
