<svg width="167" height="238" viewBox="0 0 167 238" fill="none" xmlns="http://www.w3.org/2000/svg">
<mask id="mask0_13_3" style="mask-type:luminance" maskUnits="userSpaceOnUse" x="15" y="0" width="129" height="152">
<path d="M15.5099 18.6821L119.812 0.0961921L143.398 132.458L39.0958 151.044L15.5099 18.6821Z" fill="white"/>
</mask>
<g mask="url(#mask0_13_3)">
<path d="M128.885 61.4892C128.885 61.4892 125.716 60.9265 124.153 60.6598C117.125 59.3476 109.403 56.3307 103.121 52.9015C97.5751 49.8845 91.2805 45.2912 87.7558 39.8928C83.4386 33.3153 76.2898 19.3487 74.9604 11.8884C74.759 10.7579 73.8314 9.91261 72.7243 9.79838C72.4821 9.53181 72.1281 9.28339 71.7548 9.15522C70.4231 8.65447 68.9529 9.343 68.4542 10.6761C67.8013 12.465 67.8259 14.5597 68.2153 16.7451C68.672 19.3079 69.7398 22.0327 70.2206 24.085C72.9989 35.0977 66.1249 46.8588 59.8799 55.3962C53.5422 64.0688 43.8866 72.8636 34.3554 77.7885C32.5075 78.7408 30.6022 79.8183 29.0576 81.1821C28.853 81.3353 28.4405 81.6425 28.4405 81.6425C27.5434 82.2696 27.1226 83.3941 27.4238 84.4289C27.7317 85.5014 28.6374 86.2338 29.7395 86.31C29.7395 86.31 34.0601 86.5897 36.2042 86.6341C44.8556 86.804 53.0006 88.9296 59.6543 94.6642C69.4808 103.177 74.5935 113.345 80.317 124.766C82.3177 128.802 83.5696 133.206 84.9128 137.476L85.3897 140.152C85.6312 141.507 86.9236 142.443 88.2855 142.239C89.6474 142.036 90.6259 140.773 90.4596 139.402C90.4596 139.402 90.2305 137.461 89.9158 136.351C89.4927 133.977 89.1522 131.628 88.8868 129.265C87.4399 116.576 90.977 104.166 97.3565 93.1157C103.465 82.5017 113.223 71.6658 125.142 67.9489C126.577 67.4985 129.381 66.4556 129.381 66.4556C130.469 66.0281 131.136 64.9764 131.041 63.788C130.878 62.6508 130.005 61.6789 128.885 61.4892ZM92.8578 90.5351C87.6069 99.6353 84.2044 109.533 83.504 119.766C77.9808 108.814 72.5511 99.0527 62.9604 90.7707C55.8881 84.6434 47.3096 82.0517 38.1779 81.5799C47.8665 76.2376 57.5687 67.2769 64.0308 58.4282C69.9359 50.3778 75.9488 39.664 75.9668 29.0876C78.4977 34.3515 81.2952 39.3733 83.4375 42.6853C87.4294 48.7385 94.3847 53.991 100.658 57.3828C106.162 60.3684 112.705 63.0892 119.052 64.7192C107.967 69.8431 98.787 80.2256 92.8578 90.5351Z" fill="#FFE27C"/>
</g>
<mask id="mask1_13_3" style="mask-type:luminance" maskUnits="userSpaceOnUse" x="99" y="91" width="68" height="89">
<path d="M99.3182 94.8824L161.179 91.0206L166.433 175.181L104.572 179.043L99.3182 94.8824Z" fill="white"/>
</mask>
<g mask="url(#mask1_13_3)">
<path d="M162.53 129.918C162.53 129.918 160.723 129.334 159.831 129.052C155.826 127.716 151.528 125.266 148.093 122.667C145.06 120.378 141.692 117.053 139.987 113.431C137.896 109.016 134.631 99.7909 134.335 95.0474C134.29 94.3286 133.805 93.7337 133.168 93.5807C133.044 93.3968 132.854 93.2159 132.645 93.1085C131.902 92.6983 131.003 93.0183 130.628 93.8115C130.134 94.8771 130.014 96.1832 130.101 97.5728C130.202 99.2024 130.649 100.978 130.798 102.291C131.709 109.354 126.959 116.169 122.78 121.023C118.539 125.955 112.359 130.717 106.5 133.079C105.364 133.535 104.187 134.065 103.201 134.8C103.073 134.881 102.813 135.041 102.813 135.041C102.251 135.366 101.934 136.035 102.043 136.701C102.154 137.392 102.634 137.915 103.27 138.044C103.27 138.044 105.765 138.537 107.01 138.724C112.031 139.469 116.633 141.395 120.137 145.457C125.309 151.484 127.632 158.193 130.231 165.728C131.137 168.389 131.583 171.223 132.092 173.982L132.198 175.683C132.252 176.545 132.944 177.223 133.749 177.197C134.554 177.171 135.204 176.457 135.195 175.591C135.195 175.591 135.186 174.366 135.074 173.651C134.98 172.141 134.932 170.654 134.928 169.163C134.898 161.155 137.75 153.689 142.167 147.28C146.4 141.123 152.769 135.097 159.94 133.664C160.803 133.49 162.501 133.047 162.501 133.047C163.161 132.862 163.617 132.256 163.638 131.509C163.615 130.789 163.17 130.119 162.53 129.918ZM139.716 145.341C136.079 150.619 133.467 156.531 132.405 162.85C129.892 155.623 127.358 149.143 122.309 143.277C118.587 138.939 113.763 136.691 108.481 135.722C114.459 133.112 120.676 128.25 125.001 123.218C128.95 118.642 133.133 112.415 133.82 105.831C134.956 109.296 136.262 112.629 137.296 114.85C139.231 118.914 142.941 122.699 146.373 125.275C149.384 127.541 153.016 129.718 156.604 131.203C149.828 133.574 143.824 139.36 139.716 145.341Z" fill="#D6EEF3"/>
</g>
<mask id="mask2_13_3" style="mask-type:luminance" maskUnits="userSpaceOnUse" x="0" y="117" width="98" height="121">
<path d="M0.535034 140.059L62.4267 117.936L97.4355 215.877L35.5439 238L0.535034 140.059Z" fill="white"/>
</mask>
<g mask="url(#mask2_13_3)">
<path d="M77.5055 163.509C77.5055 163.509 75.4515 163.331 74.4404 163.252C69.8752 162.81 64.6174 161.136 60.19 159.04C56.2826 157.197 51.6681 154.224 48.6493 150.429C44.9571 145.806 38.37 135.834 36.3968 130.314C36.0978 129.478 35.3918 128.913 34.687 128.913C34.4956 128.73 34.2376 128.571 33.9862 128.503C33.0824 128.229 32.2757 128.863 32.1712 129.906C32.0411 131.306 32.3787 132.883 32.9567 134.5C33.6346 136.396 34.7167 138.367 35.331 139.877C38.7503 147.962 36.2926 157.362 33.7293 164.284C31.1293 171.314 26.4883 178.695 21.3292 183.148C20.3285 184.01 19.3114 184.971 18.5624 186.119C18.459 186.25 18.2502 186.514 18.2502 186.514C17.7897 187.056 17.7015 187.937 18.0477 188.693C18.4039 189.478 19.0789 189.959 19.7748 189.931C19.7748 189.931 22.5 189.806 23.838 189.673C29.2349 189.128 34.6185 190.096 39.6315 193.902C47.0416 199.554 51.7803 206.822 57.0908 214.985C58.9539 217.872 60.4086 221.094 61.8996 224.209L62.6074 226.189C62.9658 227.192 63.9122 227.797 64.7264 227.537C65.5405 227.278 65.9536 226.25 65.6395 225.23C65.6395 225.23 65.1985 223.784 64.8324 222.972C64.2044 221.215 63.6317 219.471 63.1033 217.71C60.2526 208.258 60.5388 198.628 62.799 189.802C64.958 181.326 69.3481 172.399 76.1761 168.67C76.9975 168.219 78.5774 167.214 78.5774 167.214C79.1873 166.807 79.4399 165.963 79.1981 165.074C78.9214 164.23 78.2304 163.565 77.5055 163.509ZM59.6091 188.207C57.7495 195.475 57.1603 203.201 58.2999 210.969C53.1859 203.143 48.3132 196.207 41.0849 190.71C35.7515 186.641 30.0272 185.355 24.2855 185.709C29.4782 180.928 34.1226 173.419 36.7727 166.246C39.2 159.719 41.2843 151.175 39.668 143.201C42.0492 146.972 44.5586 150.54 46.3982 152.87C49.8078 157.122 54.9339 160.541 59.3503 162.609C63.2264 164.432 67.707 165.974 71.8981 166.709C65.8049 171.433 61.7036 179.974 59.6091 188.207Z" fill="#FFD3D9"/>
</g>
</svg>
