<svg width="364" height="204" viewBox="0 0 364 204" fill="none" xmlns="http://www.w3.org/2000/svg">
<mask id="mask0_75_58" style="mask-type:luminance" maskUnits="userSpaceOnUse" x="0" y="85" width="47" height="20">
<path d="M0 85H46.8125V104.747H0V85Z" fill="white"/>
</mask>
<g mask="url(#mask0_75_58)">
<path d="M2.08705 94.403C2.17482 94.1027 2.20408 93.8676 1.90175 93.7239C1.58967 93.5803 1.57016 93.3452 1.81397 92.9926C1.92125 92.8489 2.01878 92.6791 2.12606 92.5355C2.23334 92.4049 2.35037 92.2873 2.50641 92.1176C2.33086 91.6866 2.01878 91.3862 1.66769 91.1511C1.62868 91.125 1.56041 91.1642 1.53115 91.125C1.12154 90.7593 0.702178 90.4198 0.341332 89.9888C0.0194942 89.6231 0.0780111 89.2183 0.399846 88.8265C0.497374 88.7089 0.56564 88.5261 0.672919 88.3041C0.692426 88.4477 0.682674 88.5391 0.71193 88.6175C0.731436 88.6828 0.780198 88.7742 0.819209 88.7742C0.867971 88.7873 0.93624 88.722 0.955744 88.6697C1.16055 88.1343 1.16055 88.1343 1.45313 87.8731C1.37511 87.847 1.29709 87.8339 1.21907 87.7947C1.11179 87.7164 1.00451 87.625 0.89723 87.5335C0.994757 87.4552 1.09228 87.3115 1.19956 87.2985C2.14556 87.2723 3.09156 87.2593 4.03757 87.2593C4.72025 87.2593 5.40293 87.2985 6.08561 87.3507C6.2124 87.3507 6.34894 87.4552 6.46597 87.5597C6.70003 87.7817 6.72928 88.0037 6.36844 88.1865C6.47572 88.3171 6.56349 88.3955 6.69028 88.5391C6.7683 88.1735 6.81706 87.9123 6.88533 87.625C7.23642 87.625 7.68504 87.5988 8.12391 87.638C8.27995 87.6511 8.41649 87.86 8.56278 87.9776C8.56278 88.0298 8.57253 88.0821 8.57253 88.1343C8.72857 88.0037 8.87486 87.86 9.0309 87.7425C9.06991 87.7033 9.14793 87.6772 9.1967 87.7033C9.50878 87.86 9.82086 87.9253 10.1524 87.8992C10.3377 87.8861 10.5621 87.86 10.7181 87.9645C11.157 88.2779 11.6446 88.082 12.103 88.2126C12.7759 88.4216 13.4683 88.6044 14.151 88.8003C14.3851 88.8656 14.6289 88.9179 14.8532 88.9962C15.5359 89.2313 16.2088 89.4795 16.8915 89.7145C17.2816 89.8451 17.6815 89.9627 18.0716 90.1063C18.1886 90.1455 18.2861 90.2369 18.4032 90.2892C18.608 90.3675 18.8225 90.4459 19.0273 90.5112C19.1248 90.5504 19.2224 90.5504 19.3101 90.5896C19.9441 90.8899 20.5682 91.2034 21.1924 91.4907C21.5825 91.6605 21.9726 91.7649 22.3627 91.9347C23.1624 92.2743 23.9621 92.6269 24.7716 92.9665C25.7956 93.3974 26.8196 93.8023 27.8437 94.2463C28.3606 94.4553 28.8579 94.7295 29.3748 94.9385C29.7552 95.0952 30.155 95.1605 30.5256 95.3303C30.9743 95.5262 31.4034 95.8005 31.891 96.0747C31.9983 96.0616 32.2031 95.9833 32.3786 96.0486C33.0906 96.3098 33.783 96.6232 34.4949 96.8844C35.3532 97.1848 36.2504 97.3285 37.0794 97.7333C38.1229 98.2427 39.2445 98.2949 40.2685 98.8826C40.444 98.9871 40.6196 99.0785 40.7756 99.1568C40.7854 99.3266 40.7659 99.5878 40.8244 99.6139C40.9999 99.7315 41.2925 99.8751 41.3803 99.7707C41.7704 99.2874 42.0045 99.7184 42.2873 99.9535C42.4336 100.071 42.5896 100.162 42.7359 100.267C43.1358 100.541 43.5356 100.829 43.9355 101.09C44.2866 101.325 44.7157 101.377 44.9692 101.86C45.1058 102.108 45.2911 102.33 45.4081 102.592C45.4666 102.722 45.4666 102.983 45.4081 103.088C45.3496 103.192 45.1545 103.245 45.057 103.192C44.7644 103.049 44.6474 103.153 44.5791 103.558C44.5206 103.911 44.15 104.08 43.877 103.924C43.5551 103.741 43.282 103.858 42.9895 104.067C43.048 104.146 43.0577 104.185 43.0772 104.198C43.1845 104.263 43.3015 104.342 43.4088 104.407C43.3015 104.485 43.1943 104.616 43.0772 104.629C42.8432 104.668 42.5994 104.642 42.2775 104.642C42.6189 104.107 42.4238 103.754 42.1702 103.375C41.9654 103.702 41.7704 103.676 41.4973 103.48C41.195 103.271 40.8244 103.205 40.483 103.088C40.4343 103.075 40.3758 103.127 40.2685 103.166C40.6879 103.454 41.0682 103.414 41.2438 103.911C41.2535 103.95 41.4291 103.976 41.4778 103.924C41.7704 103.649 41.9167 104.028 42.1215 104.133C42.1215 104.133 42.102 104.381 42.0532 104.407C41.7801 104.603 41.4973 104.733 41.3413 104.446C40.9804 104.394 40.7269 104.329 40.4733 104.316C40.2782 104.302 40.0929 104.368 39.9076 104.342C38.6788 104.211 37.45 104.054 36.2212 103.911C35.7335 103.858 35.2556 103.819 34.768 103.767C33.8708 103.663 32.9833 103.571 32.0861 103.44C31.4521 103.349 30.8182 103.179 30.1843 103.049C29.7942 102.97 29.4041 102.879 29.014 102.801C28.2045 102.631 27.4048 102.487 26.6051 102.291C25.8444 102.108 25.0934 101.873 24.3327 101.664C23.7963 101.521 23.2599 101.403 22.7236 101.233C22.509 101.181 22.3042 101.051 22.0896 100.959C22.0409 100.946 21.9921 100.881 21.9629 100.894C21.3192 101.037 20.7438 100.672 20.1489 100.502C19.4369 100.293 18.725 100.11 18.013 99.8882C17.1743 99.627 16.3356 99.3527 15.4969 99.0654C15.3506 99.0132 15.2238 98.8565 15.0775 98.8303C14.8435 98.7781 14.5899 98.8434 14.3656 98.7781C14.0047 98.6736 13.6634 98.4777 13.3123 98.3602C12.8929 98.2296 12.4638 98.1382 12.0445 98.0337C11.5568 97.9162 11.0789 97.7725 10.5913 97.6811C9.63556 97.5113 8.67981 97.3546 7.72405 97.1979C7.55826 97.1587 7.40222 97.0673 7.23642 97.0281C7.01211 96.9758 6.77805 96.9497 6.54399 96.9105C6.2124 96.8452 5.88081 96.793 5.54922 96.7146C5.12986 96.6102 4.69099 96.5057 4.27163 96.362C3.95955 96.2575 3.64747 96.1139 3.34513 95.9702C3.32563 95.9702 3.31588 95.9572 3.30612 95.9572C2.81849 96.2314 2.41864 95.8266 1.97977 95.696C1.61892 95.5784 1.21906 95.6437 0.858219 95.5523C0.633909 95.487 0.419353 95.3042 0.224301 95.1213C0.0487526 94.9516 0.156032 94.7948 0.302322 94.6904C0.497374 94.5467 0.692426 94.39 0.887478 94.2463C0.945992 94.2071 1.02401 94.1941 1.09228 94.2071C1.41412 94.2594 1.74571 94.3377 2.08705 94.403ZM11.9762 96.5579C12.1225 96.6232 12.2493 96.7146 12.3858 96.7408C12.7857 96.8452 13.1855 96.9367 13.5756 97.0281C13.6731 97.0411 13.7707 97.0803 13.8584 97.0803C14.1608 97.0803 14.4826 96.9628 14.6874 97.4199C14.7167 97.4852 14.863 97.4982 14.9507 97.4982C15.1848 97.4852 15.3116 97.4329 15.1653 97.0281C15.019 96.6232 14.7849 96.5971 14.5411 96.5449C13.9365 96.4012 13.322 96.2837 12.7174 96.1531C12.6784 96.1531 12.6491 96.1139 12.6199 96.0878C12.1712 95.8005 12.1615 95.8005 11.9762 96.5579ZM15.3506 97.446C15.6432 97.6027 15.887 97.7594 16.1405 97.877C16.1796 97.9031 16.2966 97.7986 16.3161 97.7333C16.3844 97.4982 16.0918 96.9497 15.8577 96.8191C15.5651 96.6493 15.5651 96.9628 15.4969 97.1848C15.4676 97.2501 15.4286 97.3023 15.3506 97.446ZM11.5958 96.5057C11.6348 96.5187 11.6739 96.5318 11.7031 96.5449C11.7714 96.4012 11.8787 96.2445 11.8787 96.1008C11.8787 95.9963 11.7129 95.8396 11.6153 95.8266C11.3715 95.7874 11.1277 95.8135 10.7961 95.8135C10.9229 96.0355 11.0009 96.2445 11.1277 96.362C11.196 96.4143 11.352 96.2445 11.4886 96.1661C11.5178 96.2575 11.5568 96.3751 11.5958 96.5057ZM41.9069 102.579C41.8972 102.631 41.8874 102.696 41.8874 102.735C42.2093 102.84 42.5408 102.944 42.9114 103.062C42.7164 102.552 42.3263 102.383 41.9069 102.579ZM2.33086 94.6251C2.56493 94.6642 2.72097 94.6904 2.88676 94.7034C2.95503 94.7034 3.0233 94.6381 3.09156 94.5989C3.06231 94.4945 3.0428 94.2986 2.98429 94.2855C2.76973 94.2333 2.53567 94.2202 2.2821 94.181C2.3016 94.3769 2.32111 94.5336 2.33086 94.6251ZM39.7809 102.996C39.498 103.062 39.2835 103.114 39.0592 103.166C39.3517 103.702 39.537 103.676 39.7809 102.996ZM9.12843 89.1138C9.20645 89.0746 9.27472 89.0354 9.35274 88.9962C9.30397 88.8134 9.25521 88.6175 9.2162 88.4216C9.10892 88.4608 9.0114 88.513 8.90412 88.5522C8.98214 88.7481 9.06016 88.9309 9.12843 89.1268V89.1138ZM12.8637 94.3247C12.7076 93.7762 12.4931 93.6847 12.0152 94.0112C12.337 94.1288 12.5711 94.2071 12.8637 94.3247ZM15.7992 94.8863C15.6432 94.7687 15.5066 94.6512 15.3603 94.5598C15.3116 94.5336 15.2336 94.5598 15.175 94.5859C15.1555 94.5989 15.1458 94.7034 15.1555 94.7557C15.2336 95.0038 15.6334 95.0822 15.7992 94.8863ZM9.29422 93.0971C9.28447 93.1624 9.27472 93.2277 9.25521 93.293C9.42101 93.5411 9.57705 93.8023 9.92814 93.2799C9.66482 93.2146 9.47952 93.1493 9.29422 93.0971ZM16.7257 97.6419C16.6867 97.7333 16.6477 97.8117 16.6087 97.89C16.7257 97.9553 16.8427 98.0598 16.95 98.0468C17.028 98.0337 17.1353 97.877 17.1548 97.7594C17.1646 97.6941 17.0475 97.5244 16.9695 97.4982C16.9013 97.4852 16.8037 97.5897 16.7257 97.6419ZM10.172 95.5393C10.328 95.7613 10.4645 95.9702 10.5913 96.1661L10.7083 96.0094C10.5718 95.8266 10.4353 95.6437 10.2987 95.4609C10.2987 95.4609 10.2792 95.474 10.172 95.5393ZM14.073 94.7687C14.034 94.2202 13.8487 94.0374 13.5171 94.1418C13.7024 94.3377 13.8682 94.5336 14.073 94.7687ZM44.0818 103.284C43.7989 103.258 43.5551 103.232 43.2528 103.192C43.5649 103.649 43.8087 103.597 44.0818 103.284Z" fill="#FAE36A"/>
</g>
<mask id="mask1_75_58" style="mask-type:luminance" maskUnits="userSpaceOnUse" x="28" y="130" width="37" height="52">
<path d="M28.077 173.462L46.6007 130.471L64.7355 138.284L46.2118 181.276L28.077 173.462Z" fill="white"/>
</mask>
<g mask="url(#mask1_75_58)">
<path d="M37.5384 175.266C37.2973 175.067 37.093 174.947 36.8414 175.168C36.586 175.398 36.3624 175.322 36.135 174.959C36.0455 174.804 35.9282 174.647 35.8387 174.491C35.7612 174.341 35.6996 174.187 35.6054 173.977C35.1402 173.967 34.7408 174.135 34.386 174.365C34.3466 174.39 34.3555 174.468 34.308 174.48C33.8101 174.711 33.3323 174.962 32.7937 175.123C32.3305 175.274 31.9819 175.06 31.7494 174.609C31.68 174.473 31.5391 174.338 31.3777 174.152C31.5173 174.191 31.5974 174.236 31.681 174.24C31.7487 174.248 31.8519 174.239 31.8674 174.203C31.8986 174.164 31.8657 174.075 31.8254 174.037C31.4147 173.637 31.4147 173.637 31.2906 173.265C31.2358 173.326 31.1929 173.392 31.126 173.449C31.0116 173.516 30.8852 173.578 30.7588 173.641C30.7254 173.52 30.6321 173.374 30.6625 173.27C31.0129 172.391 31.3752 171.517 31.7496 170.648C32.0197 170.021 32.3258 169.41 32.6439 168.803C32.6941 168.687 32.8441 168.603 32.9863 168.537C33.2829 168.41 33.4983 168.471 33.5235 168.874C33.6859 168.828 33.7925 168.778 33.9746 168.718C33.6697 168.502 33.4491 168.354 33.2123 168.178C33.3512 167.855 33.5047 167.433 33.7144 167.045C33.7881 166.907 34.034 166.864 34.1999 166.777C34.2478 166.797 34.2997 166.809 34.3476 166.83C34.2895 166.635 34.2154 166.443 34.1692 166.254C34.1487 166.202 34.1555 166.12 34.1988 166.086C34.4662 165.861 34.6497 165.601 34.7569 165.286C34.8183 165.11 34.883 164.894 35.0407 164.792C35.5022 164.513 35.5153 163.988 35.8166 163.618C36.2748 163.083 36.7167 162.519 37.1667 161.97C37.3193 161.781 37.4638 161.578 37.6245 161.403C38.1105 160.869 38.6047 160.349 39.0907 159.815C39.365 159.508 39.6312 159.188 39.9175 158.886C39.9998 158.794 40.1223 158.741 40.2166 158.654C40.3696 158.497 40.5265 158.331 40.6675 158.169C40.7421 158.095 40.7807 158.005 40.8514 157.94C41.3781 157.477 41.9129 157.027 42.4238 156.568C42.7341 156.277 42.9844 155.96 43.2947 155.669C43.923 155.069 44.5632 154.474 45.1954 153.865C45.9964 153.095 46.7734 152.315 47.5864 151.55C47.9828 151.158 48.4315 150.81 48.828 150.418C49.1224 150.13 49.3406 149.789 49.6432 149.516C50.0006 149.181 50.4223 148.896 50.8671 148.556C50.8976 148.453 50.9066 148.234 51.0361 148.098C51.5577 147.548 52.1195 147.036 52.6411 146.485C53.2566 145.816 53.7435 145.049 54.4434 144.448C55.3241 143.691 55.8158 142.682 56.7608 141.974C56.9262 141.854 57.0796 141.729 57.2133 141.617C57.3731 141.675 57.6053 141.796 57.6524 141.753C57.8298 141.638 58.0775 141.426 58.0163 141.304C57.7269 140.755 58.2153 140.71 58.5431 140.544C58.7089 140.456 58.8546 140.349 59.0085 140.256C59.4186 139.997 59.8407 139.743 60.2388 139.479C60.5936 139.25 60.8114 138.877 61.3555 138.835C61.6374 138.808 61.9146 138.725 62.2008 138.721C62.3439 138.719 62.5838 138.823 62.6566 138.918C62.7294 139.013 62.7002 139.213 62.6136 139.282C62.3659 139.493 62.4155 139.642 62.7603 139.865C63.061 140.058 63.0703 140.466 62.8183 140.655C62.523 140.878 62.5229 141.175 62.5991 141.527C62.6942 141.504 62.734 141.51 62.7537 141.498C62.8561 141.425 62.9744 141.348 63.0768 141.276C63.1064 141.405 63.1838 141.556 63.1495 141.668C63.0929 141.899 62.9724 142.112 62.8451 142.408C62.4884 141.882 62.0874 141.922 61.6392 142.005C61.858 142.322 61.7569 142.491 61.4689 142.664C61.1574 142.859 60.9507 143.174 60.7077 143.441C60.6764 143.48 60.7013 143.555 60.6948 143.669C61.1246 143.397 61.2391 143.033 61.7643 143.068C61.8042 143.074 61.8976 142.923 61.869 142.858C61.7329 142.481 62.1386 142.496 62.3156 142.35C62.3156 142.35 62.5357 142.466 62.5404 142.521C62.6123 142.849 62.6203 143.16 62.2947 143.19C62.1039 143.501 61.9436 143.708 61.8313 143.936C61.7421 144.109 61.7288 144.306 61.6315 144.465C61.0253 145.542 60.3951 146.609 59.7769 147.68C59.536 148.108 59.3109 148.531 59.07 148.958C58.619 149.741 58.1838 150.52 57.7089 151.292C57.3741 151.838 56.9673 152.353 56.5965 152.883C56.3702 153.211 56.1319 153.533 55.9055 153.86C55.4293 154.536 54.9809 155.214 54.4846 155.871C54.0156 156.497 53.5026 157.094 53.0097 157.71C52.6655 158.145 52.3453 158.591 51.9771 159.017C51.8443 159.193 51.6433 159.33 51.4744 159.491C51.4431 159.53 51.3639 159.549 51.3643 159.581C51.2415 160.229 50.678 160.613 50.2867 161.092C49.8131 161.663 49.3634 162.245 48.8778 162.811C48.306 163.478 47.7223 164.139 47.1265 164.796C47.0207 164.91 46.8266 164.964 46.7447 165.088C46.6041 165.282 46.5637 165.541 46.415 165.721C46.1763 166.011 45.8613 166.247 45.6144 166.523C45.3285 166.857 45.0748 167.214 44.8129 167.558C44.512 167.96 44.191 168.342 43.9141 168.753C43.3799 169.564 42.8578 170.38 42.3357 171.195C42.2341 171.332 42.0884 171.439 41.9868 171.576C41.8501 171.761 41.7335 171.966 41.6049 172.165C41.4137 172.444 41.2345 172.728 41.0313 173.001C40.7694 173.345 40.4998 173.707 40.202 174.035C39.9825 174.28 39.7271 174.51 39.4755 174.731C39.4678 174.749 39.452 174.753 39.4481 174.762C39.507 175.318 38.977 175.525 38.6834 175.876C38.4326 176.161 38.3344 176.554 38.1076 176.85C37.9589 177.03 37.7061 177.154 37.461 177.261C37.2356 177.355 37.1341 177.195 37.0961 177.019C37.0413 176.783 36.9746 176.542 36.9198 176.306C36.907 176.237 36.9259 176.16 36.9649 176.102C37.1402 175.827 37.3434 175.554 37.5384 175.266ZM43.4306 167.037C43.5484 166.929 43.6825 166.848 43.7606 166.733C44.0147 166.407 44.2569 166.076 44.4952 165.754C44.5458 165.67 44.6204 165.596 44.6551 165.515C44.7748 165.237 44.7942 164.895 45.295 164.888C45.3665 164.887 45.4364 164.758 45.4712 164.677C45.5518 164.457 45.554 164.32 45.1243 164.294C44.6946 164.268 44.578 164.473 44.4335 164.676C44.0623 165.175 43.7113 165.692 43.352 166.196C43.3366 166.232 43.2891 166.243 43.2535 166.26C42.8121 166.558 42.8082 166.567 43.4306 167.037ZM45.5814 164.289C45.8411 164.083 46.0815 163.921 46.2898 163.735C46.3292 163.709 46.2796 163.56 46.2273 163.516C46.0384 163.361 45.4189 163.412 45.2064 163.576C44.9347 163.777 45.2225 163.901 45.3994 164.052C45.4478 164.104 45.4804 164.161 45.5814 164.289ZM43.2321 167.366C43.2595 167.335 43.2869 167.304 43.3105 167.283C43.2056 167.163 43.1041 167.003 42.9722 166.946C42.8762 166.904 42.6667 166.995 42.6161 167.079C42.4837 167.287 42.4112 167.522 42.28 167.826C42.534 167.798 42.7568 167.809 42.9149 167.739C42.9899 167.697 42.8957 167.486 42.8778 167.33C42.9733 167.339 43.0967 167.35 43.2321 167.366ZM60.8034 141.932C60.8475 141.961 60.9036 141.996 60.9396 142.012C61.1629 141.757 61.3901 141.494 61.6447 141.2C61.0997 141.178 60.7894 141.469 60.8034 141.932ZM37.8388 175.13C37.9674 174.931 38.0531 174.798 38.1307 174.651C38.1578 174.588 38.1248 174.499 38.1158 174.421C38.0083 174.407 37.8207 174.347 37.7855 174.396C37.6526 174.572 37.548 174.782 37.4117 174.999C37.5993 175.059 37.751 175.103 37.8388 175.13ZM60.3459 144.05C60.294 144.335 60.257 144.553 60.2163 144.779C60.8238 144.723 60.8731 144.542 60.3459 144.05ZM35.4672 166.707C35.462 166.62 35.4531 166.541 35.448 166.454C35.2608 166.427 35.0616 166.394 34.8662 166.352C34.8597 166.466 34.8691 166.576 34.8627 166.69C35.0734 166.696 35.2722 166.697 35.4792 166.712L35.4672 166.707ZM41.7308 165.338C41.1653 165.265 40.9964 165.425 41.1072 165.993C41.3425 165.744 41.5071 165.56 41.7308 165.338ZM43.4081 162.865C43.2384 162.961 43.0765 163.04 42.9346 163.138C42.8913 163.173 42.8844 163.255 42.8853 163.319C42.8895 163.342 42.9816 163.392 43.0335 163.404C43.2922 163.431 43.5224 163.094 43.4081 162.865ZM39.1909 168.131C39.247 168.165 39.3031 168.2 39.3554 168.244C39.6489 168.19 39.9505 168.15 39.6097 167.621C39.4455 167.837 39.3122 167.981 39.1909 168.131ZM46.3055 163.104C46.374 163.176 46.4305 163.243 46.487 163.31C46.5933 163.228 46.7356 163.162 46.766 163.058C46.7849 162.981 46.6834 162.821 46.5832 162.757C46.5271 162.722 46.3249 162.762 46.27 162.823C46.231 162.881 46.2883 163.012 46.3055 163.104ZM41.7811 168.291C42.0467 168.235 42.2927 168.193 42.5228 168.154L42.4251 167.984C42.2032 168.037 41.9813 168.09 41.7593 168.143C41.7593 168.143 41.7636 168.167 41.7811 168.291ZM42.6171 164.403C42.0979 164.222 41.8567 164.32 41.8214 164.666C42.0747 164.573 42.3202 164.498 42.6171 164.403ZM62.3116 140.213C62.1757 140.463 62.0553 140.676 61.8997 140.938C62.4429 140.833 62.4914 140.588 62.3116 140.213Z" fill="#FAE36A"/>
</g>
<mask id="mask2_75_58" style="mask-type:luminance" maskUnits="userSpaceOnUse" x="289" y="135" width="56" height="49">
<path d="M331.487 183.859L289.023 164.156L302.127 135.913L344.591 155.616L331.487 183.859Z" fill="white"/>
</mask>
<g mask="url(#mask2_75_58)">
<path d="M335.834 169.532C335.555 169.924 335.373 170.248 335.552 170.581C335.739 170.918 335.601 171.262 335.146 171.664C334.953 171.824 334.752 172.026 334.559 172.186C334.375 172.328 334.191 172.447 333.937 172.624C333.81 173.314 333.894 173.875 334.057 174.359C334.075 174.413 334.162 174.386 334.163 174.454C334.292 175.149 334.447 175.811 334.488 176.58C334.538 177.238 334.216 177.793 333.664 178.218C333.497 178.345 333.314 178.577 333.07 178.85C333.147 178.636 333.217 178.509 333.242 178.385C333.268 178.283 333.284 178.132 333.249 178.116C333.213 178.077 333.108 178.141 333.056 178.208C332.515 178.887 332.515 178.887 332.076 179.138C332.129 179.208 332.191 179.259 332.236 179.348C332.281 179.506 332.318 179.681 332.355 179.857C332.214 179.928 332.03 180.093 331.924 180.066C331.049 179.706 330.182 179.326 329.324 178.928C328.705 178.641 328.112 178.297 327.527 177.935C327.412 177.882 327.357 177.675 327.321 177.476C327.256 177.06 327.376 176.73 327.825 176.621C327.814 176.389 327.787 176.24 327.767 175.981C327.454 176.471 327.236 176.824 326.983 177.206C326.665 177.059 326.241 176.907 325.869 176.666C325.736 176.582 325.751 176.226 325.696 175.996C325.731 175.921 325.756 175.842 325.791 175.768C325.563 175.889 325.335 176.033 325.115 176.135C325.054 176.175 324.966 176.179 324.939 176.121C324.76 175.766 324.52 175.541 324.202 175.439C324.025 175.38 323.804 175.323 323.732 175.107C323.542 174.474 322.97 174.549 322.641 174.17C322.169 173.588 321.662 173.035 321.173 172.467C321.004 172.275 320.817 172.098 320.666 171.891C320.202 171.268 319.757 170.63 319.293 170.006C319.026 169.655 318.742 169.319 318.483 168.949C318.403 168.844 318.375 168.672 318.304 168.548C318.17 168.35 318.027 168.147 317.885 167.968C317.822 167.871 317.734 167.83 317.68 167.737C317.304 167.04 316.946 166.329 316.571 165.656C316.33 165.249 316.045 164.935 315.804 164.528C315.304 163.706 314.812 162.865 314.303 162.039C313.66 160.991 313 159.981 312.366 158.915C312.036 158.399 311.767 157.797 311.436 157.281C311.195 156.896 310.876 156.635 310.653 156.236C310.376 155.767 310.168 155.194 309.908 154.596C309.802 154.57 309.564 154.596 309.448 154.429C308.976 153.755 308.556 153.016 308.083 152.342C307.504 151.552 306.786 150.968 306.302 150.041C305.694 148.873 304.711 148.326 304.172 147.055C304.082 146.831 303.984 146.627 303.894 146.449C303.998 146.202 304.189 145.837 304.153 145.775C304.072 145.533 303.902 145.204 303.753 145.316C303.078 145.843 303.152 145.128 303.051 144.673C302.997 144.444 302.916 144.247 302.853 144.036C302.672 143.476 302.5 142.896 302.31 142.354C302.148 141.87 301.793 141.615 301.884 140.817C301.925 140.405 301.904 140.009 301.971 139.587C302.005 139.375 302.178 139.002 302.301 138.877C302.423 138.752 302.635 138.759 302.688 138.875C302.858 139.204 303.034 139.104 303.365 138.553C303.652 138.074 304.1 137.987 304.244 138.326C304.415 138.723 304.74 138.67 305.145 138.494C305.143 138.357 305.161 138.297 305.152 138.27C305.098 138.132 305.043 137.97 304.989 137.832C305.139 137.765 305.323 137.623 305.438 137.654C305.676 137.696 305.88 137.836 306.172 137.972C305.507 138.594 305.45 139.18 305.428 139.829C305.831 139.448 305.99 139.567 306.108 139.962C306.244 140.389 306.536 140.638 306.768 140.95C306.804 140.989 306.891 140.939 307.015 140.928C306.825 140.34 306.454 140.236 306.624 139.453C306.641 139.393 306.499 139.281 306.42 139.336C305.973 139.605 306.092 139.001 305.975 138.766C305.975 138.766 306.158 138.419 306.219 138.402C306.597 138.237 306.94 138.169 306.891 138.646C307.184 138.872 307.37 139.073 307.592 139.198C307.76 139.299 307.971 139.283 308.122 139.399C309.15 140.103 310.161 140.844 311.18 141.567C311.588 141.847 311.995 142.104 312.403 142.384C313.148 142.911 313.892 143.415 314.619 143.98C315.133 144.377 315.596 144.887 316.084 145.34C316.386 145.617 316.679 145.912 316.981 146.188C317.603 146.771 318.233 147.313 318.828 147.93C319.397 148.512 319.922 149.164 320.474 149.783C320.865 150.214 321.273 150.608 321.647 151.077C321.807 151.242 321.906 151.515 322.04 151.736C322.076 151.775 322.077 151.889 322.112 151.883C322.791 151.948 323.07 152.713 323.497 153.207C324.005 153.805 324.529 154.366 325.028 154.983C325.615 155.71 326.194 156.455 326.764 157.219C326.862 157.356 326.873 157.633 326.988 157.732C327.166 157.905 327.439 157.919 327.6 158.106C327.858 158.408 328.037 158.831 328.278 159.147C328.571 159.511 328.9 159.822 329.211 160.148C329.575 160.521 329.914 160.928 330.295 161.264C331.049 161.909 331.812 162.535 332.575 163.162C332.7 163.288 332.781 163.484 332.905 163.61C333.074 163.779 333.269 163.915 333.455 164.069C333.713 164.302 333.979 164.517 334.228 164.768C334.539 165.094 334.867 165.428 335.152 165.81C335.366 166.091 335.554 166.428 335.733 166.761C335.751 166.769 335.751 166.792 335.76 166.796C336.384 166.609 336.478 167.356 336.789 167.728C337.039 168.048 337.445 168.122 337.711 168.405C337.872 168.593 337.945 168.945 338.001 169.288C338.047 169.605 337.846 169.784 337.644 169.872C337.371 169.995 337.091 170.137 336.818 170.261C336.739 170.292 336.66 170.278 336.606 170.23C336.349 170.02 336.1 169.769 335.834 169.532ZM328.294 162.287C328.204 162.132 328.15 161.948 328.043 161.853C327.75 161.536 327.448 161.237 327.155 160.942C327.075 160.882 327.012 160.785 326.933 160.748C326.659 160.621 326.289 160.653 326.406 159.913C326.423 159.808 326.299 159.727 326.219 159.691C325.998 159.611 325.849 159.632 325.713 160.273C325.577 160.913 325.772 161.049 325.958 161.226C326.411 161.686 326.891 162.113 327.353 162.554C327.388 162.571 327.389 162.639 327.398 162.689C327.614 163.289 327.623 163.293 328.294 162.287ZM325.822 159.597C325.661 159.25 325.543 158.923 325.391 158.648C325.373 158.594 325.198 158.694 325.137 158.78C324.919 159.087 324.82 159.995 324.946 160.28C325.099 160.646 325.307 160.198 325.516 159.909C325.586 159.828 325.656 159.77 325.822 159.597ZM328.604 162.522C328.577 162.487 328.551 162.452 328.533 162.421C328.375 162.598 328.174 162.777 328.079 162.982C328.009 163.132 328.056 163.426 328.136 163.485C328.331 163.644 328.569 163.709 328.87 163.849C328.902 163.478 328.97 163.146 328.933 162.925C328.906 162.821 328.652 162.998 328.476 163.053C328.51 162.91 328.553 162.725 328.604 162.522ZM305.138 141.079C305.182 141.008 305.234 140.919 305.26 140.863C305.038 140.578 304.806 140.289 304.548 139.965C304.387 140.776 304.628 141.183 305.138 141.079ZM335.76 169.111C335.574 168.957 335.45 168.854 335.308 168.765C335.246 168.737 335.141 168.801 335.053 168.829C335.01 168.99 334.898 169.279 334.942 169.322C335.102 169.487 335.306 169.604 335.51 169.767C335.622 169.479 335.708 169.246 335.76 169.111ZM307.344 141.376C307.644 141.402 307.874 141.417 308.112 141.437C308.202 140.548 308.016 140.507 307.344 141.376ZM325.937 174.133C325.84 174.156 325.752 174.183 325.655 174.207C325.578 174.489 325.492 174.789 325.398 175.086C325.521 175.075 325.644 175.041 325.768 175.03C325.827 174.717 325.877 174.423 325.945 174.114L325.937 174.133ZM326.007 165.108C325.784 165.958 325.918 166.179 326.568 165.913C326.354 165.61 326.194 165.399 326.007 165.108ZM323.716 163.069C323.78 163.303 323.826 163.529 323.898 163.721C323.925 163.779 324.013 163.774 324.083 163.761C324.11 163.751 324.188 163.606 324.214 163.527C324.307 163.139 323.997 162.859 323.716 163.069ZM328.43 168.366C328.482 168.277 328.534 168.187 328.595 168.102C328.609 167.678 328.641 167.238 327.976 167.838C328.172 168.042 328.296 168.213 328.43 168.366ZM324.705 158.738C324.801 158.624 324.888 158.528 324.975 158.432C324.913 158.29 324.876 158.091 324.77 158.065C324.69 158.05 324.489 158.229 324.393 158.389C324.341 158.479 324.335 158.771 324.388 158.841C324.441 158.888 324.599 158.78 324.705 158.738ZM329.254 164.504C329.26 164.12 329.275 163.764 329.29 163.431L329.08 163.605C329.082 163.924 329.085 164.243 329.087 164.562C329.087 164.562 329.114 164.552 329.254 164.504ZM325.204 163.964C324.876 164.765 324.922 165.104 325.292 165.094C325.254 164.736 325.234 164.386 325.204 163.964ZM303.634 139.155C303.873 139.311 304.077 139.451 304.325 139.635C304.345 138.849 304.089 138.821 303.634 139.155Z" fill="#FAE36A"/>
</g>
<mask id="mask3_75_58" style="mask-type:luminance" maskUnits="userSpaceOnUse" x="229" y="147" width="43" height="45">
<path d="M260.354 191.951L229 157.189L240.297 147L271.651 181.761L260.354 191.951Z" fill="white"/>
</mask>
<g mask="url(#mask3_75_58)">
<path d="M264.335 185.549C264.105 185.639 263.951 185.739 264.071 186.037C264.198 186.343 264.076 186.479 263.711 186.48C263.557 186.474 263.395 186.489 263.241 186.484C263.094 186.472 262.948 186.445 262.747 186.417C262.618 186.77 262.655 187.157 262.756 187.539C262.767 187.581 262.835 187.611 262.832 187.653C262.897 188.146 262.984 188.633 262.979 189.123C262.985 189.551 262.715 189.716 262.275 189.68C262.142 189.668 261.992 189.711 261.793 189.746C261.862 189.658 261.921 189.618 261.946 189.556C261.971 189.507 261.99 189.424 261.964 189.395C261.939 189.352 261.856 189.335 261.813 189.348C261.369 189.472 261.369 189.472 261.024 189.389C261.061 189.461 261.106 189.525 261.136 189.604C261.163 189.724 261.183 189.851 261.202 189.977C261.092 189.945 260.944 189.947 260.865 189.874C260.217 189.185 259.576 188.489 258.942 187.787C258.485 187.28 258.05 186.753 257.622 186.219C257.538 186.125 257.506 185.97 257.487 185.829C257.458 185.54 257.565 185.404 257.911 185.578C257.914 185.431 257.9 185.325 257.897 185.157C257.636 185.287 257.454 185.386 257.244 185.484C257.009 185.223 256.693 184.903 256.422 184.557C256.325 184.435 256.353 184.225 256.322 184.056C256.352 184.029 256.375 183.995 256.405 183.968C256.226 183.919 256.046 183.885 255.874 183.83C255.825 183.821 255.758 183.777 255.741 183.727C255.621 183.414 255.449 183.149 255.212 182.916C255.081 182.785 254.916 182.632 254.871 182.462C254.756 181.975 254.318 181.714 254.085 181.306C253.754 180.698 253.395 180.09 253.05 179.482C252.93 179.274 252.797 179.066 252.692 178.859C252.369 178.231 252.06 177.603 251.737 176.975C251.551 176.618 251.35 176.26 251.171 175.897C251.115 175.79 251.102 175.67 251.054 175.556C250.961 175.364 250.862 175.164 250.763 174.978C250.72 174.885 250.654 174.813 250.618 174.728C250.365 174.102 250.127 173.477 249.873 172.865C249.709 172.488 249.507 172.144 249.343 171.767C249.002 170.998 248.668 170.222 248.32 169.446C247.881 168.463 247.426 167.493 246.995 166.504C246.768 166.012 246.592 165.501 246.365 165.01C246.2 164.646 245.97 164.316 245.818 163.953C245.63 163.519 245.5 163.059 245.33 162.555C245.251 162.482 245.068 162.37 244.988 162.206C244.661 161.543 244.376 160.867 244.049 160.204C243.646 159.411 243.127 158.671 242.804 157.846C242.396 156.809 241.675 155.949 241.325 154.885C241.267 154.701 241.202 154.523 241.142 154.367C241.233 154.272 241.396 154.152 241.371 154.095C241.321 153.904 241.207 153.613 241.089 153.601C240.551 153.561 240.641 153.165 240.586 152.834C240.555 152.664 240.503 152.501 240.465 152.339C240.354 151.9 240.25 151.455 240.132 151.023C240.031 150.641 239.774 150.296 239.88 149.858C239.931 149.629 239.934 149.377 240.005 149.155C240.04 149.044 240.19 148.909 240.289 148.899C240.388 148.888 240.548 149.006 240.584 149.106C240.697 149.397 240.836 149.43 241.113 149.272C241.354 149.133 241.699 149.321 241.792 149.604C241.903 149.938 242.153 150.08 242.469 150.189C242.475 150.105 242.491 150.078 242.485 150.057C242.45 149.943 242.417 149.816 242.382 149.703C242.499 149.742 242.646 149.754 242.731 149.834C242.911 149.988 243.059 150.183 243.275 150.421C242.74 150.444 242.669 150.771 242.622 151.155C242.946 151.138 243.061 151.297 243.132 151.601C243.215 151.933 243.426 152.242 243.587 152.556C243.613 152.599 243.682 152.615 243.776 152.675C243.659 152.215 243.382 151.953 243.549 151.567C243.564 151.539 243.462 151.395 243.399 151.386C243.046 151.31 243.165 151.006 243.088 150.8C243.088 150.8 243.243 150.687 243.29 150.709C243.585 150.811 243.849 150.954 243.79 151.218C244.001 151.513 244.134 151.735 244.296 151.93C244.419 152.081 244.581 152.185 244.69 152.336C245.438 153.316 246.172 154.31 246.913 155.296C247.209 155.685 247.507 156.06 247.804 156.449C248.345 157.17 248.887 157.876 249.413 158.609C249.785 159.127 250.113 159.686 250.463 160.224C250.679 160.554 250.888 160.891 251.105 161.221C251.55 161.909 252.003 162.577 252.427 163.272C252.832 163.932 253.2 164.611 253.59 165.283C253.867 165.756 254.159 166.215 254.421 166.701C254.535 166.887 254.597 167.106 254.689 167.313C254.714 167.356 254.709 167.426 254.736 167.441C255.25 167.844 255.426 168.46 255.727 168.99C256.084 169.626 256.457 170.249 256.807 170.893C257.219 171.65 257.624 172.414 258.021 173.186C258.089 173.321 258.084 173.496 258.167 173.618C258.294 173.819 258.502 173.974 258.614 174.174C258.796 174.496 258.913 174.85 259.081 175.172C259.287 175.55 259.522 175.916 259.743 176.282C260.003 176.704 260.24 177.133 260.515 177.543C261.058 178.34 261.608 179.131 262.159 179.921C262.247 180.064 262.3 180.227 262.388 180.371C262.508 180.564 262.65 180.752 262.785 180.946C262.969 181.226 263.162 181.499 263.339 181.785C263.56 182.151 263.794 182.531 263.993 182.916C264.142 183.202 264.269 183.508 264.389 183.806C264.402 183.821 264.401 183.835 264.408 183.842C264.891 184.062 264.928 184.568 265.147 184.962C265.321 185.29 265.626 185.553 265.816 185.869C265.929 186.069 265.968 186.322 265.994 186.562C266.014 186.78 265.853 186.781 265.695 186.726C265.482 186.655 265.262 186.591 265.049 186.521C264.987 186.498 264.928 186.446 264.889 186.389C264.704 186.123 264.527 185.836 264.335 185.549ZM258.945 177.094C258.884 176.951 258.851 176.81 258.775 176.695C258.567 176.344 258.351 176 258.142 175.664C258.084 175.584 258.042 175.492 257.983 175.427C257.78 175.202 257.498 175.024 257.622 174.636C257.64 174.58 257.549 174.465 257.49 174.4C257.326 174.233 257.211 174.166 257.078 174.483C256.944 174.801 257.086 174.988 257.219 175.196C257.542 175.719 257.886 176.236 258.217 176.752C258.243 176.781 258.24 176.823 258.245 176.858C258.381 177.34 258.387 177.347 258.945 177.094ZM257.193 174.13C257.086 173.832 257.013 173.57 256.91 173.321C256.899 173.278 256.761 173.245 256.71 173.265C256.53 173.335 256.412 173.836 256.494 174.077C256.593 174.382 256.772 174.22 256.945 174.156C257.002 174.144 257.058 174.146 257.193 174.13ZM259.169 177.403C259.151 177.367 259.132 177.332 259.12 177.303C258.992 177.327 258.831 177.328 258.748 177.402C258.689 177.456 258.71 177.66 258.768 177.739C258.909 177.94 259.087 178.108 259.309 178.354C259.351 178.145 259.418 177.98 259.401 177.825C259.385 177.747 259.183 177.719 259.047 177.658C259.08 177.589 259.121 177.5 259.169 177.403ZM242.342 151.761C242.379 151.742 242.423 151.715 242.445 151.695C242.289 151.402 242.127 151.102 241.946 150.766C241.785 151.174 241.949 151.551 242.342 151.761ZM264.299 185.253C264.165 185.059 264.075 184.93 263.971 184.8C263.926 184.75 263.843 184.733 263.775 184.702C263.734 184.778 263.635 184.893 263.667 184.944C263.781 185.13 263.93 185.31 264.078 185.519C264.177 185.403 264.253 185.308 264.299 185.253ZM244.005 153.125C244.232 153.301 244.406 153.433 244.586 153.573C244.696 153.079 244.557 152.955 244.005 153.125ZM256.593 183.05C256.519 183.012 256.45 182.982 256.376 182.944C256.304 183.074 256.224 183.212 256.138 183.342C256.233 183.401 256.328 183.447 256.422 183.506C256.482 183.347 256.534 183.195 256.601 183.043L256.593 183.05ZM257.073 177.587C256.863 177.986 256.955 178.193 257.462 178.379C257.313 178.079 257.201 177.865 257.073 177.587ZM255.428 175.118C255.465 175.294 255.489 175.456 255.535 175.612C255.553 175.662 255.62 175.706 255.674 175.736C255.694 175.744 255.761 175.697 255.784 175.663C255.874 175.477 255.651 175.14 255.428 175.118ZM258.761 180.871C258.805 180.845 258.849 180.818 258.899 180.799C258.93 180.548 258.975 180.297 258.441 180.306C258.58 180.535 258.667 180.707 258.761 180.871ZM256.384 173.008C256.462 172.989 256.533 172.978 256.604 172.966C256.563 172.846 256.544 172.705 256.465 172.632C256.405 172.581 256.244 172.582 256.164 172.628C256.12 172.655 256.101 172.829 256.138 172.901C256.176 172.958 256.302 172.977 256.384 173.008ZM259.57 178.959C259.593 178.729 259.621 178.52 259.648 178.324L259.48 178.318C259.467 178.514 259.454 178.71 259.441 178.906C259.441 178.906 259.461 178.913 259.57 178.959ZM256.517 176.46C256.229 176.772 256.248 177.004 256.53 177.196C256.518 176.958 256.519 176.733 256.517 176.46ZM241.289 149.783C241.464 150.006 241.612 150.201 241.792 150.445C241.845 149.978 241.651 149.824 241.289 149.783Z" fill="#FAE36A"/>
</g>
<path d="M51.7597 59.7425C51.1747 59.8274 51.1003 59.521 50.9139 59.2499C50.447 58.5597 49.9263 57.8683 49.4736 57.1768C49.1394 56.6687 48.8704 56.1672 48.587 55.6669C48.2319 55.0292 47.953 54.4033 47.4584 53.772C47.2081 53.4629 47.0952 53.1225 46.9761 52.7951C46.9065 52.5948 46.8889 52.3709 47.2947 52.3776C47.3148 52.4509 47.3187 52.5007 47.3481 52.5544C47.3855 52.6198 47.4372 52.684 47.4889 52.7482C47.5001 52.7534 47.619 52.7613 47.6252 52.7482C47.6386 52.6906 47.6438 52.6212 47.6064 52.5558C47.5002 52.3462 47.3829 52.1315 47.2655 51.9167C47.2443 51.8748 47.1733 51.7936 47.1367 51.7844C47.0635 51.7661 46.9862 51.7857 46.9373 51.8027C46.8527 51.8668 46.7904 51.9414 46.717 52.0108C47.0103 52.2282 46.9958 52.3173 46.6143 52.3459C46.3386 52.0329 46.4896 51.8562 46.6742 51.6953C46.7507 51.6193 46.8353 51.5552 46.9118 51.4793C46.7422 51.3758 46.5727 51.2723 46.395 51.157C46.3711 51.3534 46.3544 51.5053 46.3354 51.72C46.0401 51.4777 45.77 51.327 45.8205 51.1032C45.8216 51.0717 45.8004 51.0298 45.7649 50.9892C45.5582 50.7326 45.3372 50.4772 45.1304 50.2205C44.8608 49.8944 44.5373 49.567 44.3389 49.2343C44.1517 48.9069 43.7246 48.5389 43.9544 48.2234C44.0166 48.1488 43.9034 47.8961 43.7593 47.7965C43.2741 47.4651 43.031 47.1115 42.789 46.7265C42.5845 46.407 42.2264 46.0953 42.1897 45.7666C41.4366 45.2217 41.292 44.571 40.7618 43.9869C40.5022 43.6974 40.2712 43.4054 40.0574 43.1055C39.9328 42.9352 39.6783 42.6641 40.1948 42.7546C40.2313 42.7638 40.262 42.6984 40.2947 42.6578C40.2246 42.6329 40.119 42.5674 40.0875 42.5765C39.6875 42.6445 39.5132 42.4349 39.3715 42.1848C39.0832 41.6662 38.8202 41.1516 38.5115 40.6474C38.222 40.1603 37.8725 39.6849 37.5576 39.1938C37.4634 39.0458 37.4039 38.8822 37.3301 38.7198C37.3038 38.6595 37.306 38.5967 37.2594 38.5509C36.7705 38.082 36.4179 37.6131 36.3105 37.1156C36.3035 37.0724 36.2549 37.0016 36.2021 36.9689C35.8792 36.7855 35.8024 36.6297 36.1017 36.5145C35.9028 36.3574 35.7283 36.2355 35.5741 36.0993C35.4939 36.0378 35.4402 35.9487 35.4059 35.8767C35.4008 35.8584 35.5128 35.8231 35.5494 35.8322C35.65 35.8794 35.7382 35.9527 35.8885 36.0392C36.039 36.0379 36.2465 36.0315 36.5507 36.0224C36.1923 35.7984 35.9476 35.6517 35.6725 35.4827C35.6317 35.5115 35.6021 35.5455 35.5532 35.5625C35.4789 35.5756 35.3996 35.5703 35.3172 35.5716C35.3083 35.5035 35.2608 35.4014 35.3015 35.3726C35.8262 35.0677 35.6325 34.5217 35.5232 33.9992C35.5011 33.901 35.4932 33.8015 35.4854 33.702C35.4688 33.4467 35.438 33.1927 35.4438 32.9479C35.4619 32.6768 35.6182 32.4308 35.5316 32.1505C35.4075 31.8049 35.6024 31.5928 35.5869 31.3061C35.5732 31.1319 35.4131 30.9211 35.4217 30.7574C35.4292 30.6252 35.5507 30.4825 35.7104 30.4616C35.9333 30.4224 36.2273 30.3767 36.5162 30.7198C36.6905 30.9294 36.8436 31.097 36.8979 31.3301C36.9521 31.5632 37.2178 31.8395 37.3961 32.0988C37.4204 32.1342 37.4955 32.1774 37.5433 32.1918C38.2356 32.285 38.4265 32.7499 38.8151 33.0839C39.1104 33.3262 39.4392 33.5842 39.7967 33.7519C40.4366 34.0441 40.9116 34.7461 40.6168 35.0549C40.5729 35.0903 40.5931 35.1636 40.5766 35.2277C41.1908 35.2843 41.2659 35.3275 41.5403 35.7596C41.5696 35.8133 41.5928 35.8801 41.6456 35.9129C42.3574 36.3425 42.0491 36.709 42.1772 37.1045C42.1984 37.1464 42.1434 37.1765 42.2021 37.2839C42.3375 37.2276 42.4587 37.1727 42.643 37.0994C42.6132 37.2212 42.5825 37.2866 42.5752 37.3311C42.8392 37.4949 43.0696 37.6429 43.3032 37.7844C43.1339 37.9126 43.0259 37.9977 42.9209 38.0762C42.9483 38.105 42.9868 38.1391 43.0254 38.1731C43.179 38.1653 43.3326 38.1575 43.5686 38.1484C43.6485 38.2977 43.7223 38.4601 43.85 38.6238C44.0475 38.9001 44.2796 39.1608 44.4914 39.4358C44.7275 39.7462 44.9728 40.0369 44.8061 40.334C44.663 40.6103 45.1078 40.4756 45.1827 40.6065C45.4118 40.8737 45.6836 41.1369 45.87 41.408C45.9884 41.5914 45.993 41.7851 46.0656 41.9789C46.0858 42.0523 46.1352 42.1793 46.1911 42.2055C46.7986 42.4505 46.8107 42.8315 47.0234 43.1628C47.0608 43.2283 47.1237 43.2977 47.1865 43.3671C47.4977 43.7207 47.8201 44.0796 48.1456 44.4319C48.2956 44.6061 48.4996 44.7816 48.6242 44.9518C49.0405 45.5464 49.4934 46.1501 49.8161 46.7407C50.0559 47.1886 50.4045 47.6077 50.7105 48.0307C50.7753 48.125 50.7689 48.2258 50.8306 48.3266C51.0584 48.7129 51.168 49.1476 51.4661 49.4711C51.756 49.7828 52.043 50.1011 52.276 50.418C52.6174 50.8816 52.8907 51.3452 53.1893 51.8127C53.4475 52.2213 53.6915 52.6312 53.9211 53.0423C54.0385 53.2571 54.1131 53.4758 54.2193 53.6853C54.2881 53.8293 54.3884 53.9642 54.4714 54.107C54.5038 54.1541 54.5951 54.2209 54.5798 54.2536C54.5391 54.6019 54.8634 54.9856 55.0211 55.347C55.1242 55.5631 55.3066 55.7844 55.424 55.9992C55.7023 56.4811 55.9552 56.9591 56.2365 57.4344C56.8043 58.4035 57.4148 59.3686 57.9684 60.339C58.447 61.1784 58.8941 62.027 59.3301 62.8703C59.4443 63.0916 59.4651 63.3089 59.5397 63.5276C59.5548 63.5826 59.6065 63.6468 59.6501 63.6992C59.7099 63.7751 59.8093 63.8537 59.8549 63.931C60.12 64.3828 60.3598 64.8306 60.625 65.2824C60.6917 65.4016 60.8124 65.5221 60.8904 65.6465C61.0564 65.932 61.2193 66.224 61.3791 66.5226C61.3953 66.5461 61.3657 66.5802 61.3962 66.6024C62.0334 67.1329 62.1639 67.6972 62.4034 68.2328C62.651 68.7802 62.7369 69.3235 62.7924 69.8447C62.8341 70.1916 62.4842 70.2111 61.9906 69.9557C61.2878 69.5941 61.0457 69.6162 60.8969 70.0496C60.8682 70.1399 60.8649 70.2342 60.828 70.3127C60.7912 70.3912 60.7513 70.4763 60.6535 70.5103C60.3592 70.6438 59.3196 70.3318 59.052 70.0306C58.2005 69.0562 57.3713 68.0923 56.5451 67.1219C56.2451 66.7735 55.9166 66.4277 55.6481 66.0702C55.4494 65.8253 55.3251 65.5673 55.1186 65.2229C54.6616 64.9766 53.9282 63.9538 54.0926 63.7195C53.9272 63.5781 53.7465 63.4693 53.6686 63.3449C53.3232 62.8316 53.0348 62.313 52.7007 61.8049C52.4526 61.433 52.119 61.0689 51.8994 60.6944C51.7627 60.4626 51.7481 60.2321 51.6939 59.9991C51.6738 59.9257 51.7156 59.8655 51.7455 59.7438L51.7597 59.7425ZM52.3351 52.1227C51.7279 52.1094 51.6983 52.1434 51.9931 52.5612C52.0772 52.6725 52.2387 52.7642 52.3482 52.8795C52.4191 52.9607 52.4759 53.0432 52.5153 53.1335C52.6597 53.4648 52.733 53.8026 52.9345 54.1287C53.1066 54.4011 53.2656 54.6434 53.2679 54.9C53.268 55.2194 53.4901 55.4434 53.9615 55.6007C53.9641 55.7696 53.9189 55.9241 53.9754 56.0943C54.0601 56.3496 54.1987 56.6063 54.3657 56.8603C54.3951 56.914 54.5892 56.9652 54.7152 57.0163C54.7235 56.9403 54.7685 56.8736 54.7372 56.795C54.5977 56.482 54.4552 56.1756 54.3015 55.864C54.2347 55.7448 54.1171 55.6178 54.0981 55.513C54.048 55.242 54.1057 54.9736 53.6122 54.7181C53.5482 54.6801 53.5211 54.5636 53.504 54.4837C53.4719 54.3488 53.454 54.2127 53.436 54.0765C53.4002 53.8042 53.287 53.5514 52.9038 53.4675C52.88 53.2567 52.8613 53.0642 52.8344 52.86C51.9898 52.6555 52.4849 52.3846 52.3351 52.1227ZM50.9467 52.8449C50.7326 53.0399 51.1599 54.0469 51.5398 54.2251C51.4933 53.7721 51.3267 53.3426 50.9467 52.8449ZM52.96 56.5443C52.9379 56.4461 52.9421 56.4082 52.9209 56.3663C52.8046 56.1201 52.6741 55.8752 52.5324 55.6251C52.5081 55.5897 52.3914 55.519 52.3629 55.5216C52.2917 55.5281 52.1939 55.5621 52.2182 55.5975C52.3222 55.8698 52.4516 56.1461 52.6095 56.4198C52.6307 56.4617 52.8167 56.5011 52.96 56.5443ZM38.048 38.4097C37.8456 38.4345 37.5964 38.4135 37.5942 38.4763C37.5806 38.6217 37.6736 38.8011 37.7474 38.9634C37.7656 39.0119 37.922 39.0853 38.0064 39.1089C38.046 39.1115 38.1214 39.067 38.1398 39.0277C38.1666 38.9125 38.1791 38.7986 38.1693 38.6742C38.1604 38.6062 38.1118 38.5354 38.048 38.4097ZM42.984 45.7879C42.9234 45.9751 42.859 46.1125 42.828 46.2657C42.8208 46.3102 42.8886 46.3979 42.9445 46.4242C43.0004 46.4504 43.1082 46.453 43.149 46.4242C43.2855 46.3365 43.3916 46.2266 43.5373 46.1193C43.3647 46.0224 43.248 45.9516 42.984 45.7879ZM46.0143 50.9226C46.0941 50.7524 46.1851 50.5874 46.2538 50.412C46.258 50.3741 46.1931 50.2798 46.1403 50.247C46.0845 50.2208 45.9767 50.2182 45.9166 50.2299C45.5014 50.3306 45.8087 50.6344 46.0143 50.9226ZM50.6238 52.6615C50.8882 52.3304 50.732 52.1693 50.237 51.7135C50.284 51.9911 50.3067 52.2333 50.366 52.4847C50.373 52.5279 50.5101 52.5842 50.6238 52.6615ZM40.8673 43.7329C41.1337 43.7461 41.3239 43.7474 41.5934 43.7541C41.3722 43.5864 41.2615 43.5026 41.1783 43.4476C41.2082 43.3258 41.2369 43.2355 41.2575 43.1334C41.1986 43.1137 41.1427 43.0875 41.0869 43.0613C41.0233 43.2551 40.9596 43.4488 40.8673 43.7329ZM51.8622 54.584C51.4977 54.6925 51.8793 54.9833 51.8788 55.1587C51.8685 55.2098 52.0634 55.3172 52.1629 55.3958C52.1833 55.3814 52.2006 55.3736 52.2098 55.3539C52.1047 55.113 51.9885 54.8668 51.8622 54.584ZM45.3808 49.8029C45.4275 49.8487 45.4884 49.8933 45.5381 49.9326C45.6277 49.8868 45.7316 49.8397 45.7908 49.7716C45.8173 49.7441 45.7495 49.6564 45.7232 49.5962C45.6101 49.6629 45.4939 49.7362 45.3778 49.8095L45.3808 49.8029ZM44.8334 48.8195C44.8234 48.7828 44.8164 48.7396 44.8094 48.6964C44.7191 48.5982 44.6289 48.4999 44.5244 48.403C44.5244 48.403 44.3474 48.4317 44.3524 48.4501C44.3999 48.5522 44.4586 48.6596 44.5519 48.7513C44.6016 48.7906 44.7348 48.7972 44.8334 48.8195ZM60.2685 65.8099C60.1274 65.7038 60.031 65.6187 59.8321 65.4615C59.864 65.6841 59.887 65.8386 59.925 66.0481C60.0646 65.9539 60.1492 65.8898 60.2685 65.8099Z" fill="#FAE36A"/>
<path d="M336.829 82.8168C336.645 82.255 336.934 82.1291 337.169 81.899C337.769 81.3206 338.361 80.6888 338.964 80.1242C339.408 79.7078 339.855 79.3566 340.3 78.9916C340.867 78.5323 341.436 78.1501 341.973 77.5545C342.234 77.2549 342.55 77.0852 342.852 76.9117C343.038 76.8087 343.255 76.7529 343.318 77.1538C343.25 77.1862 343.201 77.1986 343.153 77.2368C343.095 77.2849 343.041 77.3468 342.987 77.4088C342.983 77.4207 342.996 77.5392 343.01 77.543C343.069 77.5463 343.138 77.5396 343.196 77.4915C343.384 77.3509 343.576 77.1984 343.767 77.046C343.805 77.0179 343.873 76.934 343.876 76.8964C343.881 76.8211 343.848 76.7483 343.823 76.7031C343.746 76.6307 343.661 76.5822 343.581 76.5218C343.417 76.848 343.326 76.849 343.233 76.4781C343.494 76.1528 343.694 76.2712 343.884 76.4254C343.972 76.4878 344.05 76.5601 344.138 76.6224C344.21 76.4376 344.283 76.2528 344.366 76.058C344.169 76.0681 344.016 76.0777 343.801 76.0959C343.99 75.7635 344.092 75.4715 344.321 75.4828C344.352 75.4785 344.39 75.4504 344.423 75.4085C344.641 75.1607 344.855 74.8992 345.072 74.6514C345.347 74.3299 345.614 73.955 345.908 73.7024C346.198 73.4618 346.487 72.9778 346.837 73.15C346.922 73.1985 347.151 73.0437 347.225 72.8846C347.468 72.3497 347.774 72.0495 348.112 71.745C348.392 71.4887 348.637 71.0824 348.955 70.9898C349.362 70.1544 349.979 69.9002 350.463 69.2776C350.704 68.9722 350.952 68.6945 351.211 68.4324C351.357 68.2804 351.58 67.9832 351.58 68.5075C351.577 68.5451 351.647 68.5641 351.692 68.5893C351.705 68.516 351.751 68.4007 351.737 68.3712C351.601 67.9889 351.778 67.7812 352 67.5987C352.461 67.2256 352.923 66.8782 353.367 66.4874C353.797 66.1186 354.205 65.6927 354.635 65.2982C354.765 65.18 354.916 65.0933 355.063 64.9927C355.118 64.9565 355.18 64.9479 355.217 64.8941C355.595 64.332 355.997 63.9041 356.468 63.7129C356.51 63.6986 356.571 63.6386 356.594 63.581C356.719 63.2314 356.86 63.1289 357.025 63.4041C357.145 63.1811 357.235 62.9882 357.343 62.8129C357.39 62.7234 357.468 62.6552 357.534 62.609C357.551 62.6009 357.605 62.7052 357.602 62.7428C357.573 62.85 357.516 62.9495 357.456 63.1124C357.483 63.2605 357.525 63.4638 357.586 63.7619C357.746 63.3704 357.848 63.1041 357.967 62.804C357.932 62.7688 357.893 62.7455 357.868 62.7003C357.843 62.6293 357.834 62.5503 357.819 62.4693C357.884 62.4488 357.977 62.3845 358.012 62.4197C358.403 62.8843 358.907 62.5997 359.403 62.4023C359.496 62.3637 359.593 62.3389 359.69 62.3141C359.938 62.254 360.183 62.18 360.425 62.1437C360.696 62.115 360.965 62.2267 361.226 62.0933C361.545 61.9117 361.788 62.0673 362.067 62.0028C362.237 61.9594 362.417 61.7655 362.58 61.7459C362.711 61.7306 362.872 61.8257 362.92 61.9795C362.997 62.1924 363.093 62.4742 362.804 62.8177C362.628 63.0254 362.489 63.205 362.269 63.2985C362.048 63.3919 361.822 63.7011 361.597 63.9212C361.566 63.9512 361.537 64.0327 361.531 64.0822C361.558 64.7803 361.132 65.0481 360.87 65.4883C360.682 65.8208 360.484 66.189 360.38 66.57C360.202 67.2506 359.592 67.839 359.238 67.6015C359.195 67.5644 359.126 67.5968 359.06 67.5916C359.11 68.2064 359.08 68.2878 358.702 68.6323C358.654 68.6704 358.592 68.7048 358.569 68.7624C358.268 69.5373 357.854 69.2966 357.486 69.4906C357.449 69.5187 357.41 69.4697 357.314 69.5459C357.393 69.6697 357.467 69.7796 357.571 69.9486C357.446 69.9401 357.376 69.9211 357.331 69.9216C357.215 70.2098 357.109 70.4622 357.01 70.7166C356.854 70.5719 356.752 70.48 356.657 70.3901C356.633 70.422 356.606 70.4658 356.579 70.5096C356.613 70.6596 356.647 70.8096 356.697 71.0405C356.563 71.1449 356.416 71.2455 356.277 71.3993C356.038 71.6414 355.821 71.9148 355.587 72.1707C355.322 72.4565 355.077 72.7481 354.756 72.6349C354.459 72.5413 354.668 72.9564 354.552 73.0526C354.328 73.3242 354.116 73.6372 353.881 73.8673C353.72 74.0155 353.53 74.0532 353.352 74.1581C353.283 74.1905 353.166 74.261 353.15 74.3205C353.013 74.9611 352.64 75.0384 352.35 75.3048C352.292 75.3529 352.234 75.4268 352.176 75.5006C351.882 75.8679 351.583 76.2471 351.292 76.6282C351.146 76.8059 351.008 77.0369 350.862 77.1889C350.348 77.7011 349.831 78.2509 349.304 78.6702C348.904 78.9833 348.551 79.3987 348.187 79.7727C348.105 79.8528 348.005 79.8638 347.916 79.9419C347.575 80.2326 347.165 80.4152 346.898 80.7644C346.64 81.1036 346.376 81.4409 346.104 81.7248C345.706 82.1407 345.296 82.4895 344.887 82.864C344.528 83.1885 344.167 83.4992 343.801 83.796C343.609 83.9485 343.407 84.0596 343.219 84.2002C343.089 84.2926 342.973 84.4146 342.847 84.5208C342.806 84.5609 342.755 84.6623 342.721 84.6528C342.371 84.6725 342.048 85.0579 341.719 85.2753C341.524 85.4139 341.337 85.6317 341.146 85.7841C340.719 86.141 340.291 86.4722 339.871 86.831C339.014 87.5567 338.168 88.3238 337.307 89.0357C336.562 89.6514 335.803 90.2375 335.047 90.8117C334.849 90.9623 334.638 91.02 334.436 91.1311C334.384 91.1554 334.33 91.2173 334.286 91.2692C334.221 91.3412 334.161 91.4526 334.092 91.5108C333.693 91.8496 333.293 92.1626 332.893 92.5014C332.787 92.5877 332.689 92.7272 332.58 92.8254C332.327 93.0379 332.068 93.2485 331.801 93.4572C331.781 93.4772 331.742 93.4539 331.725 93.4878C331.312 94.2065 330.778 94.4321 330.292 94.7599C329.795 95.0978 329.275 95.2757 328.771 95.4198C328.436 95.5205 328.357 95.1791 328.524 94.649C328.759 93.8945 328.696 93.6598 328.244 93.5877C328.15 93.5749 328.056 93.5878 327.972 93.5649C327.889 93.5421 327.798 93.5174 327.748 93.427C327.566 93.1599 327.695 92.0822 327.946 91.7668C328.759 90.7607 329.567 89.7783 330.381 88.7979C330.672 88.4425 330.957 88.0595 331.263 87.7336C331.47 87.4959 331.703 87.3291 332.007 87.0666C332.171 86.5741 333.053 85.676 333.312 85.7978C333.423 85.6105 333.499 85.4138 333.608 85.3157C334.054 84.8874 334.516 84.5142 334.959 84.0978C335.283 83.7896 335.584 83.3984 335.915 83.1178C336.12 82.9434 336.345 82.8895 336.565 82.796C336.634 82.7636 336.7 82.7945 336.825 82.803L336.829 82.8168ZM344.435 82.0757C344.344 81.4753 344.305 81.4519 343.944 81.814C343.849 81.916 343.786 82.0908 343.691 82.2185C343.624 82.3023 343.552 82.3723 343.47 82.4267C343.168 82.6259 342.848 82.7561 342.561 83.0105C342.322 83.2268 342.111 83.425 341.859 83.4713C341.544 83.5263 341.361 83.7835 341.287 84.275C341.122 84.3065 340.962 84.2885 340.804 84.3733C340.567 84.5006 340.337 84.6812 340.116 84.8894C340.068 84.9275 340.051 85.1276 340.022 85.2604C340.099 85.2556 340.172 85.2884 340.244 85.2441C340.528 85.053 340.806 84.86 341.086 84.6551C341.192 84.5689 341.297 84.4312 341.397 84.3945C341.656 84.2986 341.93 84.3094 342.097 83.7793C342.123 83.7098 342.234 83.6631 342.309 83.6325C342.437 83.5777 342.568 83.5367 342.699 83.4957C342.961 83.4136 343.191 83.2587 343.207 82.8668C343.411 82.8072 343.597 82.7557 343.794 82.6941C343.851 81.8269 344.202 82.2682 344.435 82.0757ZM343.485 80.8319C343.256 80.6544 342.337 81.2482 342.227 81.653C342.665 81.5295 343.06 81.2916 343.485 80.8319ZM340.186 83.4503C340.279 83.4117 340.317 83.4093 340.355 83.3812C340.577 83.2244 340.796 83.0538 341.018 82.8713C341.049 82.8413 341.098 82.7141 341.091 82.6865C341.072 82.6175 341.022 82.527 340.991 82.557C340.741 82.7062 340.491 82.8811 340.248 83.0836C340.211 83.1117 340.204 83.3017 340.186 83.4503ZM355.492 65.6468C355.432 65.4516 355.41 65.2026 355.348 65.2112C355.203 65.2227 355.042 65.3451 354.895 65.4457C354.85 65.4719 354.804 65.6386 354.796 65.7257C354.8 65.7653 354.857 65.8319 354.899 65.8433C355.017 65.8499 355.131 65.8427 355.252 65.8117C355.317 65.7912 355.379 65.7311 355.492 65.6468ZM349.07 71.776C348.875 71.7485 348.729 71.7085 348.573 71.7043C348.528 71.7048 348.453 71.7868 348.437 71.8463C348.42 71.9058 348.436 72.0125 348.472 72.0477C348.582 72.1672 348.708 72.2528 348.839 72.378C348.905 72.1913 348.954 72.0641 349.07 71.776ZM344.532 75.6427C344.713 75.6921 344.891 75.7535 345.076 75.791C345.114 75.7886 345.196 75.7085 345.219 75.6509C345.235 75.5914 345.219 75.4847 345.198 75.4276C345.027 75.0358 344.781 75.3906 344.532 75.6427ZM343.61 80.4823C343.982 80.6859 344.114 80.5044 344.478 79.9385C344.212 80.0324 343.978 80.0964 343.74 80.1979C343.699 80.2122 343.667 80.357 343.61 80.4823ZM350.731 69.3379C350.764 69.6027 350.795 69.7903 350.835 70.0569C350.962 69.8102 351.026 69.6868 351.066 69.5954C351.191 69.6039 351.285 69.6167 351.389 69.6195C351.398 69.5581 351.415 69.4985 351.431 69.439C351.229 69.4096 351.027 69.3802 350.731 69.3379ZM341.929 82.0322C341.759 81.6919 341.538 82.1177 341.365 82.1473C341.313 82.1459 341.241 82.3564 341.181 82.4679C341.198 82.4855 341.209 82.5012 341.23 82.5069C341.449 82.362 341.672 82.2052 341.929 82.0322ZM345.526 74.8264C345.489 74.8803 345.456 74.9479 345.426 75.0036C345.486 75.0841 345.55 75.1783 345.627 75.225C345.659 75.2464 345.734 75.1644 345.789 75.1282C345.704 75.0283 345.611 74.9264 345.519 74.8245L345.526 74.8264ZM346.401 74.1184C346.436 74.1021 346.477 74.0878 346.518 74.0735C346.6 73.9678 346.681 73.862 346.758 73.7424C346.758 73.7424 346.7 73.5729 346.682 73.5811C346.59 73.6454 346.494 73.7216 346.42 73.8293C346.39 73.885 346.406 74.0174 346.401 74.1184ZM332.312 92.2408C332.393 92.0836 332.46 91.974 332.581 91.7511C332.367 91.8207 332.219 91.8698 332.019 91.9433C332.136 92.0647 332.213 92.137 332.312 92.2408Z" fill="#FAE36A"/>
<path d="M116.829 180.626C116.277 180.412 116.363 180.108 116.335 179.781C116.268 178.95 116.155 178.092 116.101 177.267C116.06 176.66 116.072 176.091 116.072 175.516C116.076 174.787 116.142 174.104 116.022 173.312C115.956 172.919 116.025 172.567 116.082 172.224C116.12 172.015 116.215 171.811 116.565 172.017C116.547 172.091 116.525 172.136 116.525 172.197C116.525 172.273 116.538 172.354 116.552 172.435C116.559 172.445 116.659 172.511 116.67 172.502C116.71 172.459 116.749 172.401 116.749 172.325C116.759 172.091 116.763 171.846 116.766 171.601C116.769 171.554 116.747 171.449 116.719 171.423C116.665 171.371 116.588 171.35 116.537 171.341C116.432 171.355 116.341 171.389 116.243 171.413C116.391 171.747 116.335 171.817 115.988 171.655C115.902 171.246 116.121 171.167 116.361 171.118C116.465 171.089 116.57 171.075 116.674 171.047C116.577 170.873 116.48 170.7 116.382 170.512C116.265 170.671 116.176 170.795 116.054 170.973C115.916 170.616 115.755 170.352 115.909 170.182C115.925 170.155 115.927 170.108 115.916 170.056C115.863 169.73 115.796 169.399 115.742 169.074C115.668 168.658 115.548 168.213 115.539 167.826C115.537 167.449 115.346 166.919 115.701 166.757C115.792 166.723 115.818 166.447 115.741 166.289C115.482 165.762 115.444 165.335 115.423 164.88C115.402 164.502 115.244 164.054 115.374 163.75C114.986 162.905 115.18 162.267 115.006 161.498C114.923 161.118 114.865 160.75 114.827 160.384C114.802 160.174 114.714 159.813 115.119 160.146C115.146 160.172 115.205 160.13 115.254 160.111C115.205 160.055 115.145 159.946 115.113 159.938C114.732 159.801 114.683 159.532 114.683 159.245C114.687 158.652 114.711 158.074 114.69 157.483C114.678 156.917 114.608 156.331 114.575 155.749C114.566 155.573 114.595 155.402 114.61 155.224C114.617 155.159 114.65 155.105 114.632 155.042C114.437 154.393 114.361 153.812 114.512 153.326C114.527 153.285 114.52 153.199 114.49 153.145C114.299 152.826 114.309 152.653 114.626 152.7C114.53 152.465 114.438 152.273 114.371 152.079C114.331 151.986 114.328 151.882 114.334 151.802C114.339 151.784 114.453 151.808 114.481 151.834C114.545 151.924 114.586 152.032 114.674 152.181C114.806 152.254 114.99 152.35 115.259 152.492C115.057 152.121 114.916 151.873 114.76 151.59C114.71 151.595 114.668 151.61 114.617 151.601C114.546 151.576 114.479 151.532 114.407 151.493C114.433 151.429 114.441 151.317 114.491 151.312C115.098 151.305 115.198 150.734 115.36 150.225C115.389 150.129 115.431 150.038 115.473 149.948C115.584 149.717 115.683 149.481 115.808 149.271C115.957 149.044 116.214 148.907 116.277 148.62C116.339 148.258 116.613 148.169 116.74 147.912C116.814 147.754 116.779 147.491 116.867 147.353C116.938 147.242 117.114 147.177 117.263 147.238C117.477 147.313 117.755 147.418 117.838 147.859C117.887 148.127 117.937 148.348 117.87 148.578C117.802 148.808 117.898 149.179 117.925 149.492C117.929 149.535 117.973 149.61 118.008 149.646C118.565 150.068 118.502 150.566 118.676 151.048C118.814 151.404 118.973 151.791 119.202 152.113C119.615 152.682 119.683 153.527 119.275 153.651C119.219 153.66 119.201 153.733 119.155 153.781C119.662 154.133 119.706 154.207 119.732 154.718C119.731 154.78 119.718 154.849 119.748 154.904C120.157 155.628 119.708 155.795 119.625 156.203C119.623 156.25 119.56 156.249 119.558 156.371C119.704 156.389 119.836 156.4 120.033 156.427C119.947 156.519 119.888 156.561 119.86 156.596C120.009 156.868 120.137 157.11 120.27 157.349C120.06 157.377 119.924 157.398 119.794 157.414C119.804 157.453 119.821 157.502 119.837 157.55C119.975 157.619 120.113 157.688 120.322 157.796C120.319 157.965 120.303 158.143 120.333 158.348C120.37 158.686 120.443 159.027 120.492 159.371C120.545 159.757 120.616 160.131 120.324 160.308C120.064 160.478 120.517 160.579 120.518 160.73C120.586 161.075 120.693 161.438 120.722 161.766C120.735 161.984 120.644 162.155 120.612 162.359C120.593 162.433 120.574 162.568 120.609 162.618C121.018 163.131 120.841 163.468 120.863 163.861C120.863 163.937 120.884 164.028 120.904 164.119C121.001 164.58 121.105 165.051 121.215 165.518C121.26 165.744 121.352 165.997 121.376 166.206C121.446 166.929 121.543 167.677 121.534 168.35C121.522 168.858 121.619 169.395 121.678 169.913C121.688 170.027 121.633 170.112 121.637 170.23C121.645 170.678 121.526 171.111 121.627 171.539C121.726 171.953 121.819 172.371 121.866 172.762C121.935 173.334 121.945 173.872 121.975 174.426C121.999 174.908 122.009 175.385 122.007 175.856C122.003 176.101 121.961 176.328 121.95 176.563C121.939 176.722 121.96 176.889 121.962 177.054C121.967 177.111 122.014 177.214 121.984 177.235C121.778 177.518 121.871 178.012 121.83 178.404C121.814 178.643 121.864 178.925 121.86 179.17C121.866 179.726 121.851 180.267 121.862 180.819C121.879 181.942 121.936 183.083 121.94 184.2C121.944 185.166 121.916 186.125 121.88 187.073C121.871 187.322 121.782 187.522 121.739 187.749C121.725 187.804 121.739 187.885 121.751 187.953C121.766 188.048 121.813 188.165 121.815 188.255C121.824 188.779 121.812 189.287 121.821 189.811C121.82 189.947 121.866 190.111 121.873 190.258C121.877 190.588 121.875 190.923 121.867 191.261C121.869 191.29 121.827 191.305 121.842 191.339C122.136 192.115 121.972 192.67 121.917 193.254C121.863 193.853 121.671 194.368 121.463 194.849C121.328 195.171 121.014 195.016 120.71 194.551C120.276 193.89 120.054 193.79 119.712 194.095C119.642 194.159 119.593 194.239 119.522 194.29C119.452 194.34 119.375 194.394 119.273 194.376C118.951 194.347 118.2 193.564 118.115 193.17C117.853 191.903 117.605 190.656 117.364 189.405C117.274 188.954 117.158 188.491 117.1 188.048C117.048 187.737 117.066 187.451 117.056 187.049C116.779 186.61 116.644 185.359 116.903 185.236C116.828 185.031 116.724 184.848 116.718 184.701C116.67 184.084 116.674 183.491 116.633 182.884C116.6 182.438 116.489 181.957 116.482 181.523C116.477 181.254 116.578 181.046 116.645 180.817C116.664 180.743 116.73 180.711 116.816 180.62L116.829 180.626ZM121.079 174.275C120.557 173.965 120.514 173.98 120.565 174.489C120.584 174.627 120.679 174.786 120.718 174.94C120.739 175.046 120.748 175.146 120.738 175.244C120.701 175.603 120.598 175.933 120.613 176.316C120.629 176.638 120.648 176.927 120.524 177.152C120.367 177.43 120.45 177.734 120.783 178.103C120.702 178.252 120.587 178.364 120.552 178.54C120.501 178.804 120.495 179.095 120.515 179.399C120.515 179.46 120.658 179.6 120.743 179.706C120.788 179.644 120.859 179.608 120.871 179.525C120.903 179.184 120.93 178.847 120.95 178.5C120.95 178.363 120.91 178.195 120.945 178.094C121.035 177.833 121.217 177.628 120.913 177.163C120.876 177.098 120.91 176.984 120.935 176.906C120.973 176.772 121.024 176.645 121.076 176.518C121.179 176.263 121.204 175.987 120.912 175.726C120.995 175.53 121.073 175.354 121.151 175.163C120.516 174.569 121.08 174.577 121.079 174.275ZM119.515 174.221C119.232 174.285 119.109 175.372 119.352 175.714C119.534 175.297 119.6 174.841 119.515 174.221ZM119.447 178.432C119.476 178.336 119.498 178.305 119.501 178.258C119.521 177.986 119.527 177.709 119.527 177.421C119.523 177.379 119.457 177.26 119.43 177.248C119.365 177.218 119.263 177.2 119.267 177.243C119.224 177.531 119.2 177.835 119.203 178.151C119.201 178.198 119.344 178.324 119.447 178.432ZM115.388 155.307C115.199 155.229 114.993 155.088 114.96 155.142C114.877 155.262 114.869 155.464 114.854 155.641C114.846 155.693 114.946 155.833 115.008 155.895C115.041 155.917 115.128 155.916 115.164 155.89C115.244 155.803 115.311 155.71 115.363 155.597C115.389 155.534 115.381 155.448 115.388 155.307ZM116.055 164.159C115.91 164.292 115.786 164.38 115.684 164.498C115.656 164.534 115.671 164.643 115.707 164.694C115.743 164.744 115.836 164.799 115.885 164.794C116.047 164.785 116.194 164.742 116.373 164.72C116.271 164.551 116.204 164.432 116.055 164.159ZM116.166 170.12C116.32 170.011 116.48 169.913 116.626 169.794C116.648 169.763 116.638 169.649 116.608 169.594C116.573 169.544 116.48 169.489 116.422 169.469C116.011 169.353 116.129 169.768 116.166 170.12ZM119.324 173.902C119.717 173.744 119.66 173.527 119.453 172.887C119.358 173.151 119.258 173.373 119.186 173.621C119.171 173.662 119.263 173.779 119.324 173.902ZM115.223 161.329C115.448 161.471 115.613 161.566 115.845 161.704C115.735 161.45 115.68 161.322 115.634 161.233C115.72 161.142 115.79 161.077 115.858 160.999C115.816 160.953 115.78 160.902 115.745 160.852C115.594 160.989 115.443 161.127 115.223 161.329ZM119.456 176.185C119.085 176.1 119.274 176.541 119.188 176.694C119.153 176.733 119.27 176.923 119.318 177.04C119.343 177.037 119.362 177.039 119.38 177.027C119.407 176.765 119.427 176.494 119.456 176.185ZM116.166 168.834C116.184 168.897 116.215 168.965 116.239 169.024C116.339 169.028 116.453 169.038 116.538 169.008C116.575 168.997 116.559 168.888 116.566 168.822C116.434 168.825 116.297 168.831 116.16 168.838L116.166 168.834ZM116.173 167.708C116.182 167.671 116.198 167.63 116.213 167.589C116.183 167.459 116.152 167.33 116.109 167.194C116.109 167.194 115.941 167.132 115.936 167.15C115.927 167.262 115.925 167.385 115.962 167.51C115.986 167.569 116.098 167.64 116.173 167.708ZM121.251 190.094C121.18 189.933 121.138 189.811 121.042 189.576C120.96 189.786 120.904 189.932 120.834 190.133C121.002 190.119 121.108 190.105 121.251 190.094Z" fill="#FAE36A"/>
<mask id="mask4_75_58" style="mask-type:luminance" maskUnits="userSpaceOnUse" x="96" y="15" width="43" height="57">
<path d="M119.026 15L138.461 24.4343L115.435 71.8687L96 62.4344L119.026 15Z" fill="white"/>
</mask>
<g mask="url(#mask4_75_58)">
<path d="M112.532 54.4735C112.606 53.9509 112.716 53.446 112.761 52.9208C112.81 52.3864 112.814 51.8528 112.836 51.2822C112.602 51.2373 112.475 51.2211 112.282 51.1847C112.29 50.8919 112.201 50.6098 112.634 50.5233C112.866 50.4768 113.041 49.7757 112.921 49.4666C112.871 49.4766 112.829 49.5017 112.779 49.5117C112.668 49.5257 112.568 49.5457 112.465 49.5413C112.448 49.5446 112.358 49.4211 112.379 49.4086C112.444 49.3374 112.533 49.278 112.625 49.2429C112.754 49.192 113.018 49.2059 113.025 49.1295C113.066 48.9215 113.051 48.6748 112.96 48.4598C112.754 48.0181 112.597 47.5999 112.789 47.2034C112.843 47.0928 112.833 46.9283 112.821 46.7974C112.787 46.4961 112.679 46.193 112.698 45.9061C112.711 45.7869 112.989 45.7396 113.137 45.6518C113.179 45.5353 113.209 45.3792 113.296 45.2619C113.523 44.9502 113.45 44.5734 113.079 44.2563C112.835 44.0469 112.763 43.4536 112.976 43.1695C113.057 43.3115 113.11 43.4509 113.209 43.5559C113.268 43.619 113.391 43.6444 113.493 43.6823C113.5 43.606 113.554 43.4953 113.526 43.4592C113.354 43.3188 113.423 43.0219 113.057 43.0035C113.028 43.001 112.88 42.6558 112.894 42.5032C112.965 41.8312 113.073 41.1769 113.144 40.505C113.186 40.1719 113.339 40.0413 113.81 40.0305C113.934 39.6808 114.071 39.3371 114.191 38.9966C114.338 38.6009 114.29 38.4523 113.794 37.9605C114.333 37.9942 114.418 37.694 114.449 37.3215C114.076 37.163 114.132 36.9853 114.309 36.775C114.773 36.2825 114.917 35.6459 114.976 34.9681C115.016 34.5771 115.096 34.1947 115.107 33.8012C115.125 33.5478 115.061 33.2775 115.02 32.9611C115.941 32.4854 116.044 31.6239 115.657 30.5357C116.55 30.7983 116.235 30.087 116.407 29.7945C116.595 29.4987 116.618 29.1111 116.649 28.7386C116.644 28.6564 116.386 28.5082 116.218 28.3585C116.218 28.3585 116.328 28.2866 116.443 28.2969C116.764 28.3159 116.768 28.2153 116.596 27.9833C116.49 27.8296 116.443 27.6474 116.345 27.4173C116.56 27.4991 116.699 27.5548 116.776 27.5809C116.752 27.1362 116.732 26.6822 116.724 26.2341C116.724 26.1427 116.77 26.0169 116.845 25.9852C117.117 25.8892 117.149 25.6996 117.117 25.4562C117.082 24.972 117.392 24.6101 117.491 24.1908C117.612 23.7253 118.065 23.3184 117.729 22.7111C117.675 22.6053 117.652 22.4685 117.7 22.4006C117.95 22.0092 117.91 21.5342 117.923 21.0736C117.932 20.7472 118.075 20.4521 118.177 20.1486C118.26 19.9155 118.489 19.7531 118.135 19.4328C118.031 19.3369 118.182 19.057 118.206 18.8523C118.26 18.5251 118.297 18.2013 118.363 17.8801C118.415 17.5865 118.416 17.245 119.011 17.3175C118.867 17.0881 118.754 16.9193 118.653 16.7563C118.662 16.7378 118.671 16.7194 118.697 16.6976C118.797 16.7691 118.893 16.8499 118.998 16.9122C119.261 17.0511 119.557 17.3999 119.738 16.9639C119.752 16.9362 119.945 16.9391 119.977 16.966C120.344 17.4173 120.704 17.1705 121.079 17.1703C121.198 17.1714 121.353 17.2237 121.441 17.2893C121.757 17.5677 122.072 17.846 122.324 18.162C122.466 18.3334 122.485 18.5709 122.552 18.7741C123.179 18.6569 123.235 18.4792 122.953 17.8863C122.739 17.4294 123.14 17.316 123.524 17.1724C123.56 17.3152 123.597 17.4243 123.618 17.5368C123.66 17.5117 123.686 17.4899 123.711 17.4682C124.055 17.7491 124.395 18.0392 124.734 18.3293C124.798 18.3831 124.868 18.4856 124.838 18.5166C124.596 18.9231 125.089 19.3905 125.032 19.8184C124.983 20.2277 125.123 20.6828 125.074 21.0922C125.006 21.7885 124.856 22.4678 124.772 23.1674C124.698 23.69 124.69 24.2329 124.629 24.7614C124.549 25.3268 124.433 25.8745 124.33 26.4281C124.308 26.5656 124.286 26.7032 124.265 26.8408C124.232 27.1554 124.199 27.4699 124.138 27.782C124.03 28.3448 123.917 28.9168 123.768 29.4711C123.634 29.9643 123.406 30.4346 123.271 30.9277C123.186 31.2279 123.226 31.5779 123.189 31.9017C123.163 32.0485 123.144 32.2104 123.049 32.3126C122.791 32.5974 122.599 32.8688 122.686 33.3095C122.734 33.5496 122.548 33.7783 122.444 34.1154C122.433 34.201 122.478 34.4167 122.402 34.5735C122.157 35.0471 122.04 35.5369 122.01 36.0923C121.981 36.7391 121.687 37.3142 121.511 37.9239C121.452 38.1688 121.398 38.4044 121.364 38.6611C121.29 39.1837 121.188 39.7038 121.184 40.2374C121.174 40.8138 121.031 41.3254 120.813 41.8351C120.664 42.173 120.865 42.6575 120.849 43.0602C120.835 43.4294 120.739 43.7816 120.684 44.1423C120.658 44.2891 120.603 44.4333 120.589 44.586C120.53 45.2639 120.488 45.9384 120.441 46.6222C120.44 46.6557 120.455 46.686 120.434 46.6985C119.672 47.2173 120.261 48.1984 119.918 48.8749C119.753 49.1825 119.856 49.6199 119.821 50.0016C119.802 50.2885 119.751 50.5485 119.707 50.8237C119.701 50.8664 119.671 50.8974 119.67 50.931C119.773 51.8013 119.289 52.4893 119.274 53.325C119.275 53.3829 119.252 53.4625 119.299 53.5197C119.554 53.86 119.327 54.0802 119.218 54.3351C119.082 54.6788 119.01 55.0429 118.975 55.4246C118.911 56.1117 118.913 56.819 118.833 57.5094C118.794 57.7753 118.626 57.9671 118.704 58.3012C118.785 58.6597 118.541 59.0083 118.486 59.369C118.451 59.6256 118.506 59.9144 118.508 60.1888C118.515 60.5454 118.53 60.9171 118.496 61.2653C118.408 61.9406 118.268 62.6015 118.168 63.2709C118.139 63.4848 118.209 63.7123 118.25 63.9372C118.39 64.7917 118.033 65.4958 117.844 66.2582C117.792 66.4267 117.776 66.613 117.737 66.7874C117.721 66.8822 117.728 67.0224 117.648 67.0633C117.049 67.308 116.866 67.7776 116.738 68.3194C116.651 68.6532 116.336 68.8992 116.107 69.1866C116.089 69.2235 115.9 69.2114 115.872 69.1753C115.773 69.0702 115.631 68.8987 115.667 68.825C115.774 68.6037 115.737 68.4031 115.528 68.1535C115.461 68.0753 115.503 67.9252 115.512 67.8153C115.535 67.6442 115.558 67.473 115.578 67.2776C115.397 67.247 115.207 67.2685 115.172 67.2172C114.898 66.8223 114.527 66.8133 114.108 66.7806C113.741 66.7623 113.497 66.5864 113.408 66.2129C113.35 65.9913 113.12 65.7542 112.981 65.5156C112.942 65.4401 112.892 65.3586 112.875 65.2704C112.848 65.2007 112.86 65.1152 112.838 65.0363C112.616 64.4728 112.337 63.9042 112.177 63.3367C112.026 62.7508 111.983 62.16 111.894 61.57C111.841 61.1226 111.805 60.672 111.768 60.2213C111.725 59.847 111.674 59.4576 111.659 59.0859C111.643 58.7477 111.636 58.3911 111.678 58.058C111.698 57.954 111.894 57.8898 112.021 57.8145C112.122 57.761 112.247 57.7193 112.373 57.6776C112.245 57.5699 112.147 57.4313 112.001 57.3606C111.588 57.1601 111.788 56.9037 111.73 56.6821C111.703 56.5209 111.784 56.3549 111.815 56.1989C112.496 56.2791 112.455 56.2706 112.379 55.6865C112.342 55.3609 112.473 55.0599 112.505 54.7453C112.521 54.6505 112.513 54.5439 112.512 54.4525L112.532 54.4735Z" fill="#FAE36A"/>
</g>
<mask id="mask5_75_58" style="mask-type:luminance" maskUnits="userSpaceOnUse" x="165" y="147" width="43" height="57">
<path d="M188.026 147L207.461 156.434L184.435 203.869L165 194.434L188.026 147Z" fill="white"/>
</mask>
<g mask="url(#mask5_75_58)">
<path d="M181.532 186.473C181.606 185.951 181.716 185.446 181.761 184.921C181.81 184.386 181.814 183.853 181.836 183.282C181.602 183.237 181.475 183.221 181.282 183.185C181.29 182.892 181.201 182.61 181.634 182.523C181.866 182.477 182.042 181.776 181.921 181.467C181.871 181.477 181.829 181.502 181.779 181.512C181.668 181.526 181.568 181.546 181.465 181.541C181.448 181.545 181.358 181.421 181.379 181.409C181.444 181.337 181.533 181.278 181.625 181.243C181.754 181.192 182.018 181.206 182.025 181.13C182.066 180.922 182.051 180.675 181.96 180.46C181.754 180.018 181.597 179.6 181.789 179.203C181.843 179.093 181.833 178.928 181.821 178.797C181.787 178.496 181.679 178.193 181.698 177.906C181.711 177.787 181.989 177.74 182.137 177.652C182.179 177.535 182.209 177.379 182.296 177.262C182.523 176.95 182.45 176.573 182.079 176.256C181.835 176.047 181.763 175.454 181.976 175.17C182.057 175.311 182.11 175.451 182.209 175.556C182.268 175.619 182.391 175.644 182.493 175.682C182.5 175.606 182.554 175.495 182.526 175.459C182.354 175.319 182.423 175.022 182.057 175.004C182.028 175.001 181.88 174.656 181.894 174.503C181.965 173.831 182.073 173.177 182.144 172.505C182.186 172.172 182.339 172.041 182.81 172.03C182.934 171.681 183.071 171.337 183.191 170.997C183.338 170.601 183.29 170.452 182.794 169.96C183.333 169.994 183.418 169.694 183.449 169.321C183.076 169.163 183.132 168.985 183.309 168.775C183.773 168.282 183.917 167.646 183.976 166.968C184.016 166.577 184.096 166.195 184.107 165.801C184.125 165.548 184.061 165.277 184.02 164.961C184.941 164.485 185.044 163.624 184.657 162.536C185.55 162.798 185.235 162.087 185.407 161.795C185.595 161.499 185.618 161.111 185.649 160.739C185.644 160.656 185.386 160.508 185.218 160.359C185.218 160.359 185.328 160.287 185.443 160.297C185.764 160.316 185.768 160.215 185.596 159.983C185.49 159.83 185.443 159.647 185.345 159.417C185.56 159.499 185.699 159.555 185.776 159.581C185.752 159.136 185.732 158.682 185.724 158.234C185.724 158.143 185.77 158.017 185.845 157.985C186.117 157.889 186.149 157.7 186.117 157.456C186.082 156.972 186.392 156.61 186.491 156.191C186.612 155.725 187.065 155.318 186.729 154.711C186.675 154.605 186.652 154.468 186.7 154.401C186.95 154.009 186.91 153.534 186.923 153.074C186.932 152.747 187.075 152.452 187.177 152.149C187.26 151.915 187.489 151.753 187.135 151.433C187.031 151.337 187.182 151.057 187.206 150.852C187.26 150.525 187.297 150.201 187.363 149.88C187.415 149.587 187.416 149.245 188.011 149.317C187.867 149.088 187.754 148.919 187.653 148.756C187.662 148.738 187.671 148.719 187.697 148.698C187.797 148.769 187.893 148.85 187.998 148.912C188.261 149.051 188.557 149.4 188.738 148.964C188.752 148.936 188.945 148.939 188.977 148.966C189.344 149.417 189.704 149.17 190.079 149.17C190.198 149.171 190.353 149.224 190.441 149.289C190.757 149.568 191.072 149.846 191.324 150.162C191.466 150.333 191.485 150.571 191.552 150.774C192.179 150.657 192.235 150.479 191.953 149.886C191.739 149.429 192.14 149.316 192.524 149.172C192.56 149.315 192.597 149.424 192.618 149.537C192.66 149.512 192.686 149.49 192.711 149.468C193.055 149.749 193.395 150.039 193.734 150.329C193.798 150.383 193.868 150.486 193.838 150.517C193.596 150.923 194.089 151.391 194.032 151.818C193.983 152.228 194.123 152.683 194.074 153.092C194.006 153.788 193.856 154.468 193.772 155.167C193.698 155.69 193.69 156.233 193.629 156.761C193.549 157.327 193.433 157.874 193.33 158.428C193.308 158.566 193.286 158.703 193.265 158.841C193.232 159.155 193.199 159.47 193.138 159.782C193.03 160.345 192.917 160.917 192.768 161.471C192.634 161.964 192.406 162.435 192.271 162.928C192.186 163.228 192.226 163.578 192.189 163.902C192.163 164.048 192.144 164.21 192.049 164.313C191.791 164.597 191.599 164.869 191.686 165.31C191.734 165.55 191.548 165.778 191.444 166.115C191.433 166.201 191.478 166.417 191.402 166.573C191.157 167.047 191.04 167.537 191.01 168.092C190.981 168.739 190.687 169.314 190.511 169.924C190.452 170.169 190.398 170.404 190.364 170.661C190.29 171.184 190.188 171.704 190.184 172.237C190.174 172.814 190.031 173.325 189.813 173.835C189.664 174.173 189.865 174.658 189.849 175.06C189.835 175.429 189.739 175.782 189.684 176.142C189.658 176.289 189.603 176.433 189.589 176.586C189.53 177.264 189.488 177.938 189.441 178.622C189.44 178.656 189.455 178.686 189.434 178.698C188.672 179.217 189.261 180.198 188.918 180.875C188.753 181.183 188.856 181.62 188.821 182.002C188.802 182.289 188.751 182.549 188.707 182.824C188.701 182.866 188.671 182.897 188.67 182.931C188.773 183.801 188.289 184.489 188.274 185.325C188.275 185.383 188.252 185.463 188.299 185.52C188.554 185.86 188.327 186.08 188.218 186.335C188.082 186.679 188.01 187.043 187.975 187.425C187.911 188.112 187.913 188.819 187.833 189.509C187.794 189.775 187.626 189.967 187.704 190.301C187.785 190.66 187.541 191.008 187.486 191.369C187.451 191.626 187.506 191.914 187.508 192.189C187.515 192.545 187.53 192.917 187.496 193.265C187.408 193.941 187.268 194.601 187.168 195.271C187.139 195.485 187.209 195.712 187.25 195.937C187.39 196.792 187.033 197.496 186.844 198.258C186.792 198.427 186.776 198.613 186.737 198.787C186.721 198.882 186.728 199.022 186.648 199.063C186.049 199.308 185.866 199.778 185.738 200.319C185.651 200.653 185.336 200.899 185.107 201.187C185.089 201.223 184.9 201.211 184.872 201.175C184.773 201.07 184.631 200.899 184.667 200.825C184.774 200.604 184.737 200.403 184.528 200.153C184.461 200.075 184.503 199.925 184.512 199.815C184.535 199.644 184.558 199.473 184.578 199.278C184.397 199.247 184.207 199.268 184.172 199.217C183.898 198.822 183.527 198.813 183.108 198.781C182.741 198.762 182.497 198.586 182.408 198.213C182.35 197.991 182.12 197.754 181.981 197.516C181.942 197.44 181.892 197.359 181.875 197.27C181.848 197.201 181.86 197.115 181.838 197.036C181.616 196.473 181.337 195.904 181.177 195.337C181.026 194.751 180.983 194.16 180.894 193.57C180.841 193.123 180.805 192.672 180.768 192.221C180.725 191.847 180.674 191.458 180.659 191.086C180.643 190.748 180.636 190.391 180.678 190.058C180.698 189.954 180.894 189.89 181.021 189.815C181.122 189.761 181.247 189.719 181.373 189.678C181.245 189.57 181.147 189.431 181.001 189.361C180.588 189.16 180.788 188.904 180.73 188.682C180.703 188.521 180.784 188.355 180.815 188.199C181.496 188.279 181.455 188.271 181.379 187.686C181.342 187.361 181.473 187.06 181.505 186.745C181.521 186.65 181.513 186.544 181.512 186.452L181.532 186.473Z" fill="#FAE36A"/>
</g>
<mask id="mask6_75_58" style="mask-type:luminance" maskUnits="userSpaceOnUse" x="159" y="0" width="50" height="67">
<path d="M190.014 0L208.94 10.4186L177.926 66.7579L159 56.3393L190.014 0Z" fill="white"/>
</mask>
<g mask="url(#mask6_75_58)">
<path d="M177.442 46.469C177.596 45.8542 177.785 45.2589 177.909 44.6421C178.038 44.0142 178.121 43.3888 178.227 42.7195C177.99 42.6745 177.859 42.6597 177.664 42.6233C177.714 42.28 177.663 41.9523 178.127 41.8368C178.377 41.7747 178.663 40.9473 178.583 40.5891C178.529 40.6025 178.482 40.6333 178.428 40.6466C178.309 40.6667 178.202 40.6934 178.095 40.6916C178.077 40.696 178.001 40.5542 178.025 40.5388C178.103 40.4533 178.204 40.3808 178.306 40.3367C178.449 40.2727 178.722 40.2804 178.741 40.1907C178.814 39.9456 178.834 39.657 178.771 39.4081C178.62 38.8972 178.517 38.4123 178.777 37.9414C178.849 37.8099 178.862 37.6175 178.87 37.4645C178.878 37.1126 178.81 36.7609 178.872 36.4241C178.903 36.284 179.2 36.2195 179.368 36.1117C179.428 35.9738 179.483 35.79 179.591 35.6497C179.873 35.277 179.853 34.8377 179.512 34.4784C179.288 34.241 179.299 33.5481 179.563 33.2082C179.627 33.3719 179.662 33.5335 179.75 33.6534C179.803 33.7253 179.927 33.7511 180.028 33.7922C180.047 33.7025 180.119 33.5711 180.095 33.5297C179.936 33.3707 180.052 33.0205 179.672 33.0111C179.642 33.009 179.539 32.6094 179.576 32.43C179.748 31.6403 179.957 30.8701 180.129 30.0803C180.222 29.6887 180.401 29.5306 180.894 29.5025C181.076 29.0887 181.269 28.6814 181.445 28.2785C181.657 27.8099 181.628 27.6373 181.181 27.0773C181.74 27.0992 181.873 26.7446 181.96 26.3071C181.593 26.1336 181.678 25.9235 181.894 25.6713C182.451 25.0789 182.695 24.3283 182.856 23.532C182.954 23.0726 183.095 22.6218 183.164 22.1603C183.22 21.8628 183.192 21.5482 183.195 21.1787C184.228 20.5911 184.462 19.5782 184.217 18.3157C185.111 18.5942 184.886 17.7711 185.109 17.4227C185.349 17.0698 185.43 16.6148 185.517 16.1774C185.524 16.0811 185.276 15.916 185.122 15.7461C185.122 15.7461 185.248 15.6582 185.367 15.6665C185.699 15.6783 185.718 15.5602 185.572 15.2941C185.484 15.1174 185.462 14.9054 185.393 14.639C185.606 14.7278 185.742 14.7885 185.819 14.8166C185.859 14.2962 185.905 13.7649 185.963 13.2401C185.975 13.1329 186.042 12.984 186.125 12.9444C186.423 12.823 186.485 12.5998 186.487 12.3156C186.521 11.7494 186.899 11.3151 187.063 10.8205C187.258 10.2711 187.791 9.77941 187.529 9.07878C187.488 8.95653 187.484 8.79699 187.544 8.71588C187.862 8.24907 187.891 7.69376 187.972 7.15355C188.029 6.77081 188.222 6.42033 188.373 6.06127C188.494 5.78539 188.757 5.58765 188.433 5.22387C188.339 5.11495 188.538 4.78193 188.593 4.54128C188.697 4.15617 188.784 3.77551 188.9 3.39691C188.997 3.05118 189.048 2.65098 189.66 2.71637C189.543 2.45234 189.449 2.25816 189.368 2.0705C189.38 2.04859 189.392 2.02669 189.422 2.00034C189.516 2.08085 189.605 2.17231 189.705 2.24187C189.959 2.39608 190.217 2.79508 190.471 2.27825C190.489 2.24539 190.691 2.24242 190.721 2.27291C191.037 2.78972 191.45 2.48867 191.842 2.47622C191.966 2.47355 192.12 2.52978 192.203 2.60378C192.492 2.91961 192.78 3.23543 192.997 3.59744C193.12 3.79368 193.106 4.07134 193.146 4.30725C193.818 4.14945 193.903 3.93928 193.695 3.25375C193.539 2.72538 193.974 2.57944 194.397 2.39856C194.413 2.56462 194.436 2.6913 194.441 2.82244C194.489 2.79165 194.519 2.76531 194.549 2.73896C194.867 3.05686 195.179 3.38571 195.491 3.71455C195.55 3.77553 195.609 3.89333 195.573 3.93063C195.26 4.41491 195.707 4.94651 195.584 5.44973C195.473 5.93103 195.552 6.4597 195.441 6.94101C195.268 7.75917 195.012 8.56017 194.822 9.38277C194.668 9.99758 194.58 10.634 194.438 11.2553C194.272 11.9204 194.071 12.566 193.882 13.2181C193.839 13.3801 193.796 13.542 193.753 13.7039C193.673 14.0736 193.593 14.4433 193.483 14.811C193.287 15.474 193.086 16.148 192.849 16.8025C192.636 17.3848 192.329 17.9433 192.116 18.5256C191.982 18.8802 191.973 19.289 191.887 19.6697C191.838 19.8425 191.795 20.0329 191.681 20.1557C191.369 20.4979 191.129 20.8223 191.155 21.3359C191.17 21.6156 190.942 21.8897 190.785 22.2882C190.76 22.3888 190.776 22.6401 190.673 22.8263C190.348 23.3893 190.153 23.9671 190.041 24.6189C189.916 25.3779 189.524 26.0614 189.251 26.7816C189.154 27.0705 189.062 27.3484 188.989 27.6504C188.835 28.2652 188.652 28.8779 188.57 29.5034C188.475 30.1791 188.25 30.7833 187.949 31.3878C187.743 31.7886 187.881 32.3498 187.806 32.8222C187.737 33.2553 187.586 33.6711 187.475 34.0956C187.426 34.2685 187.348 34.4393 187.311 34.6187C187.15 35.4149 187.007 36.2067 186.858 37.0095C186.851 37.0489 186.863 37.0838 186.839 37.0992C185.967 37.7321 186.439 38.8625 185.981 39.6665C185.764 40.0324 185.807 40.5415 185.714 40.9899C185.652 41.3268 185.561 41.6332 185.475 41.957C185.463 42.0073 185.427 42.0446 185.42 42.084C185.4 43.1005 184.794 43.9225 184.655 44.9023C184.649 44.9701 184.612 45.0642 184.653 45.1296C184.87 45.52 184.6 45.7856 184.449 46.0878C184.256 46.4951 184.128 46.924 184.035 47.3725C183.868 48.1797 183.766 49.0085 183.582 49.8201C183.502 50.133 183.298 50.3633 183.331 50.7523C183.363 51.1696 183.057 51.5861 182.946 52.0106C182.872 52.3125 182.888 52.6491 182.849 52.9706C182.804 53.3882 182.765 53.8233 182.679 54.2324C182.488 55.0266 182.244 55.8057 182.042 56.5934C181.98 56.845 182.02 57.1093 182.03 57.3716C182.051 58.3682 181.575 59.2051 181.265 60.1046C181.186 60.3038 181.143 60.5226 181.076 60.7283C181.045 60.8399 181.032 61.0039 180.942 61.0545C180.28 61.3609 180.02 61.9171 179.807 62.5562C179.668 62.9502 179.303 63.2489 179.021 63.5931C178.997 63.6369 178.801 63.629 178.777 63.5875C178.689 63.4676 178.566 63.2714 178.614 63.1838C178.759 62.9209 178.749 62.6871 178.567 62.4014C178.508 62.312 178.575 62.1347 178.6 62.0057C178.649 61.8044 178.698 61.6031 178.748 61.3734C178.564 61.3435 178.361 61.3749 178.332 61.316C178.104 60.8622 177.718 60.8637 177.285 60.8392C176.904 60.8297 176.674 60.6317 176.636 60.1969C176.609 59.9391 176.403 59.6688 176.292 59.3938C176.263 59.3065 176.222 59.2127 176.217 59.11C176.2 59.0292 176.225 58.9285 176.214 58.8368C176.064 58.1838 175.856 57.5266 175.772 56.8669C175.7 56.1852 175.742 55.4943 175.735 54.8058C175.745 54.2833 175.774 53.7564 175.802 53.2296C175.811 52.7924 175.815 52.3377 175.854 51.9026C175.887 51.5068 175.932 51.0891 176.024 50.6975C176.061 50.575 176.275 50.4933 176.418 50.4009C176.532 50.3349 176.669 50.2819 176.806 50.2289C176.688 50.107 176.606 49.9477 176.464 49.8696C176.062 49.6482 176.308 49.3412 176.281 49.0834C176.276 48.8954 176.385 48.6983 176.44 48.5145C177.14 48.5861 177.099 48.5775 177.104 47.8955C177.113 47.5151 177.294 47.1581 177.374 46.7884C177.405 46.6768 177.412 46.5522 177.425 46.4451L177.442 46.469Z" fill="#FAE36A"/>
</g>
<mask id="mask7_75_58" style="mask-type:luminance" maskUnits="userSpaceOnUse" x="238" y="8" width="68" height="65">
<path d="M282.417 8L305.031 44.8658L260.614 72.112L238 35.2461L282.417 8Z" fill="white"/>
</mask>
<g mask="url(#mask7_75_58)">
<path d="M262.043 47.2617C262.297 46.7256 262.593 46.2587 262.809 45.6819C263.035 45.0998 263.2 44.4591 263.4 43.7973C263.108 43.4374 262.947 43.2512 262.705 42.9551C262.803 42.61 262.772 42.1532 263.364 42.6145C263.683 42.863 264.123 42.244 264.059 41.7128C263.99 41.6595 263.928 41.6346 263.859 41.5814C263.709 41.4519 263.572 41.3454 263.438 41.2053C263.416 41.1876 263.335 40.9201 263.366 40.9325C263.472 40.931 263.606 40.9755 263.738 41.0536C263.923 41.1619 264.264 41.5237 264.296 41.4405C264.412 41.2424 264.466 40.9238 264.412 40.5448C264.275 39.7408 264.195 39.0289 264.566 38.8011C264.67 38.7376 264.706 38.5252 264.73 38.3517C264.777 37.9428 264.726 37.4346 264.838 37.1125C264.89 36.9851 265.269 37.2921 265.488 37.3792C265.578 37.2926 265.665 37.1441 265.814 37.116C266.204 37.0352 266.223 36.4846 265.832 35.6146C265.576 35.0423 265.66 34.2298 266.024 34.1649C266.088 34.443 266.115 34.6803 266.213 34.9372C266.272 35.0913 266.425 35.2828 266.546 35.4618C266.579 35.3786 266.682 35.3151 266.657 35.2354C266.474 34.8402 266.654 34.5714 266.18 34.0695C266.143 34.0288 266.053 33.4178 266.118 33.2515C266.413 32.5314 266.75 31.8804 267.045 31.1603C267.2 30.8118 267.44 30.8547 268.059 31.4577C268.328 31.1979 268.61 30.9611 268.87 30.7066C269.182 30.4204 269.164 30.1778 268.661 28.9322C269.357 29.6788 269.559 29.4277 269.712 29.0172C269.27 28.3366 269.397 28.1952 269.693 28.1727C270.449 28.1846 270.829 27.6028 271.109 26.8596C271.279 26.4385 271.5 26.0813 271.632 25.6194C271.732 25.3363 271.729 24.9255 271.77 24.4883C273.12 25.1191 273.514 24.2115 273.334 22.3876C274.424 23.8749 274.226 22.6016 274.539 22.4729C274.875 22.3619 275.021 21.9231 275.174 21.5126C275.192 21.4064 274.898 20.8889 274.724 20.4884C274.724 20.4884 274.889 20.5454 275.037 20.7085C275.452 21.1519 275.487 21.0351 275.331 20.5284C275.239 20.2043 275.232 19.9227 275.173 19.5154C275.43 19.8965 275.594 20.1447 275.688 20.2776C275.79 19.7077 275.9 19.1325 276.025 18.5803C276.052 18.4688 276.15 18.3769 276.258 18.4373C276.643 18.677 276.742 18.4894 276.773 18.1531C276.873 17.5212 277.389 17.4902 277.644 17.1118C277.942 16.7068 278.657 16.8072 278.4 15.6329C278.362 15.4345 278.372 15.238 278.455 15.2187C278.9 15.0725 278.991 14.4459 279.147 13.9062C279.256 13.5222 279.533 13.3527 279.758 13.1193C279.937 12.9461 280.286 13.0494 279.917 12.1972C279.81 11.9456 280.092 11.8044 280.186 11.5886C280.354 11.2631 280.5 10.9199 280.683 10.6174C280.84 10.3309 280.944 9.91852 281.701 10.7856C281.582 10.3198 281.485 9.96725 281.401 9.63779C281.419 9.6272 281.436 9.6166 281.476 9.62375C281.586 9.84171 281.687 10.065 281.806 10.2776C282.108 10.7898 282.391 11.5995 282.76 11.3097C282.786 11.2938 283.038 11.551 283.072 11.6254C283.416 12.6512 283.962 12.8238 284.453 13.3151C284.61 13.473 284.796 13.7389 284.892 13.9338C285.221 14.6833 285.55 15.4328 285.785 16.1449C285.919 16.5382 285.874 16.8515 285.9 17.1844C286.756 17.864 286.884 17.7226 286.692 16.6352C286.55 15.8028 287.108 16.1897 287.655 16.52C287.659 16.7395 287.675 16.9201 287.668 17.083C287.731 17.1079 287.771 17.1151 287.811 17.1222C288.177 17.9125 288.534 18.7081 288.891 19.5037C288.959 19.6525 289.02 19.8686 288.971 19.8667C288.532 20.0413 289.037 21.2532 288.833 21.6955C288.647 22.1271 288.692 22.8602 288.505 23.2919C288.207 24.0456 287.807 24.6717 287.486 25.4077C287.232 25.9437 287.058 26.5897 286.819 27.1487C286.545 27.729 286.229 28.2401 285.927 28.7743C285.857 28.9123 285.787 29.0503 285.717 29.1882C285.58 29.5262 285.442 29.8641 285.268 30.1613C284.957 30.7007 284.638 31.2455 284.276 31.7212C283.952 32.142 283.512 32.4121 283.187 32.8329C282.985 33.084 282.932 33.5602 282.786 33.9034C282.708 34.0467 282.635 34.2183 282.48 34.218C282.056 34.2244 281.723 34.3017 281.704 34.9479C281.695 35.302 281.383 35.3351 281.146 35.6074C281.105 35.6958 281.1 36.0163 280.953 36.1063C280.49 36.3587 280.188 36.7973 279.983 37.4308C279.75 38.1758 279.192 38.4864 278.779 38.9938C278.628 39.2131 278.486 39.4271 278.363 39.6925C278.11 40.2285 277.82 40.7238 277.654 41.3644C277.468 42.0493 277.127 42.4807 276.689 42.8128C276.392 43.0265 276.508 43.8748 276.367 44.342C276.237 44.7702 276.006 45.0708 275.825 45.4352C275.747 45.5785 275.632 45.681 275.567 45.8473C275.286 46.5904 275.028 47.3513 274.761 48.1175C274.749 48.1564 274.76 48.2131 274.729 48.2006C273.575 47.8304 274.052 49.7894 273.399 50.1583C273.091 50.3154 273.094 50.9793 272.933 51.3951C272.822 51.7172 272.677 51.9648 272.537 52.2407C272.517 52.285 272.468 52.2831 272.456 52.322C272.329 53.5099 271.488 53.7085 271.217 54.6995C271.202 54.7721 271.147 54.8375 271.192 54.9686C271.424 55.7144 271.06 55.6836 270.841 55.8497C270.558 56.0864 270.355 56.4331 270.194 56.8489C269.905 57.5973 269.694 58.4557 269.382 59.1864C269.251 59.457 268.973 59.469 268.975 59.9753C268.973 60.5153 268.549 60.6173 268.368 60.9817C268.246 61.2471 268.231 61.6684 268.151 62.0029C268.053 62.4436 267.96 62.9126 267.811 63.2895C267.493 63.9919 267.11 64.6073 266.778 65.2866C266.676 65.5078 266.699 65.8743 266.685 66.2001C266.612 67.4181 265.933 67.8029 265.455 68.4766C265.336 68.6127 265.26 68.818 265.156 68.9772C265.107 69.0709 265.074 69.2497 264.957 69.1946C264.098 68.7062 263.718 69.0349 263.387 69.523C263.173 69.813 262.687 69.6988 262.3 69.746C262.266 69.7671 262.021 69.5047 261.996 69.425C261.898 69.1681 261.764 68.7748 261.833 68.7324C262.04 68.6053 262.051 68.3132 261.852 67.7374C261.788 67.5549 261.889 67.4294 261.933 67.3073C262.015 67.1304 262.096 66.9535 262.181 66.7429C261.954 66.4699 261.698 66.2464 261.668 66.1383C261.428 65.3022 260.945 64.8056 260.406 64.2169C259.932 63.715 259.664 63.1816 259.66 62.6133C259.651 62.2698 259.421 61.6816 259.31 61.2104C259.283 61.0687 259.241 60.904 259.245 60.7748C259.232 60.6561 259.273 60.5677 259.268 60.4437C259.147 59.4715 258.952 58.4177 258.913 57.5217C258.892 56.6152 259.013 55.8435 259.074 55.0132C259.139 54.4025 259.227 53.8095 259.315 53.2165C259.37 52.7067 259.421 52.1686 259.513 51.6995C259.594 51.2694 259.692 50.8287 259.847 50.4802C259.905 50.3812 260.181 50.5605 260.369 50.6352C260.518 50.7027 260.694 50.8163 260.871 50.9299C260.736 50.6322 260.65 50.3364 260.48 50.0599C260 49.2765 260.338 49.2275 260.329 48.884C260.342 48.6539 260.498 48.5586 260.585 48.41C261.453 49.3994 261.402 49.3356 261.478 48.5284C261.527 48.0858 261.789 47.8933 261.927 47.5554C261.976 47.4616 261.997 47.3218 262.024 47.2103L262.043 47.2617Z" fill="#FAE36A"/>
</g>
</svg>
