<svg width="272" height="223" viewBox="0 0 272 223" fill="none" xmlns="http://www.w3.org/2000/svg">
<mask id="mask0_13_2" style="mask-type:luminance" maskUnits="userSpaceOnUse" x="0" y="0" width="174" height="167">
<path d="M0.849579 72.3221L113.665 0.485938L173.746 94.8403L60.9308 166.676L0.849579 72.3221Z" fill="white"/>
</mask>
<g mask="url(#mask0_13_2)">
<path d="M101.866 93.0122C102.522 94.4074 103.139 95.6805 103.712 96.9453C106.748 103.416 110.774 109.254 114.857 115.059C116.089 116.81 117.005 118.799 117.989 120.709C118.251 121.301 118.442 121.905 118.577 122.543C118.461 122.726 118.268 122.85 118.08 122.859C117.45 122.718 117.355 122.815 117.43 123.417C117.57 124.307 117.71 125.196 117.734 126.087C117.755 126.362 117.446 126.669 117.208 127.145C117.613 127.72 118.006 128.521 117.375 129.538C116.745 130.555 116.029 130.83 115.091 130.269C115.028 130.416 114.975 130.451 114.991 130.477C115.06 131.012 115.921 131.514 115.112 132.066C114.262 132.681 113.397 133.268 112.221 132.82C110.333 132.104 108.983 130.716 107.559 129.451C103.989 126.218 100.739 122.636 97.887 118.765C94.2244 113.743 90.8494 108.505 87.3356 103.352C87.1178 102.948 86.7873 102.614 86.4485 102.324C86.2352 103.327 85.9786 104.323 85.8109 105.337C84.8735 110.497 83.9651 115.642 83.0557 120.784C82.8549 121.926 82.6688 123.095 82.3938 124.247C82.3174 124.55 81.9027 124.814 81.6483 125.084C81.516 125.241 81.3245 125.363 81.2367 125.529C80.8798 126.553 80.6718 127.626 79.6415 128.318C79.476 128.424 79.4143 128.754 79.3307 128.988C78.7658 130.288 77.7893 130.766 76.7848 130.465C76.1384 130.911 75.703 131.442 75.1638 131.568C74.2728 131.81 73.215 131.795 72.7966 130.83C72.2665 129.575 71.59 128.266 71.544 126.917C71.4379 122.495 71.4755 118.051 71.6745 113.615C71.8532 109.336 72.337 105.043 72.6854 100.727C72.6985 100.501 72.6931 100.25 72.674 99.7934C71.5346 100.988 70.575 102.034 69.5536 103.048C67.5887 104.949 65.5649 106.819 63.5548 108.715C60.0904 111.972 56.6895 115.332 53.1414 118.461C50.3004 120.993 47.239 123.306 44.2716 125.702C42.4471 127.154 40.2771 127.703 38.0662 127.879C36.4413 128.008 35.4818 127.17 35.2513 125.65C34.9928 123.968 35.7199 122.491 36.6521 121.099C38.3946 118.54 40.2075 115.974 42.0536 113.46C42.7885 112.484 43.7814 111.671 44.5774 110.729C45.394 109.701 46.0428 108.528 46.8927 107.552C50.3065 103.604 53.7358 99.6811 57.1817 95.7841C59.3518 93.3517 61.6152 91.0042 63.8464 88.6062C63.9674 88.4925 64.0842 88.3106 64.3096 88.0571L60.2523 87.5258C51.6541 86.3728 43.0548 85.218 34.6515 83.2177C33.0901 82.8341 31.5297 82.4522 30.2522 81.4187C29.4346 80.7422 29.0311 79.9853 29.2598 78.8258L30.3478 78.8928L30.3994 78.7891L29.3214 78.3151L29.351 78.1154L34.9964 78.6494L35.1316 78.3117C34.6748 78.0212 34.1817 77.7928 33.6589 77.5833C32.5923 77.2462 31.4947 77.0411 30.4292 76.7058C29.3791 76.3947 29.4331 76.3604 29.7679 74.8792C29.9481 74.0047 30.4648 74.1472 31.0207 74.2281C31.1346 74.2264 31.2775 74.2087 31.3944 74.2075L30.8349 73.6941L31.9229 73.7611C32.2148 73.7926 32.544 73.7638 32.8543 73.6395C32.2776 73.4644 31.7111 73.2437 31.123 73.1124C30.5339 72.9794 30.4538 72.6688 30.7028 72.1487C31.0675 71.445 31.3895 70.7317 31.8153 70.0624C32.0305 69.8545 32.3118 69.7462 32.6131 69.7352C33.2693 69.7888 33.9349 69.7999 34.6006 69.8109C33.9461 69.5753 33.2638 69.3575 32.5668 69.1124C32.7451 68.2391 33.1764 68.0011 33.9944 68.1325C34.8743 68.2953 35.7718 68.3053 36.6724 68.2009C35.8334 67.7945 34.9821 67.4303 34.1413 67.0251L34.2195 66.7212C34.7648 66.6622 35.2981 66.6501 35.8487 66.661C41.3357 67.3691 46.8228 68.0772 52.2986 68.8292C57.5259 69.5561 62.743 70.3287 67.9608 71.0983C68.2527 71.1298 68.5706 71.1448 69.0221 71.1847C68.8808 70.8398 68.7864 70.5725 68.6558 70.3674C65.7318 64.9832 62.7922 59.5747 59.8414 54.21C58.6165 51.9826 57.2106 49.8362 56.0135 47.591C55.1992 46.0085 54.5225 44.3384 53.974 42.6233C53.7402 41.8291 53.6877 40.9586 53.8388 40.1002C53.9579 39.1913 54.3503 38.2891 55.4735 38.407L57.2522 39.5586C57.2169 38.5306 56.6686 37.7926 57.4533 36.8947C58.3702 35.8393 58.3049 35.7367 59.8374 36.1364C60.3336 34.6624 61.6246 34.7443 62.881 34.5257C63.9191 34.3337 64.8949 34.0397 65.8786 34.4272C66.2951 34.5969 66.6576 34.8009 67.0077 35.047C67.3424 35.2688 67.6509 35.5072 67.9577 35.7467L68.1024 35.5471L66.7916 34.2807L66.8628 34.0888C67.0989 34.1559 67.4187 34.1697 67.5877 34.3161C68.8166 35.4539 70.1552 36.5218 71.2062 37.807C74.1138 41.4622 76.9439 45.2376 79.7697 48.9449C79.8961 49.0818 80.067 49.2271 80.2195 49.3474C80.5899 47.3721 80.9543 45.5106 81.3074 43.6928C81.5759 42.2881 81.6355 40.8014 82.2189 39.526C83.2869 37.2507 83.5545 34.8717 84.289 32.5571C84.6108 31.4824 84.8022 30.3833 84.834 29.2759C84.9569 27.0966 85.3883 24.9749 86.3633 22.9763C86.5233 22.6202 86.7 22.2903 86.9378 21.9947C87.3968 21.3775 87.9194 21.2256 88.4904 21.8759C88.6896 21.4583 88.8882 21.0436 89.0762 20.6698C89.4148 19.9826 90.1805 19.605 90.9168 19.7885C91.1642 19.8117 91.4299 19.6791 91.5996 19.4612C92.0716 18.6183 93.745 18.205 94.4796 18.7511C94.6956 18.5403 94.9708 18.3651 95.2181 18.2076C95.618 18.5319 95.9806 18.9167 96.2317 19.3725C96.4341 19.9325 96.592 20.4843 96.6941 21.0715L96.9362 21.0249L96.7463 18.539L96.9563 18.442C97.1202 18.6992 97.2674 18.9304 97.3765 19.2249C98.1334 21.3864 98.115 23.6066 97.8692 25.9008C96.7284 36.336 95.629 46.7789 94.5482 57.2467C94.5475 57.4304 94.5476 57.6111 94.5293 57.9477C94.8395 57.6427 95.0423 57.4769 95.2304 57.2838C102.276 49.4282 109.322 41.5726 116.37 33.7187C117.247 32.7249 118.02 31.6884 118.931 30.7468C119.494 30.1705 120.217 29.7834 120.855 29.2671C121.319 28.8988 121.705 28.291 122.24 28.0969C123.816 27.526 125.184 26.3298 127.038 26.3806C128.208 26.3955 128.341 26.2397 128.622 26.4958C129.757 25.8441 129.548 25.9429 130.054 27.1034C130.714 28.5667 129.877 29.5007 129.13 30.5189C124.83 36.298 120.547 42.106 116.155 47.8003C111.712 53.6001 107.159 59.2872 102.597 65.0187C100.248 67.9629 97.8081 70.8212 95.3984 73.731C95.3219 73.853 95.2424 73.9745 95.2104 74.1048C96.579 74.2472 97.9198 74.4073 99.2458 74.5402C104.474 75.0881 109.682 75.5389 114.889 76.1716C119.177 76.7002 123.448 77.3863 127.704 78.0451C128.786 78.2258 129.837 78.5339 130.902 78.6886C132.41 78.9258 133.429 79.7962 134.317 80.8259C134.493 81.0394 134.435 81.4375 134.502 81.7225L145.231 83.3656L145.236 83.6162L144.141 83.842C144.695 84.4692 145.928 83.7914 146.216 84.9126L144.29 85.4135L147.917 87.5231L147.811 87.8448L145.215 88.2665C145.221 88.3364 145.213 88.4484 145.219 88.5183L148.161 88.636L148.144 88.7907L146.597 88.9795L146.582 89.1359C146.955 89.1153 147.319 89.1357 147.709 89.1412C148.402 89.1345 148.802 89.4589 148.828 90.1681C148.852 90.8756 148.558 91.3904 147.766 91.4231C145.621 91.5215 143.486 91.5761 141.325 91.6501C139.94 91.6624 138.564 91.632 137.166 91.6893C136.809 91.736 136.468 91.8086 136.16 91.9317L136.169 92.2505C137.011 92.296 137.857 92.4096 138.709 92.4095C140.849 92.422 142.984 92.3674 145.111 92.4249C146.097 92.4497 147.076 92.5883 148.136 92.673C148.255 93.2863 147.641 94.3295 146.665 94.6234C145.762 94.908 144.81 95.116 143.865 95.2121C138.378 95.6618 132.896 95.5687 127.468 95.2577C125.129 95.1148 122.748 95.1461 120.421 94.9611C115.739 94.5396 111.102 94.0133 106.44 93.5053C105.185 93.3613 103.971 93.1574 102.745 92.9973C102.443 93.0066 102.167 93.0012 101.866 93.0122ZM119.245 77.7804L119.301 77.5641C118.437 77.4256 117.587 77.2438 116.729 77.174C109.448 76.4478 102.157 75.7671 94.8647 75.0847C94.6079 75.1041 94.3534 75.1929 94.1155 75.3077L94.1654 75.5666L119.245 77.7804ZM92.6514 104.641L92.572 104.762L97.6104 112.675L97.9692 112.446C96.3776 109.946 94.8025 107.473 93.2098 104.972C93.0958 104.792 92.8318 104.743 92.6514 104.641ZM69.8668 65.575L69.7612 65.5323L73.6186 71.5902L73.6744 71.5546L69.8668 65.575Z" fill="#FFC700"/>
</g>
<mask id="mask1_13_2" style="mask-type:luminance" maskUnits="userSpaceOnUse" x="109" y="54" width="163" height="161">
<path d="M173.734 54.9167L271.493 124.803L207.668 214.084L109.909 144.197L173.734 54.9167Z" fill="white"/>
</mask>
<g mask="url(#mask1_13_2)">
<path d="M186.977 150.87C185.961 151.987 185.039 153.024 184.112 154.018C179.398 159.198 175.545 164.991 171.738 170.819C170.59 172.578 169.136 174.156 167.772 175.761C167.336 176.222 166.867 176.625 166.352 176.992C166.155 176.963 165.988 176.844 165.921 176.684C165.849 176.081 165.735 176.036 165.232 176.338C164.498 176.81 163.765 177.28 162.993 177.651C162.759 177.777 162.395 177.628 161.906 177.609C161.529 178.187 160.951 178.842 159.866 178.693C158.782 178.545 158.32 178.03 158.519 176.995C158.371 176.998 158.324 176.965 158.306 176.989C157.86 177.259 157.688 178.205 156.955 177.718C156.154 177.22 155.373 176.699 155.4 175.5C155.44 173.578 156.235 171.86 156.898 170.124C158.617 165.751 160.739 161.519 163.238 157.52C166.49 152.364 170.022 147.373 173.435 142.295C173.72 141.947 173.91 141.529 174.058 141.12C173.116 141.328 172.165 141.497 171.228 141.748C166.427 142.959 161.65 144.189 156.874 145.417C155.814 145.691 154.735 145.988 153.642 146.202C153.354 146.254 152.995 145.997 152.68 145.882C152.502 145.829 152.336 145.71 152.163 145.699C151.158 145.79 150.156 146.031 149.231 145.407C149.088 145.304 148.78 145.38 148.55 145.399C147.238 145.419 146.518 144.757 146.47 143.766C145.88 143.379 145.28 143.209 145.003 142.789C144.515 142.11 144.2 141.184 144.914 140.441C145.846 139.488 146.78 138.386 147.945 137.816C151.777 135.988 155.671 134.276 159.61 132.707C163.405 131.183 167.306 129.918 171.186 128.527C171.388 128.449 171.605 128.346 171.998 128.15C170.601 127.629 169.39 127.205 168.186 126.715C165.916 125.753 163.654 124.727 161.374 123.724C157.454 121.99 153.463 120.352 149.628 118.496C146.535 117.02 143.564 115.266 140.55 113.627C138.715 112.611 137.563 110.939 136.723 109.086C136.107 107.724 136.542 106.561 137.798 105.764C139.188 104.879 140.704 104.931 142.21 105.195C144.986 105.705 147.791 106.274 150.561 106.892C151.642 107.148 152.66 107.692 153.73 108.014C154.881 108.321 156.108 108.424 157.224 108.78C161.732 110.199 166.224 111.64 170.698 113.106C173.497 114.038 176.25 115.085 179.038 116.083C179.174 116.144 179.37 116.174 179.661 116.27L178.867 112.534C177.209 104.606 175.551 96.6754 174.694 88.5838C174.545 87.0756 174.394 85.569 174.901 84.0525C175.239 83.0761 175.775 82.4281 176.86 82.1717L177.138 83.144L177.245 83.1481L177.325 82.0247L177.509 81.9722L178.793 87.0903L179.13 87.0752C179.242 86.5639 179.289 86.0456 179.31 85.5088C179.273 84.4491 179.112 83.4143 179.075 82.3562C179.021 81.3211 179.068 81.3545 180.466 81.0641C181.286 80.8774 181.322 81.3827 181.424 81.8977C181.46 81.9961 181.52 82.1134 181.557 82.2146L181.833 81.5266L182.111 82.4989C182.174 82.765 182.302 83.04 182.507 83.2609C182.481 82.6908 182.498 82.1115 182.43 81.5487C182.364 80.9843 182.61 80.7927 183.142 80.805C183.87 80.8458 184.593 80.8458 185.31 80.9533C185.559 81.0588 185.741 81.2608 185.844 81.5185C186 82.1101 186.197 82.6931 186.394 83.2762C186.397 82.6147 186.376 81.9359 186.374 81.2337C187.192 81.0458 187.534 81.3274 187.673 82.0902C187.803 82.9192 188.073 83.7035 188.443 84.4455C188.538 83.5565 188.593 82.6733 188.686 81.7832L188.976 81.7319C189.196 82.1829 189.372 82.6417 189.533 83.1248C190.616 88.1736 191.699 93.2224 192.74 98.2786C193.725 103.109 194.668 107.948 195.613 112.787C195.676 113.053 195.762 113.336 195.867 113.744C196.125 113.486 196.329 113.299 196.468 113.104C200.266 108.448 204.081 103.769 207.854 99.0975C209.421 97.158 210.861 95.093 212.451 93.1708C213.582 91.8415 214.832 90.5975 216.16 89.4472C216.782 88.9321 217.526 88.5447 218.323 88.3391C219.154 88.0858 220.065 88.0729 220.31 89.0957L219.855 91.0943C220.742 90.6601 221.217 89.8936 222.245 90.2233C223.452 90.6063 223.521 90.5092 223.647 91.9985C225.089 91.8513 225.418 93.0059 225.999 94.0125C226.488 94.8398 227.048 95.5728 227.014 96.5802C226.995 97.0089 226.929 97.4042 226.823 97.8052C226.733 98.1832 226.62 98.5451 226.506 98.9059L226.725 98.9533L227.425 97.3165L227.615 97.303C227.63 97.5346 227.717 97.8181 227.641 98.0226C227.028 99.5377 226.51 101.121 225.713 102.539C223.42 106.502 220.998 110.445 218.635 114.357C218.554 114.521 218.48 114.727 218.422 114.906C220.263 114.453 222.003 114.039 223.701 113.632C225.012 113.314 226.33 112.783 227.625 112.789C229.945 112.824 232.107 112.123 234.357 111.853C235.396 111.711 236.416 111.446 237.394 111.039C239.336 110.29 241.324 109.832 243.373 109.895C243.734 109.895 244.077 109.919 244.409 110.01C245.091 110.166 245.386 110.561 244.994 111.313C245.421 111.322 245.845 111.332 246.23 111.349C246.935 111.373 247.503 111.891 247.571 112.603C247.627 112.827 247.826 113.006 248.069 113.068C248.952 113.148 249.832 114.44 249.582 115.293C249.833 115.398 250.072 115.569 250.286 115.722C250.127 116.197 249.903 116.664 249.582 117.061C249.156 117.457 248.723 117.811 248.241 118.13L248.357 118.322L250.47 117.181L250.62 117.326C250.446 117.569 250.29 117.788 250.066 117.998C248.412 119.505 246.466 120.36 244.385 121.047C234.912 124.152 225.445 127.296 215.962 130.466C215.802 130.537 215.644 130.608 215.344 130.725C215.707 130.875 215.915 130.986 216.142 131.074C225.191 134.116 234.241 137.158 243.29 140.202C244.431 140.575 245.576 140.84 246.681 141.262C247.359 141.526 247.922 142.002 248.571 142.355C249.037 142.613 249.688 142.71 250.023 143.099C251.011 144.245 252.48 144.965 253.011 146.597C253.361 147.62 253.538 147.675 253.401 148.019C254.323 148.75 254.172 148.607 253.314 149.503C252.24 150.652 251.164 150.29 250.043 150.04C243.66 148.571 237.256 147.127 230.918 145.544C224.472 143.958 218.09 142.231 211.666 140.515C208.365 139.629 205.111 138.629 201.821 137.677C201.69 137.658 201.559 137.637 201.436 137.66C201.736 138.906 202.011 140.134 202.307 141.339C203.449 146.1 204.67 150.806 205.732 155.581C206.599 159.517 207.324 163.499 208.068 167.459C208.246 168.47 208.302 169.505 208.498 170.492C208.758 171.896 208.313 173.124 207.689 174.301C207.557 174.537 207.191 174.643 206.962 174.813L208.853 184.786L208.636 184.889L208.099 184.026C207.723 184.753 208.697 185.56 207.807 186.25L206.772 184.772L206.053 188.754L205.739 188.788L204.566 186.697C204.506 186.729 204.406 186.767 204.347 186.799L205.156 189.403L205.016 189.449L204.371 188.178L204.23 188.226C204.364 188.543 204.458 188.867 204.575 189.208C204.795 189.809 204.636 190.284 204.024 190.584C203.413 190.884 202.872 190.83 202.598 190.154C201.847 188.327 201.137 186.493 200.402 184.643C199.962 183.443 199.562 182.235 199.078 181.042C198.927 180.75 198.758 180.482 198.555 180.262L198.279 180.396C198.5 181.145 198.663 181.926 198.928 182.666C199.581 184.532 200.29 186.367 200.9 188.239C201.183 189.105 201.366 190.011 201.621 190.966C201.122 191.31 200.02 191.186 199.46 190.453C198.931 189.779 198.454 189.033 198.077 188.249C195.983 183.655 194.364 178.852 192.953 174.011C192.353 171.922 191.587 169.863 191.027 167.768C189.943 163.531 188.966 159.293 187.964 155.04C187.701 153.893 187.502 152.757 187.262 151.628C187.16 151.369 187.08 151.127 186.977 150.87ZM205.677 160L205.883 159.964C205.736 159.158 205.631 158.347 205.426 157.575C203.803 150.959 202.137 144.352 200.472 137.744C200.376 137.528 200.219 137.342 200.045 137.18L199.834 137.325L205.677 160ZM173.957 147.423L173.827 147.401L168.474 154.888L168.785 155.111C170.476 152.746 172.149 150.405 173.841 148.038C173.962 147.869 173.924 147.62 173.957 147.423ZM201.031 112.276L201.036 112.167L196.938 117.899L196.986 117.934L201.031 112.276Z" fill="#6CBFD2"/>
</g>
<mask id="mask2_13_2" style="mask-type:luminance" maskUnits="userSpaceOnUse" x="69" y="139" width="82" height="84">
<path d="M69.0598 139.511H150.928V223H69.0598V139.511Z" fill="white"/>
</mask>
<g mask="url(#mask2_13_2)">
<path d="M114.415 193.033C114.295 194.175 114.195 195.224 114.075 196.25C113.515 201.541 113.674 206.83 113.874 212.121C113.935 213.718 113.754 215.337 113.634 216.934C113.574 217.412 113.475 217.869 113.334 218.324C113.214 218.394 113.074 218.394 112.974 218.324C112.695 217.983 112.614 218.006 112.454 218.415C112.234 219.032 112.015 219.647 111.734 220.218C111.654 220.399 111.394 220.468 111.114 220.673C111.135 221.197 111.074 221.859 110.414 222.246C109.754 222.634 109.294 222.52 108.995 221.791C108.914 221.859 108.874 221.859 108.874 221.882C108.734 222.246 109.013 222.908 108.414 222.931C107.773 222.977 107.134 223 106.674 222.246C105.934 221.039 105.694 219.624 105.374 218.257C104.594 214.79 104.093 211.232 103.894 207.651C103.654 203.022 103.633 198.371 103.513 193.718C103.533 193.376 103.473 193.033 103.393 192.715C102.953 193.261 102.493 193.786 102.073 194.356C99.8927 197.229 97.7323 200.104 95.5718 202.977C95.0928 203.616 94.6124 204.277 94.0915 204.892C93.9525 205.052 93.6516 205.052 93.4317 205.12C93.3116 205.166 93.1726 205.166 93.0727 205.235C92.5518 205.737 92.0917 206.329 91.332 206.352C91.2119 206.352 91.0715 206.535 90.9514 206.649C90.2322 207.241 89.571 207.15 89.1513 206.558C88.6709 206.579 88.2715 206.739 87.9517 206.603C87.4119 206.398 86.8708 205.964 86.972 205.189C87.111 204.186 87.1919 203.091 87.6116 202.224C89.011 199.397 90.4913 196.614 92.0526 193.901C93.5518 191.279 95.2129 188.77 96.812 186.192C96.8929 186.055 96.9725 185.895 97.1129 185.6C96.1319 185.895 95.2925 186.169 94.4316 186.398C92.792 186.807 91.1322 187.173 89.4711 187.561C86.6117 188.222 83.7509 188.974 80.8901 189.522C78.5907 189.977 76.2495 190.206 73.9298 190.525C72.5102 190.708 71.2094 190.183 70.0098 189.408C69.1286 188.838 68.9086 187.925 69.2892 186.876C69.7088 185.714 70.5698 185.075 71.509 184.572C73.2497 183.66 75.0296 182.771 76.8095 181.928C77.5098 181.609 78.2898 181.495 79.0104 181.221C79.7701 180.901 80.4907 180.423 81.2504 180.149C84.3109 179.032 87.3714 177.937 90.4319 176.865C92.3521 176.204 94.2926 175.633 96.2331 175.018C96.3329 174.995 96.453 174.927 96.6527 174.858L94.7325 172.897C90.6721 168.724 86.6117 164.55 82.9305 159.921C82.2504 159.054 81.5703 158.188 81.2504 157.025C81.0507 156.272 81.0912 155.633 81.5905 154.995L82.1303 155.473L82.191 155.429L81.7902 154.698L81.8712 154.584L84.6105 157.184L84.7913 157.025C84.651 156.659 84.4715 156.318 84.2704 155.976C83.8305 155.336 83.3312 154.767 82.8913 154.129C82.4514 153.512 82.4906 153.512 83.1504 152.714C83.531 152.236 83.7509 152.532 84.0114 152.806C84.0707 152.851 84.1503 152.897 84.2111 152.943L84.091 152.396L84.6307 152.874C84.7711 153.011 84.9506 153.125 85.1516 153.171C84.9114 152.829 84.6915 152.463 84.431 152.145C84.1706 151.825 84.2313 151.597 84.5309 151.37C84.9506 151.073 85.3513 150.753 85.7912 150.502C85.9707 150.458 86.1515 150.502 86.3108 150.616C86.6319 150.913 86.972 151.187 87.312 151.46C87.0516 151.05 86.7709 150.639 86.4916 150.205C86.8708 149.727 87.1717 149.75 87.5509 150.161C87.9517 150.616 88.4118 150.982 88.9111 151.277C88.6115 150.685 88.2917 150.115 87.9908 149.522L88.1311 149.362C88.4321 149.544 88.7114 149.75 88.9921 149.978C91.5924 152.623 94.1927 155.269 96.7728 157.937C99.2328 160.491 101.673 163.068 104.114 165.645C104.254 165.782 104.413 165.918 104.633 166.125C104.674 165.851 104.713 165.645 104.713 165.463C104.973 160.901 105.234 156.318 105.474 151.757C105.574 149.864 105.554 147.949 105.674 146.056C105.773 144.733 105.973 143.41 106.254 142.11C106.394 141.517 106.653 140.948 107.014 140.468C107.374 139.943 107.873 139.532 108.414 140.057L108.954 141.495C109.274 140.834 109.233 140.149 109.934 139.899C110.754 139.602 110.754 139.511 111.414 140.377C112.155 139.648 112.795 140.217 113.515 140.583C114.114 140.878 114.715 141.084 115.095 141.723C115.254 141.997 115.375 142.27 115.474 142.566C115.574 142.839 115.655 143.113 115.735 143.387L115.875 143.319L115.615 141.997L115.715 141.904C115.815 142.041 115.975 142.178 116.014 142.338C116.275 143.547 116.615 144.756 116.735 145.986C117.034 149.453 117.254 152.965 117.495 156.431C117.515 156.568 117.555 156.728 117.594 156.865C118.435 155.77 119.235 154.744 120.015 153.741C120.616 152.965 121.135 152.053 121.856 151.483C123.155 150.479 124.076 149.089 125.216 147.926C125.735 147.378 126.196 146.763 126.576 146.079C127.356 144.756 128.276 143.593 129.437 142.726C129.637 142.566 129.836 142.429 130.056 142.338C130.496 142.133 130.816 142.247 130.897 142.886C131.137 142.702 131.376 142.521 131.596 142.361C131.997 142.064 132.516 142.133 132.836 142.544C132.956 142.658 133.137 142.681 133.296 142.612C133.817 142.27 134.817 142.681 135.017 143.319C135.198 143.273 135.397 143.273 135.577 143.273C135.677 143.638 135.737 144.025 135.717 144.413C135.638 144.847 135.538 145.257 135.397 145.668L135.538 145.736L136.257 144.094L136.397 144.118C136.397 144.345 136.397 144.55 136.357 144.779C136.037 146.443 135.297 147.834 134.416 149.179C130.396 155.292 126.395 161.426 122.396 167.583C122.335 167.698 122.276 167.812 122.155 168.016C122.416 167.949 122.575 167.926 122.736 167.88C128.957 165.758 135.177 163.637 141.398 161.518C142.178 161.244 142.918 160.901 143.698 160.674C144.178 160.537 144.679 160.583 145.178 160.514C145.538 160.467 145.938 160.24 146.278 160.332C147.279 160.604 148.379 160.4 149.319 161.175C149.918 161.653 150.039 161.609 150.099 161.882C150.899 161.927 150.759 161.906 150.639 162.839C150.499 164.025 149.759 164.277 149.039 164.619C144.919 166.534 140.798 168.473 136.658 170.297C132.457 172.168 128.236 173.923 123.996 175.702C121.815 176.614 119.616 177.436 117.415 178.302C117.335 178.348 117.254 178.392 117.195 178.462C117.855 179.1 118.494 179.738 119.135 180.353C121.655 182.794 124.196 185.166 126.676 187.652C128.716 189.703 130.696 191.848 132.677 193.969C133.176 194.516 133.617 195.131 134.117 195.656C134.817 196.41 135.057 197.366 135.177 198.371C135.198 198.575 135.037 198.803 134.978 199.009L139.977 204.345L139.898 204.505L139.258 204.208C139.338 204.824 140.197 204.892 139.977 205.713L138.818 205.257L139.997 208.039L139.837 208.199L138.358 207.424C138.338 207.47 138.297 207.538 138.277 207.584L139.757 208.837L139.698 208.928L138.837 208.427L138.778 208.519C138.977 208.656 139.158 208.814 139.358 208.974C139.718 209.248 139.818 209.613 139.598 210.069C139.378 210.525 139.057 210.731 138.637 210.434C137.497 209.636 136.377 208.814 135.237 207.994C134.517 207.447 133.817 206.876 133.076 206.352C132.877 206.238 132.677 206.147 132.477 206.101L132.377 206.306C132.797 206.672 133.196 207.082 133.636 207.424C134.737 208.29 135.857 209.111 136.937 210C137.438 210.411 137.898 210.891 138.417 211.369C138.277 211.803 137.617 212.213 137.017 212.007C136.457 211.824 135.897 211.574 135.377 211.255C132.396 209.339 129.596 207.082 126.896 204.711C125.735 203.683 124.495 202.748 123.355 201.699C121.076 199.557 118.855 197.366 116.615 195.178C116.014 194.584 115.454 193.969 114.874 193.376C114.715 193.261 114.574 193.147 114.415 193.033ZM128.397 190.411L128.496 190.297C128.096 189.863 127.716 189.408 127.297 189.021C123.776 185.644 120.235 182.293 116.694 178.94C116.555 178.849 116.395 178.803 116.234 178.78L116.175 178.963L128.397 190.411ZM105.834 196.66L105.753 196.705V203.706H106.014C106.014 201.495 106.014 199.306 106.014 197.092C106.014 196.934 105.894 196.797 105.834 196.66ZM106.914 162.931L106.873 162.862V168.223H106.914V162.931Z" fill="#EE6B7B"/>
</g>
</svg>
