<svg width="102" height="99" viewBox="0 0 102 99" fill="none" xmlns="http://www.w3.org/2000/svg">
<mask id="mask0_75_70" style="mask-type:luminance" maskUnits="userSpaceOnUse" x="0" y="0" width="102" height="99">
<path d="M0 44.7854L62.636 -4.01139e-05L101.046 53.7194L38.4101 98.5049L0 44.7854Z" fill="white"/>
</mask>
<g mask="url(#mask0_75_70)">
<path d="M46.0663 63.4462C45.1035 64.8002 44.2227 66.1253 43.2542 67.4139C40.1912 71.4617 36.8498 75.192 32.1598 77.4526C30.8911 78.0915 29.5106 78.5024 28.0958 78.6497C25.3431 78.8794 23.5621 77.7388 22.5709 75.1891C21.7886 73.1755 22.1716 71.183 22.7569 69.2147C24.1897 64.3953 26.8629 60.219 29.8929 56.2543C30.5994 55.3319 31.3295 54.4424 32.1039 53.4714C31.0118 53.1794 29.9892 52.9271 28.9797 52.6356C25.8753 51.7558 22.9148 50.4452 20.1907 48.747C18.3867 47.603 16.7443 46.2541 15.5077 44.4958C14.2632 42.6835 13.6256 40.6856 13.9606 38.4393C14.129 37.2957 14.8459 36.4453 15.6788 35.6709C17.4958 33.9744 19.509 32.6243 21.9113 31.8901C23.9896 31.2486 26.1778 31.1344 28.2947 31.5381C28.9709 31.6507 29.5843 32.1062 30.2708 32.42L30.389 32.2262C30.7907 32.6443 31.1689 33.0296 31.8323 32.6645C32.0482 32.5499 33.0966 33.3699 33.1598 33.5731L34.5033 33.6853C34.5411 32.4165 34.5193 31.1506 34.6537 29.9021C35.0716 26.0766 36.5827 22.602 38.6648 19.3946C42.372 13.7339 47.6766 10.5371 54.3388 9.59823C55.4118 9.44695 56.5139 9.52318 57.5889 9.61885C58.8499 9.73051 59.6977 10.4853 60.2125 11.6074C60.9057 13.1085 61.196 14.7786 61.0253 16.4504C60.653 19.9949 59.9587 23.4914 58.5575 26.818C57.4535 29.4253 56.2591 31.9781 55.0949 34.5589C55.0604 34.683 55.0237 34.8185 54.9892 34.9425C55.9332 34.496 56.7796 34.0995 57.6369 33.6753C62.0091 31.4729 66.6339 30.0835 71.4225 29.2822C73.3616 28.9488 75.3022 28.5745 77.2595 28.3671C78.4292 28.2361 79.6238 28.3555 80.7934 28.4829C82.1218 28.6457 83.2346 29.3402 84.109 30.3045C84.9102 31.1522 84.9013 32.2315 84.6201 33.3465C84.5128 33.771 84.5413 34.2274 84.5191 34.6705C84.532 34.8897 84.5382 35.1138 84.5376 35.3427C84.0784 38.1049 82.6979 40.6417 80.6164 42.5572C76.4231 46.4893 71.7075 49.5331 66.2322 51.342C65.2584 51.6607 64.2528 51.8632 63.1317 52.1482C63.3783 52.3494 63.5553 52.5109 63.7434 52.6447C65.6659 54.1411 67.5094 55.7139 69.0899 57.5939C71.0997 60.0312 72.1336 62.7988 72.2689 65.9903C72.3485 67.6818 72.4532 69.3653 72.0949 71.062C71.7313 72.8518 70.7663 74.3465 69.5527 75.6514C68.1659 77.1595 66.3757 77.6149 64.3723 77.1401C62.1938 76.6215 60.2115 75.6447 58.3202 74.4935C53.8845 71.8237 50.135 68.3752 46.8853 64.3905C46.6597 64.0749 46.3703 63.7851 46.0663 63.4462ZM35.3288 68.3817L35.2709 68.2145C35.6217 67.9438 35.9537 67.6468 36.2486 67.3267C37.946 65.3481 39.6481 63.3761 41.2896 61.348C41.9569 60.5431 42.4455 59.6175 42.992 58.73C43.081 58.5671 43.1072 58.3596 43.0399 58.1792C42.5237 56.8396 41.9756 55.5129 41.4228 54.1795C41.3795 54.0615 41.2432 53.8709 41.193 53.8869C40.5026 54.013 39.7277 53.7624 39.1603 54.3766C38.0753 55.5597 36.9856 56.7363 35.9356 57.954C33.4585 60.8676 31.3816 63.9818 30.7604 67.8533C30.59 68.8792 31.2799 69.7866 32.2871 69.5433C33.2943 69.3 34.3241 68.7723 35.3288 68.3817ZM74.5448 37.1827C74.3655 37.1619 74.1842 37.1525 74.0049 37.1316C72.1078 37.2364 70.2086 37.3526 68.3161 37.4639C64.018 37.7158 59.8476 38.5916 56.0127 40.6978C54.9379 41.2775 53.8819 41.8836 52.8144 42.4879C52.8478 42.5633 52.8812 42.6388 52.9193 42.7208C60.4639 42.5419 67.8082 41.5226 74.5448 37.1827ZM45.7069 35.1619C45.8214 35.0204 45.9198 34.8706 46.0202 34.7094C46.6439 33.2402 47.2885 31.7859 47.8819 30.2887C49.3298 26.6109 50.4391 22.8473 51.0416 18.9495C51.1522 18.3141 51.1525 17.6682 51.0614 17.0379C50.8878 16.1487 50.3281 16.0124 49.779 16.7528C49.0014 17.8055 48.1923 18.9006 47.6717 20.0974C45.8577 24.2257 45.3089 28.5719 45.5162 33.0133C45.5342 33.6562 45.6216 34.3387 45.7069 35.1619ZM27.0537 42.5584L29.8889 43.5214C29.7976 43.2788 29.7167 43.1082 29.6493 42.9278L29.7921 42.8258C29.9801 43.0887 30.1812 43.3125 30.4099 43.5463C30.6748 43.7443 30.9643 43.9049 31.283 44.0347C31.8677 44.2922 32.4587 44.3862 33.0474 43.9454C33.1765 43.853 33.4869 44.0285 33.7032 44.0725C33.885 44.1114 34.0737 44.1454 34.2508 44.1776C31.1056 41.4594 27.5967 39.4681 23.4267 38.6349L24.9777 40.8042L24.9101 41.1406C25.5013 41.91 26.6506 41.7936 27.0537 42.5584ZM51.4703 65.215L51.235 65.4031C51.3133 65.5557 51.412 65.6938 51.5311 65.8172C51.7782 66.0479 52.0478 66.2525 52.2812 66.4929C52.8788 67.0988 53.4382 67.7518 54.0671 68.3154C54.6794 68.8413 55.4134 69.2503 56.0461 69.7616C58.144 71.4603 60.3743 72.985 62.8661 74.1141C63.3008 74.3199 63.8391 74.2827 64.3287 74.3498C62.0341 72.9506 59.6652 71.7635 57.4506 70.3468C55.215 68.9153 53.2174 67.1845 51.4703 65.215ZM63.4289 64.8603C62.7763 63.5884 57.6162 59.0722 56.6453 58.8922C58.7591 61.116 60.849 63.2776 63.4289 64.8603ZM63.4081 61.5273C62.5288 60.0102 56.6334 55.4137 55.1499 55.034L63.4081 61.5273ZM66.3773 55.8974C65.4838 54.619 62.5118 52.3729 61.7372 52.4102C63.3264 53.5985 64.8461 54.7471 66.3773 55.8974ZM16.7201 40.3306C16.1875 41.4963 16.6092 42.675 17.6135 43.0596C17.3202 42.1467 17.0463 41.2896 16.7201 40.3306ZM57.0418 52.8964L56.8891 53.0851L61.1562 56.3523L61.2817 56.1831L57.0418 52.8964ZM63.3278 55.0082C62.4372 54.0356 61.4949 53.1199 60.3643 52.458L60.2299 52.6435C61.2549 53.4306 62.2981 54.2145 63.3278 55.0082ZM20.9104 38.3478C20.9106 39.0233 21.4793 39.8187 22.1372 40.0636L20.9104 38.3478ZM64.7799 66.8646L64.9065 66.6251C64.3626 66.3385 63.8004 66.055 63.2633 65.7635L63.1854 65.8987C63.7162 66.2245 64.2559 66.534 64.7799 66.8646Z" fill="#FFD600"/>
</g>
</svg>
