<svg width="79" height="83" viewBox="0 0 79 83" fill="none" xmlns="http://www.w3.org/2000/svg">
<path d="M44.5036 32.4866H78.6945C79.8034 39.8867 78.1031 44.2838 70.119 44.4268C62.5785 44.5698 55.0381 44.4625 48.1629 44.4625C39.7353 56.7245 48.7174 71.5603 38.8113 83C29.1269 80.3546 28.092 73.9555 29.4966 66.1265C30.6424 59.5844 31.5295 53.0423 32.6384 45.6423C25.3197 44.7843 19.5165 44.2123 13.7503 43.3543C8.83419 42.6036 2.62437 44.1408 0 35.7398C11.0889 35.2035 21.4756 34.6673 32.7863 34.0953C34.7084 22.1551 36.5196 11.1087 38.2938 0.0979708C48.089 -0.8315 47.3128 5.03134 46.9801 10.1077C46.4626 17.186 45.4277 24.2286 44.5036 32.4866Z" fill="#FFD600"/>
</svg>
